Ubuntu-Condensed_Medium.ufo
<glyph name="exclam" format="2">
  <advance width="271.46000000000004"/>
  <unicode hex="0021"/>
  <outline>
    <contour>
      <point x="105.68" y="213.86" type="curve"/>
      <point x="163.82" y="213.86" type="line"/>
      <point x="182.06" y="298.34"/>
      <point x="194.32" y="418.71999999999997"/>
      <point x="194.32" y="509.90000000000003" type="curve" smooth="yes"/>
      <point x="194.32" y="693.0" type="line"/>
      <point x="75.52" y="693.0" type="line"/>
      <point x="75.52" y="509.90000000000003" type="line" smooth="yes"/>
      <point x="75.52" y="418.8983783783783"/>
      <point x="87.78" y="298.34"/>
    </contour>
    <contour>
      <point x="135.24" y="-12.3" type="curve" smooth="yes"/>
      <point x="180.04" y="-12.3"/>
      <point x="208.94" y="22.560000000000002"/>
      <point x="208.94" y="61.080000000000005" type="curve" smooth="yes"/>
      <point x="208.94" y="100.60000000000001"/>
      <point x="180.04" y="135.78"/>
      <point x="135.24" y="135.78" type="curve" smooth="yes"/>
      <point x="90.42" y="135.78"/>
      <point x="62.85999999999999" y="100.60000000000001"/>
      <point x="62.85999999999999" y="61.080000000000005" type="curve" smooth="yes"/>
      <point x="62.85999999999999" y="22.560000000000002"/>
      <point x="90.42" y="-12.3"/>
    </contour>
  </outline>
</glyph>
<glyph name="numbersign" format="2">
  <advance width="583.04"/>
  <unicode hex="0023"/>
  <outline>
    <contour>
      <point x="99.72" y="0.0" type="line"/>
      <point x="191.64000000000001" y="0.0" type="line"/>
      <point x="216.32000000000002" y="179.76000000000002" type="line"/>
      <point x="320.74" y="179.76000000000002" type="line"/>
      <point x="296.06" y="0.0" type="line"/>
      <point x="387.97999999999996" y="0.0" type="line"/>
      <point x="412.66" y="179.76000000000002" type="line"/>
      <point x="533.4200000000001" y="179.76000000000002" type="line"/>
      <point x="533.4200000000001" y="262.08000000000004" type="line"/>
      <point x="424.28" y="262.08000000000004" type="line"/>
      <point x="447.02" y="431.23999999999995" type="line"/>
      <point x="533.4200000000001" y="431.23999999999995" type="line"/>
      <point x="533.4200000000001" y="513.9000000000001" type="line"/>
      <point x="458.64" y="513.9000000000001" type="line"/>
      <point x="483.32" y="693.0" type="line"/>
      <point x="391.06" y="693.0" type="line"/>
      <point x="366.38000000000005" y="513.9000000000001" type="line"/>
      <point x="262.3" y="513.9000000000001" type="line"/>
      <point x="286.97999999999996" y="693.0" type="line"/>
      <point x="194.72" y="693.66" type="line"/>
      <point x="170.04" y="513.9000000000001" type="line"/>
      <point x="49.620000000000005" y="513.9000000000001" type="line"/>
      <point x="49.620000000000005" y="431.23999999999995" type="line"/>
      <point x="158.76000000000002" y="431.23999999999995" type="line"/>
      <point x="136.02" y="262.08000000000004" type="line"/>
      <point x="49.620000000000005" y="262.08000000000004" type="line"/>
      <point x="49.620000000000005" y="179.76000000000002" type="line"/>
      <point x="124.39999999999999" y="179.76000000000002" type="line"/>
    </contour>
    <contour>
      <point x="227.94" y="262.08000000000004" type="line"/>
      <point x="250.68" y="431.23999999999995" type="line"/>
      <point x="354.76" y="431.23999999999995" type="line"/>
      <point x="332.02000000000004" y="262.08000000000004" type="line"/>
    </contour>
  </outline>
</glyph>
<glyph name="dollar" format="2">
  <advance width="434.62"/>
  <unicode hex="0024"/>
  <outline>
    <contour>
      <point x="165.22" y="-109.0" type="line"/>
      <point x="262.14" y="-109.0" type="line"/>
      <point x="262.14" y="21.38" type="line"/>
      <point x="340.8" y="46.959999999999994"/>
      <point x="387.08" y="116.24000000000001"/>
      <point x="387.08" y="198.88" type="curve" smooth="yes"/>
      <point x="387.08" y="280.08"/>
      <point x="346.56" y="329.34"/>
      <point x="273.38" y="378.9" type="curve" smooth="yes"/>
      <point x="201.56" y="427.44"/>
      <point x="169.36" y="453.14"/>
      <point x="169.36" y="501.36" type="curve" smooth="yes"/>
      <point x="169.36" y="551.24"/>
      <point x="197.84" y="576.66"/>
      <point x="245.62" y="576.66" type="curve" smooth="yes"/>
      <point x="277.26" y="576.66"/>
      <point x="312.88" y="566.68"/>
      <point x="339.24" y="549.6999999999999" type="curve"/>
      <point x="367.12" y="637.9799999999999" type="line"/>
      <point x="337.15999999999997" y="654.9399999999999"/>
      <point x="301.15999999999997" y="666.26"/>
      <point x="263.84" y="670.24" type="curve"/>
      <point x="263.84" y="776.0" type="line"/>
      <point x="166.58" y="776.0" type="line"/>
      <point x="166.58" y="659.96" type="line"/>
      <point x="95.22" y="635.3599999999999"/>
      <point x="52.24" y="570.72"/>
      <point x="52.24" y="494.08" type="curve" smooth="yes"/>
      <point x="52.24" y="412.24"/>
      <point x="98.74" y="365.0"/>
      <point x="168.95999999999998" y="317.42" type="curve" smooth="yes"/>
      <point x="236.46" y="271.54"/>
      <point x="269.62" y="242.16"/>
      <point x="269.62" y="185.32000000000002" type="curve" smooth="yes"/>
      <point x="269.62" y="137.83076923076922"/>
      <point x="239.56" y="107.98"/>
      <point x="183.42000000000002" y="107.98" type="curve" smooth="yes"/>
      <point x="146.17417475728155" y="107.98"/>
      <point x="107.2256617700959" y="122.88584224174262"/>
      <point x="74.72" y="146.92" type="curve"/>
      <point x="42.879999999999995" y="51.38" type="line"/>
      <point x="71.55999999999999" y="31.059999999999995"/>
      <point x="117.88" y="16.08"/>
      <point x="165.22" y="11.099999999999998" type="curve"/>
    </contour>
  </outline>
</glyph>
<glyph name="percent" format="2">
  <advance width="676.02"/>
  <unicode hex="0025"/>
  <outline>
    <contour>
      <point x="151.34" y="0.0" type="line"/>
      <point x="244.61999999999998" y="0.0" type="line"/>
      <point x="522.6400000000001" y="693.0" type="line"/>
      <point x="429.36" y="693.0" type="line"/>
    </contour>
    <contour>
      <point x="167.66" y="330.18" type="curve" smooth="yes"/>
      <point x="249.89999999999998" y="330.18"/>
      <point x="293.16" y="395.46000000000004"/>
      <point x="293.16" y="519.08" type="curve"/>
      <point x="293.16" y="642.38"/>
      <point x="249.89999999999998" y="707.0"/>
      <point x="167.66" y="707.0" type="curve"/>
      <point x="85.76" y="707.0"/>
      <point x="42.5" y="642.38"/>
      <point x="42.5" y="519.08" type="curve" smooth="yes"/>
      <point x="42.5" y="395.46000000000004"/>
      <point x="85.76" y="330.18"/>
    </contour>
    <contour>
      <point x="167.66" y="405.22" type="curve" smooth="yes"/>
      <point x="140.24" y="405.22"/>
      <point x="130.16000000000003" y="432.0"/>
      <point x="130.16000000000003" y="519.08" type="curve"/>
      <point x="130.16000000000003" y="605.18"/>
      <point x="140.24" y="631.96"/>
      <point x="167.66" y="631.96" type="curve" smooth="yes"/>
      <point x="195.42000000000002" y="631.96"/>
      <point x="205.16" y="605.18"/>
      <point x="205.16" y="519.08" type="curve"/>
      <point x="205.16" y="432.0"/>
      <point x="195.42000000000002" y="405.22"/>
    </contour>
    <contour>
      <point x="508.36000000000007" y="-14.32" type="curve" smooth="yes"/>
      <point x="590.26" y="-14.32"/>
      <point x="633.52" y="50.96"/>
      <point x="633.52" y="174.92000000000002" type="curve" smooth="yes"/>
      <point x="633.52" y="297.88"/>
      <point x="590.26" y="362.5"/>
      <point x="508.36000000000007" y="362.5" type="curve" smooth="yes"/>
      <point x="426.12" y="362.5"/>
      <point x="382.86" y="297.88"/>
      <point x="382.86" y="174.92000000000002" type="curve"/>
      <point x="382.86" y="50.96"/>
      <point x="426.12" y="-14.32"/>
    </contour>
    <contour>
      <point x="508.36000000000007" y="60.72" type="curve" smooth="yes"/>
      <point x="480.6" y="60.72"/>
      <point x="470.86" y="87.5"/>
      <point x="470.86" y="174.92000000000002" type="curve"/>
      <point x="470.86" y="260.68"/>
      <point x="480.6" y="287.8"/>
      <point x="508.36000000000007" y="287.8" type="curve" smooth="yes"/>
      <point x="535.78" y="287.8"/>
      <point x="545.86" y="260.68"/>
      <point x="545.86" y="174.92000000000002" type="curve" smooth="yes"/>
      <point x="545.86" y="87.5"/>
      <point x="535.78" y="60.72"/>
    </contour>
  </outline>
</glyph>
<glyph name="ampersand" format="2">
  <advance width="533.94"/>
  <unicode hex="0026"/>
  <outline>
    <contour>
      <point x="235.54000000000002" y="-12.3" type="curve" smooth="yes"/>
      <point x="289.58" y="-12.3"/>
      <point x="344.6" y="15.099999999999998"/>
      <point x="385.62" y="64.2" type="curve"/>
      <point x="399.34000000000003" y="43.120000000000005"/>
      <point x="411.06" y="21.72"/>
      <point x="419.76" y="0.0" type="curve"/>
      <point x="526.3" y="0.0" type="line"/>
      <point x="504.0" y="54.88"/>
      <point x="477.00000000000006" y="105.16"/>
      <point x="449.3" y="147.51999999999998" type="curve"/>
      <point x="477.97999999999996" y="206.84"/>
      <point x="493.04" y="280.18"/>
      <point x="498.04" y="358.23999999999995" type="curve"/>
      <point x="410.4" y="369.86" type="line"/>
      <point x="406.72" y="318.36"/>
      <point x="398.65999999999997" y="270.90000000000003"/>
      <point x="386.91999999999996" y="230.16" type="curve"/>
      <point x="282.90000000000003" y="367.06" type="line"/>
      <point x="350.2" y="421.0"/>
      <point x="391.02000000000004" y="481.61999999999995"/>
      <point x="391.02000000000004" y="558.4" type="curve" smooth="yes"/>
      <point x="391.02000000000004" y="649.5799999999999"/>
      <point x="342.14" y="707.0"/>
      <point x="244.88" y="707.0" type="curve" smooth="yes"/>
      <point x="148.68" y="707.0"/>
      <point x="90.42" y="644.6800000000001"/>
      <point x="90.42" y="544.7600000000001" type="curve" smooth="yes"/>
      <point x="90.42" y="483.04"/>
      <point x="110.53999999999999" y="436.94000000000005"/>
      <point x="149.52" y="381.64" type="curve"/>
      <point x="73.6" y="317.78000000000003"/>
      <point x="39.76" y="258.14000000000004"/>
      <point x="39.76" y="171.64000000000001" type="curve" smooth="yes"/>
      <point x="39.76" y="69.5"/>
      <point x="111.53999999999999" y="-12.3"/>
    </contour>
    <contour>
      <point x="240.18" y="81.28" type="curve" smooth="yes"/>
      <point x="185.64000000000001" y="81.28"/>
      <point x="144.64" y="119.48"/>
      <point x="144.64" y="183.89999999999998" type="curve" smooth="yes"/>
      <point x="144.64" y="235.79999999999998"/>
      <point x="163.77999999999997" y="277.53999999999996"/>
      <point x="200.62" y="313.92" type="curve"/>
      <point x="336.82" y="134.26" type="line"/>
      <point x="310.08000000000004" y="99.74000000000001"/>
      <point x="276.29999999999995" y="81.28"/>
    </contour>
    <contour>
      <point x="231.46" y="434.12" type="curve"/>
      <point x="201.78" y="476.47999999999996"/>
      <point x="185.36" y="510.92"/>
      <point x="185.36" y="546.4200000000001" type="curve" smooth="yes"/>
      <point x="185.36" y="598.54"/>
      <point x="204.42" y="624.0"/>
      <point x="240.57999999999998" y="624.0" type="curve" smooth="yes"/>
      <point x="273.02" y="624.0"/>
      <point x="296.08" y="600.9200000000001"/>
      <point x="296.08" y="556.4200000000001" type="curve" smooth="yes"/>
      <point x="296.08" y="505.94"/>
      <point x="273.90000000000003" y="470.82"/>
    </contour>
  </outline>
</glyph>
<glyph name="quotesingle" format="2">
  <advance width="220.72"/>
  <unicode hex="0027"/>
  <outline>
    <contour>
      <point x="80.32" y="485.96" type="curve"/>
      <point x="140.06" y="485.96" type="line"/>
      <point x="154.00000000000003" y="551.0"/>
      <point x="164.94" y="638.4"/>
      <point x="164.94" y="696.14" type="curve"/>
      <point x="164.94" y="760.0" type="line"/>
      <point x="55.78" y="760.0" type="line"/>
      <point x="55.78" y="696.48" type="line"/>
      <point x="55.78" y="638.4"/>
      <point x="66.38" y="551.0"/>
    </contour>
  </outline>
</glyph>
<glyph name="parenleft" format="2">
  <advance width="299.06"/>
  <unicode hex="0028"/>
  <outline>
    <contour>
      <point x="211.01999999999998" y="-187.0" type="curve"/>
      <point x="294.02" y="-138.56" type="line"/>
      <point x="227.84" y="-21.9"/>
      <point x="181.26" y="124.14"/>
      <point x="181.26" y="299.0" type="curve"/>
      <point x="181.26" y="473.86"/>
      <point x="227.84" y="619.9"/>
      <point x="294.02" y="736.56" type="curve"/>
      <point x="211.01999999999998" y="785.0" type="line"/>
      <point x="129.6" y="665.98"/>
      <point x="72.4" y="489.16"/>
      <point x="72.4" y="299.0" type="curve" smooth="yes"/>
      <point x="72.4" y="108.84"/>
      <point x="129.6" y="-67.98"/>
    </contour>
  </outline>
</glyph>
<glyph name="parenright" format="2">
  <advance width="299.06"/>
  <unicode hex="0029"/>
  <outline>
    <contour>
      <point x="88.04" y="-187.0" type="line"/>
      <point x="169.46" y="-67.98"/>
      <point x="226.66" y="108.84"/>
      <point x="226.66" y="299.0" type="curve" smooth="yes"/>
      <point x="226.66" y="489.16"/>
      <point x="169.46" y="665.98"/>
      <point x="88.04" y="785.0" type="curve"/>
      <point x="5.039999999999999" y="736.56" type="line"/>
      <point x="71.22" y="619.9"/>
      <point x="117.8" y="473.86"/>
      <point x="117.8" y="299.0" type="curve"/>
      <point x="117.8" y="124.14"/>
      <point x="71.22" y="-21.9"/>
      <point x="5.039999999999999" y="-138.56" type="curve"/>
    </contour>
  </outline>
</glyph>
<glyph name="asterisk" format="2">
  <advance width="404.76"/>
  <unicode hex="002A"/>
  <outline>
    <contour>
      <point x="152.39999999999998" y="389.56" type="line"/>
      <point x="170.2" y="413.74"/>
      <point x="182.57999999999998" y="441.21999999999997"/>
      <point x="202.86" y="511.82" type="curve"/>
      <point x="223.14" y="441.88"/>
      <point x="235.51999999999998" y="414.40000000000003"/>
      <point x="252.66" y="390.22" type="curve"/>
      <point x="336.64000000000004" y="451.3" type="line"/>
      <point x="320.18" y="475.82"/>
      <point x="298.40000000000003" y="496.58"/>
      <point x="237.1" y="537.74" type="curve"/>
      <point x="312.42" y="535.48"/>
      <point x="340.53999999999996" y="539.16"/>
      <point x="367.06" y="548.56" type="curve"/>
      <point x="335.20000000000005" y="647.48" type="line"/>
      <point x="307.32" y="638.42"/>
      <point x="281.20000000000005" y="623.66"/>
      <point x="223.48000000000002" y="579.28" type="curve"/>
      <point x="248.3" y="646.94"/>
      <point x="254.34" y="676.1"/>
      <point x="254.0" y="707.0" type="curve"/>
      <point x="150.44" y="707.0" type="line"/>
      <point x="150.1" y="676.1"/>
      <point x="156.14000000000001" y="646.94"/>
      <point x="180.62" y="577.96" type="curve"/>
      <point x="123.55999999999999" y="622.6800000000001"/>
      <point x="97.76" y="637.1"/>
      <point x="69.22" y="646.5" type="curve"/>
      <point x="37.36" y="547.92" type="line"/>
      <point x="65.55999999999999" y="537.8399999999999"/>
      <point x="90.98" y="534.1600000000001"/>
      <point x="167.64" y="536.76" type="curve"/>
      <point x="107.67999999999999" y="496.26"/>
      <point x="85.88" y="475.15999999999997"/>
      <point x="68.76" y="450.64" type="curve"/>
    </contour>
  </outline>
</glyph>
<glyph name="plus" format="2">
  <advance width="431.96"/>
  <unicode hex="002B"/>
  <outline>
    <contour>
      <point x="170.16" y="117.02" type="line"/>
      <point x="261.46" y="117.02" type="line"/>
      <point x="261.46" y="253.2" type="line"/>
      <point x="390.26" y="253.2" type="line"/>
      <point x="390.26" y="345.8" type="line"/>
      <point x="261.46" y="345.8" type="line"/>
      <point x="261.46" y="480.0" type="line"/>
      <point x="170.16" y="480.0" type="line"/>
      <point x="170.16" y="345.8" type="line"/>
      <point x="41.36" y="345.8" type="line"/>
      <point x="41.36" y="253.2" type="line"/>
      <point x="170.16" y="253.2" type="line"/>
    </contour>
  </outline>
</glyph>
<glyph name="comma" format="2">
  <advance width="239.38"/>
  <unicode hex="002C"/>
  <outline>
    <contour>
      <point x="116.68" y="-151.89999999999998" type="line"/>
      <point x="159.58" y="-76.72"/>
      <point x="184.56" y="6.760000000000002"/>
      <point x="184.56" y="87.03999999999999" type="curve" smooth="yes"/>
      <point x="184.56" y="99.7"/>
      <point x="184.56" y="109.38"/>
      <point x="182.9" y="128.64000000000001" type="curve"/>
      <point x="71.38" y="128.64000000000001" type="line"/>
      <point x="72.38" y="115.62"/>
      <point x="74.03999999999999" y="87.08"/>
      <point x="74.03999999999999" y="71.44" type="curve" smooth="yes"/>
      <point x="74.03999999999999" y="10.459999999999999"/>
      <point x="63.72" y="-61.099999999999994"/>
      <point x="35.72" y="-129.34" type="curve"/>
    </contour>
  </outline>
</glyph>
<glyph name="hyphen" format="2">
  <advance width="257.35999999999996"/>
  <unicode hex="002D"/>
  <outline>
    <contour>
      <point x="25.68" y="248.8" type="line"/>
      <point x="231.67999999999998" y="248.8" type="line"/>
      <point x="231.67999999999998" y="349.68" type="line"/>
      <point x="25.68" y="349.68" type="line"/>
    </contour>
  </outline>
</glyph>
<glyph name="period" format="2">
  <advance width="239.38"/>
  <unicode hex="002E"/>
  <outline>
    <contour>
      <point x="118.86" y="-12.3" type="curve" smooth="yes"/>
      <point x="164.0" y="-12.3"/>
      <point x="192.24" y="21.240000000000002"/>
      <point x="192.24" y="58.440000000000005" type="curve" smooth="yes"/>
      <point x="192.24" y="96.64"/>
      <point x="164.0" y="131.16"/>
      <point x="118.86" y="131.16" type="curve" smooth="yes"/>
      <point x="75.04" y="131.16"/>
      <point x="47.14" y="96.64"/>
      <point x="47.14" y="58.440000000000005" type="curve" smooth="yes"/>
      <point x="47.14" y="21.240000000000002"/>
      <point x="75.04" y="-12.3"/>
    </contour>
  </outline>
</glyph>
<glyph name="slash" format="2">
  <advance width="299.82"/>
  <unicode hex="002F"/>
  <outline>
    <contour>
      <point x="-22.7" y="-185.0" type="line"/>
      <point x="79.17999999999999" y="-185.0" type="line"/>
      <point x="322.18" y="783.0" type="line"/>
      <point x="219.96" y="783.0" type="line"/>
    </contour>
  </outline>
</glyph>
<glyph name="zero" format="2">
  <advance width="431.96"/>
  <unicode hex="0030"/>
  <outline>
    <contour>
      <point x="215.98" y="-13.66" type="curve" smooth="yes"/>
      <point x="339.8911111111111" y="-13.66"/>
      <point x="392.44" y="91.29999999999998"/>
      <point x="392.44" y="347.0" type="curve" smooth="yes"/>
      <point x="392.44" y="603.04"/>
      <point x="339.8911111111111" y="707.3399999999999"/>
      <point x="215.98" y="707.3399999999999" type="curve" smooth="yes"/>
      <point x="90.76285714285713" y="707.3399999999999"/>
      <point x="39.52" y="605.02"/>
      <point x="39.52" y="347.0" type="curve" smooth="yes"/>
      <point x="39.52" y="88.66"/>
      <point x="90.76285714285714" y="-13.66"/>
    </contour>
    <contour>
      <point x="215.98" y="83.24000000000001" type="curve" smooth="yes"/>
      <point x="171.176" y="83.24000000000001"/>
      <point x="155.98000000000002" y="141.7475"/>
      <point x="155.98000000000002" y="347.0" type="curve" smooth="yes"/>
      <point x="155.98000000000002" y="551.9314644351465"/>
      <point x="170.83599999999998" y="610.44"/>
      <point x="215.98" y="610.44" type="curve" smooth="yes"/>
      <point x="260.784" y="610.44"/>
      <point x="275.98" y="551.9314644351465"/>
      <point x="275.98" y="347.0" type="curve" smooth="yes"/>
      <point x="275.98" y="141.7475"/>
      <point x="261.12399999999997" y="83.24000000000001"/>
    </contour>
  </outline>
</glyph>
<glyph name="one" format="2">
  <advance width="431.96"/>
  <unicode hex="0031"/>
  <outline>
    <contour>
      <point x="189.46" y="0.0" type="line"/>
      <point x="300.94" y="0.0" type="line"/>
      <point x="300.94" y="693.0" type="line"/>
      <point x="219.94" y="693.0" type="line"/>
      <point x="184.38" y="639.72"/>
      <point x="124.1" y="586.6800000000001"/>
      <point x="63.839999999999996" y="553.3399999999999" type="curve"/>
      <point x="105.67999999999999" y="471.4" type="line"/>
      <point x="133.8" y="485.18"/>
      <point x="163.45999999999998" y="503.9"/>
      <point x="189.46" y="526.0" type="curve"/>
    </contour>
  </outline>
</glyph>
<glyph name="two" format="2">
  <advance width="431.96"/>
  <unicode hex="0032"/>
  <outline>
    <contour>
      <point x="50.160000000000004" y="0.0" type="curve"/>
      <point x="387.8" y="0.0" type="line"/>
      <point x="387.8" y="94.28" type="line"/>
      <point x="174.22" y="94.28" type="line"/>
      <point x="182.86" y="172.92"/>
      <point x="214.42" y="224.82"/>
      <point x="270.06" y="303.1" type="curve" smooth="yes"/>
      <point x="329.64" y="387.64"/>
      <point x="374.67999999999995" y="453.32"/>
      <point x="374.67999999999995" y="538.6999999999999" type="curve" smooth="yes"/>
      <point x="374.67999999999995" y="642.76"/>
      <point x="309.76" y="707.3399999999999"/>
      <point x="202.5" y="707.3399999999999" type="curve" smooth="yes"/>
      <point x="136.96" y="707.3399999999999"/>
      <point x="79.72" y="685.7"/>
      <point x="36.46" y="647.04" type="curve"/>
      <point x="87.58" y="570.4000000000001" type="line"/>
      <point x="115.58" y="595.08"/>
      <point x="144.64" y="610.1"/>
      <point x="180.67999999999998" y="610.1" type="curve"/>
      <point x="228.52" y="610.1"/>
      <point x="258.56" y="585.96"/>
      <point x="258.56" y="526.8" type="curve" smooth="yes"/>
      <point x="258.56" y="460.62"/>
      <point x="218.49999999999997" y="405.91999999999996"/>
      <point x="163.56" y="328.7" type="curve" smooth="yes"/>
      <point x="105.55999999999999" y="247.39999999999998"/>
      <point x="50.16" y="153.14"/>
      <point x="50.16" y="19.000000000000004" type="curve" smooth="yes"/>
      <point x="50.16" y="12.78418"/>
      <point x="50.16" y="6.21582"/>
    </contour>
  </outline>
</glyph>
<glyph name="three" format="2">
  <advance width="431.96"/>
  <unicode hex="0033"/>
  <outline>
    <contour>
      <point x="175.67999999999998" y="-14.34" type="curve" smooth="yes"/>
      <point x="302.84" y="-14.34"/>
      <point x="381.72" y="64.92"/>
      <point x="381.72" y="195.56" type="curve" smooth="yes"/>
      <point x="381.72" y="283.36"/>
      <point x="349.96" y="336.46000000000004"/>
      <point x="277.94" y="369.35999999999996" type="curve"/>
      <point x="338.62" y="399.65999999999997"/>
      <point x="368.64000000000004" y="458.35999999999996"/>
      <point x="368.64000000000004" y="535.7" type="curve" smooth="yes"/>
      <point x="368.64000000000004" y="641.34"/>
      <point x="300.12" y="707.3399999999999"/>
      <point x="192.88" y="707.3399999999999" type="curve" smooth="yes"/>
      <point x="134.04" y="707.3399999999999"/>
      <point x="79.42" y="691.0"/>
      <point x="41.8" y="661.0" type="curve"/>
      <point x="82.3" y="582.02" type="line"/>
      <point x="109.94000000000001" y="600.7199999999999"/>
      <point x="138.04" y="610.44"/>
      <point x="167.1" y="610.44" type="curve" smooth="yes"/>
      <point x="223.14000000000001" y="610.44"/>
      <point x="253.20000000000002" y="575.6999999999999"/>
      <point x="253.20000000000002" y="517.2" type="curve" smooth="yes"/>
      <point x="253.20000000000002" y="456.72"/>
      <point x="220.22" y="411.84"/>
      <point x="152.96" y="411.84" type="curve" smooth="yes"/>
      <point x="111.83999999999999" y="411.84" type="line"/>
      <point x="111.83999999999999" y="319.24" type="line"/>
      <point x="151.66" y="319.24" type="line"/>
      <point x="228.52" y="319.24"/>
      <point x="266.28" y="278.76"/>
      <point x="266.28" y="198.2" type="curve" smooth="yes"/>
      <point x="266.28" y="118.26"/>
      <point x="227.45999999999998" y="82.56"/>
      <point x="163.76" y="82.56" type="curve" smooth="yes"/>
      <point x="126.74" y="82.56"/>
      <point x="90.08" y="93.58000000000001"/>
      <point x="61.68" y="111.6" type="curve"/>
      <point x="33.46" y="20.68" type="line"/>
      <point x="68.47999999999999" y="-1.6600000000000001"/>
      <point x="119.11999999999999" y="-14.34"/>
    </contour>
  </outline>
</glyph>
<glyph name="four" format="2">
  <advance width="431.96"/>
  <unicode hex="0034"/>
  <outline>
    <contour>
      <point x="244.24" y="0.0" type="line"/>
      <point x="348.42" y="0.0" type="line"/>
      <point x="348.42" y="153.88" type="line"/>
      <point x="414.8" y="153.88" type="line"/>
      <point x="414.8" y="241.51999999999998" type="line"/>
      <point x="348.42" y="241.51999999999998" type="line"/>
      <point x="348.42" y="693.0" type="line"/>
      <point x="235.92000000000002" y="693.0" type="line"/>
      <point x="172.96" y="591.3399999999999"/>
      <point x="78.88" y="391.06"/>
      <point x="31.84" y="232.54" type="curve"/>
      <point x="31.84" y="153.88" type="line"/>
      <point x="244.24" y="153.88" type="line"/>
    </contour>
    <contour>
      <point x="124.77999999999999" y="241.51999999999998" type="line"/>
      <point x="154.2" y="341.84000000000003"/>
      <point x="198.78" y="453.2"/>
      <point x="244.24" y="544.3399999999999" type="curve"/>
      <point x="244.24" y="241.51999999999998" type="line"/>
    </contour>
  </outline>
</glyph>
<glyph name="five" format="2">
  <advance width="431.96"/>
  <unicode hex="0035"/>
  <outline>
    <contour>
      <point x="173.62" y="-14.34" type="curve"/>
      <point x="298.12" y="-14.34"/>
      <point x="379.40000000000003" y="82.17999999999999"/>
      <point x="379.40000000000003" y="212.26" type="curve" smooth="yes"/>
      <point x="379.40000000000003" y="327.64"/>
      <point x="318.76" y="403.90000000000003"/>
      <point x="185.14000000000001" y="428.18" type="curve"/>
      <point x="189.48" y="477.6"/>
      <point x="192.48" y="530.72"/>
      <point x="194.5" y="599.4" type="curve"/>
      <point x="362.1" y="599.4" type="line"/>
      <point x="362.1" y="693.0" type="line"/>
      <point x="99.58" y="693.0" type="line"/>
      <point x="99.55999999999999" y="599.22"/>
      <point x="90.94" y="453.04"/>
      <point x="79.60000000000001" y="346.21999999999997" type="curve"/>
      <point x="214.82000000000002" y="339.21999999999997"/>
      <point x="263.96" y="293.18"/>
      <point x="263.96" y="211.6" type="curve" smooth="yes"/>
      <point x="263.96" y="126.07999999999998"/>
      <point x="225.16" y="82.9"/>
      <point x="160.74" y="82.9" type="curve" smooth="yes"/>
      <point x="127.77999999999999" y="82.9"/>
      <point x="97.06" y="91.89999999999999"/>
      <point x="71.36" y="106.9" type="curve"/>
      <point x="42.800000000000004" y="15.98" type="line"/>
      <point x="77.82000000000001" y="-3.6800000000000006"/>
      <point x="122.41999999999999" y="-14.34"/>
    </contour>
  </outline>
</glyph>
<glyph name="six" format="2">
  <advance width="431.96"/>
  <unicode hex="0036"/>
  <outline>
    <contour>
      <point x="222.06" y="-13.66" type="curve" smooth="yes"/>
      <point x="329.3" y="-13.66"/>
      <point x="393.14" y="77.62"/>
      <point x="393.14" y="220.92" type="curve" smooth="yes"/>
      <point x="393.14" y="350.58000000000004"/>
      <point x="334.88000000000005" y="430.58000000000004"/>
      <point x="237.26" y="430.58000000000004" type="curve" smooth="yes"/>
      <point x="212.86" y="430.58000000000004"/>
      <point x="190.44" y="425.53999999999996"/>
      <point x="169.35999999999999" y="415.15999999999997" type="curve"/>
      <point x="195.0" y="548.34"/>
      <point x="260.76" y="601.0"/>
      <point x="362.44" y="606.72" type="curve"/>
      <point x="351.16" y="696.98" type="line"/>
      <point x="151.5" y="693.58"/>
      <point x="44.3" y="519.4"/>
      <point x="44.3" y="286.41999999999996" type="curve" smooth="yes"/>
      <point x="44.3" y="76.24"/>
      <point x="100.26" y="-13.66"/>
    </contour>
    <contour>
      <point x="220.4" y="82.56" type="curve" smooth="yes"/>
      <point x="169.76" y="82.56"/>
      <point x="157.42000000000002" y="147.74"/>
      <point x="157.42000000000002" y="269.53999999999996" type="curve" smooth="yes"/>
      <point x="157.42000000000002" y="282.56"/>
      <point x="158.42000000000002" y="303.56"/>
      <point x="160.74" y="327.84000000000003" type="curve"/>
      <point x="175.51999999999998" y="336.26"/>
      <point x="192.32" y="340.64000000000004"/>
      <point x="209.06" y="340.64000000000004" type="curve"/>
      <point x="260.2324528301887" y="340.64000000000004"/>
      <point x="279.99999999999994" y="304.44"/>
      <point x="279.99999999999994" y="216.92" type="curve" smooth="yes"/>
      <point x="279.99999999999994" y="126.80000000000001"/>
      <point x="263.8885714285715" y="82.56"/>
    </contour>
  </outline>
</glyph>
<glyph name="seven" format="2">
  <advance width="431.96"/>
  <unicode hex="0037"/>
  <outline>
    <contour>
      <point x="102.56" y="0.0" type="curve"/>
      <point x="216.04" y="0.0" type="line"/>
      <point x="231.0" y="207.88"/>
      <point x="302.5" y="458.56"/>
      <point x="389.76" y="614.0" type="curve"/>
      <point x="389.76" y="693.0" type="line"/>
      <point x="39.120000000000005" y="693.0" type="line"/>
      <point x="39.120000000000005" y="595.7600000000001" type="line"/>
      <point x="272.24" y="595.7600000000001" type="line"/>
      <point x="196.18" y="454.9"/>
      <point x="113.19999999999999" y="179.44"/>
    </contour>
  </outline>
</glyph>
<glyph name="eight" format="2">
  <advance width="431.96"/>
  <unicode hex="0038"/>
  <outline>
    <contour>
      <point x="214.0" y="-14.32" type="curve" smooth="yes"/>
      <point x="324.36" y="-14.32"/>
      <point x="391.8" y="61.86"/>
      <point x="391.8" y="174.62" type="curve" smooth="yes"/>
      <point x="391.8" y="250.66"/>
      <point x="358.96000000000004" y="302.03999999999996"/>
      <point x="292.72" y="358.58" type="curve"/>
      <point x="345.7" y="412.82"/>
      <point x="377.18" y="471.88"/>
      <point x="377.18" y="540.0" type="curve" smooth="yes"/>
      <point x="377.18" y="645.46"/>
      <point x="306.52" y="707.3399999999999"/>
      <point x="212.72" y="707.3399999999999" type="curve" smooth="yes"/>
      <point x="125.56" y="707.3399999999999"/>
      <point x="50.88" y="639.86"/>
      <point x="50.88" y="534.1" type="curve" smooth="yes"/>
      <point x="50.88" y="463.97999999999996"/>
      <point x="76.66" y="411.58"/>
      <point x="133.64" y="358.36" type="curve"/>
      <point x="75.24" y="302.09999999999997"/>
      <point x="39.82" y="244.38"/>
      <point x="39.82" y="165.34" type="curve" smooth="yes"/>
      <point x="39.82" y="67.28"/>
      <point x="104.16" y="-14.32"/>
    </contour>
    <contour>
      <point x="217.32" y="73.30000000000001" type="curve" smooth="yes"/>
      <point x="173.45999999999998" y="73.30000000000001"/>
      <point x="152.62" y="114.42"/>
      <point x="152.62" y="174.3" type="curve" smooth="yes"/>
      <point x="152.62" y="229.20000000000002"/>
      <point x="168.16" y="265.3"/>
      <point x="196.72" y="304.64000000000004" type="curve"/>
      <point x="249.76" y="259.66"/>
      <point x="279.34000000000003" y="220.88"/>
      <point x="279.34000000000003" y="167.66000000000003" type="curve" smooth="yes"/>
      <point x="279.34000000000003" y="102.78"/>
      <point x="252.16" y="73.30000000000001"/>
    </contour>
    <contour>
      <point x="231.28" y="408.02" type="curve"/>
      <point x="175.9" y="455.64000000000004"/>
      <point x="156.74" y="490.74"/>
      <point x="156.74" y="544.38" type="curve" smooth="yes"/>
      <point x="156.74" y="599.0400000000001"/>
      <point x="182.32" y="619.7199999999999"/>
      <point x="213.38" y="619.7199999999999" type="curve" smooth="yes"/>
      <point x="248.84" y="619.7199999999999"/>
      <point x="270.98" y="593.34"/>
      <point x="270.98" y="534.3399999999999" type="curve" smooth="yes"/>
      <point x="270.98" y="477.48"/>
      <point x="257.48" y="442.44"/>
    </contour>
  </outline>
</glyph>
<glyph name="nine" format="2">
  <advance width="431.96"/>
  <unicode hex="0039"/>
  <outline>
    <contour>
      <point x="78.82" y="-2.0" type="line"/>
      <point x="289.09999999999997" y="1.4000000000000004"/>
      <point x="387.72" y="164.36"/>
      <point x="387.72" y="407.26" type="curve" smooth="yes"/>
      <point x="387.72" y="618.76"/>
      <point x="329.78" y="707.34"/>
      <point x="209.62" y="707.34" type="curve" smooth="yes"/>
      <point x="102.38" y="707.34"/>
      <point x="38.54" y="616.06"/>
      <point x="38.54" y="472.76" type="curve" smooth="yes"/>
      <point x="38.54" y="342.76"/>
      <point x="97.48" y="262.76"/>
      <point x="195.10000000000002" y="262.76" type="curve" smooth="yes"/>
      <point x="217.84" y="262.76"/>
      <point x="239.92000000000002" y="267.8"/>
      <point x="263.64" y="277.84" type="curve"/>
      <point x="242.62" y="143.04000000000002"/>
      <point x="177.82" y="92.66000000000001"/>
      <point x="67.2" y="88.60000000000001" type="curve"/>
    </contour>
    <contour>
      <point x="222.96" y="352.7" type="curve" smooth="yes"/>
      <point x="171.78754716981132" y="352.7"/>
      <point x="151.68" y="388.9"/>
      <point x="151.68" y="476.76" type="curve" smooth="yes"/>
      <point x="151.68" y="566.88"/>
      <point x="168.51428571428573" y="611.12"/>
      <point x="211.28" y="611.12" type="curve" smooth="yes"/>
      <point x="261.92" y="611.12"/>
      <point x="274.26" y="545.28"/>
      <point x="274.26" y="424.14000000000004" type="curve" smooth="yes"/>
      <point x="274.26" y="411.44"/>
      <point x="273.26" y="389.78000000000003"/>
      <point x="270.94" y="365.15999999999997" type="curve"/>
      <point x="256.5" y="356.74"/>
      <point x="240.04" y="352.7"/>
    </contour>
  </outline>
</glyph>
<glyph name="less" format="2">
  <advance width="432.64"/>
  <unicode hex="003C"/>
  <outline>
    <contour>
      <point x="344.72" y="73.46" type="line"/>
      <point x="389.24" y="157.4" type="line"/>
      <point x="150.28" y="297.28" type="line"/>
      <point x="389.24" y="437.16" type="line"/>
      <point x="344.72" y="521.0999999999999" type="line"/>
      <point x="43.06" y="338.08000000000004" type="line"/>
      <point x="43.06" y="256.48" type="line"/>
    </contour>
  </outline>
</glyph>
<glyph name="equal" format="2">
  <advance width="431.96"/>
  <unicode hex="003D"/>
  <outline>
    <contour>
      <point x="41.36" y="352.15999999999997" type="line"/>
      <point x="390.26" y="352.15999999999997" type="line"/>
      <point x="390.26" y="444.76" type="line"/>
      <point x="41.36" y="444.76" type="line"/>
    </contour>
    <contour>
      <point x="41.36" y="153.23999999999998" type="line"/>
      <point x="390.26" y="153.23999999999998" type="line"/>
      <point x="390.26" y="245.84" type="line"/>
      <point x="41.36" y="245.84" type="line"/>
    </contour>
  </outline>
</glyph>
<glyph name="greater" format="2">
  <advance width="429.91999999999996"/>
  <unicode hex="003E"/>
  <outline>
    <contour>
      <point x="86.56" y="73.46" type="line"/>
      <point x="388.22" y="256.48" type="line"/>
      <point x="388.22" y="338.08000000000004" type="line"/>
      <point x="86.56" y="521.0999999999999" type="line"/>
      <point x="42.04" y="437.16" type="line"/>
      <point x="281.0" y="297.28" type="line"/>
      <point x="42.04" y="157.4" type="line"/>
    </contour>
  </outline>
</glyph>
<glyph name="question" format="2">
  <advance width="363.9"/>
  <unicode hex="003F"/>
  <outline>
    <contour>
      <point x="103.62" y="213.86" type="curve"/>
      <point x="204.82000000000002" y="213.86" type="line"/>
      <point x="203.48000000000002" y="222.56"/>
      <point x="203.48000000000002" y="235.56"/>
      <point x="203.48000000000002" y="240.64000000000001" type="curve"/>
      <point x="203.48000000000002" y="371.48"/>
      <point x="341.88" y="405.09999999999997"/>
      <point x="341.88" y="547.46" type="curve" smooth="yes"/>
      <point x="341.88" y="633.06"/>
      <point x="281.04" y="707.0"/>
      <point x="171.06" y="707.0" type="curve" smooth="yes"/>
      <point x="110.52000000000001" y="707.0"/>
      <point x="62.940000000000005" y="689.36"/>
      <point x="21.0" y="659.42" type="curve"/>
      <point x="60.2" y="575.46" type="line"/>
      <point x="93.44" y="600.0600000000001"/>
      <point x="120.8" y="609.76"/>
      <point x="152.20000000000002" y="609.76" type="curve"/>
      <point x="198.32" y="609.76"/>
      <point x="223.74" y="583.34"/>
      <point x="223.74" y="536.54" type="curve" smooth="yes"/>
      <point x="223.74" y="428.64"/>
      <point x="100.28" y="401.35999999999996"/>
      <point x="100.28" y="257.92" type="curve" smooth="yes"/>
      <point x="100.28" y="243.88"/>
      <point x="101.62" y="227.88"/>
    </contour>
    <contour>
      <point x="152.74" y="-12.3" type="curve" smooth="yes"/>
      <point x="197.54" y="-12.3"/>
      <point x="226.44" y="22.560000000000002"/>
      <point x="226.44" y="61.080000000000005" type="curve" smooth="yes"/>
      <point x="226.44" y="100.60000000000001"/>
      <point x="197.54" y="135.78"/>
      <point x="152.74" y="135.78" type="curve" smooth="yes"/>
      <point x="107.92" y="135.78"/>
      <point x="80.02" y="100.60000000000001"/>
      <point x="80.02" y="61.080000000000005" type="curve" smooth="yes"/>
      <point x="80.02" y="22.560000000000002"/>
      <point x="107.92" y="-12.3"/>
    </contour>
  </outline>
</glyph>
<glyph name="at" format="2">
  <advance width="841.0600000000001"/>
  <unicode hex="0040"/>
  <outline>
    <contour>
      <point x="422.5" y="-157.60000000000002" type="curve" smooth="yes"/>
      <point x="484.41999999999996" y="-157.60000000000002"/>
      <point x="547.32" y="-147.26"/>
      <point x="572.66" y="-133.64000000000001" type="curve"/>
      <point x="559.38" y="-56.580000000000005" type="line"/>
      <point x="531.0799999999999" y="-66.55999999999999"/>
      <point x="479.14" y="-77.56"/>
      <point x="423.5" y="-77.56" type="curve" smooth="yes"/>
      <point x="242.76000000000002" y="-77.56"/>
      <point x="148.76000000000002" y="52.96"/>
      <point x="148.76000000000002" y="275.04" type="curve" smooth="yes"/>
      <point x="148.76000000000002" y="496.14"/>
      <point x="262.09999999999997" y="631.9"/>
      <point x="427.2" y="631.9" type="curve" smooth="yes"/>
      <point x="618.66" y="631.9"/>
      <point x="693.62" y="506.35999999999996"/>
      <point x="693.62" y="329.58" type="curve" smooth="yes"/>
      <point x="693.62" y="154.07999999999998"/>
      <point x="663.3000000000001" y="116.88"/>
      <point x="625.46" y="116.88" type="curve" smooth="yes"/>
      <point x="588.4" y="116.88"/>
      <point x="577.0" y="136.98"/>
      <point x="577.0" y="185.76" type="curve"/>
      <point x="577.0" y="485.96" type="line"/>
      <point x="547.7" y="498.96"/>
      <point x="499.78" y="512.9200000000001"/>
      <point x="440.58" y="512.9200000000001" type="curve" smooth="yes"/>
      <point x="321.08000000000004" y="512.9200000000001"/>
      <point x="246.44" y="422.36"/>
      <point x="246.44" y="276.36" type="curve" smooth="yes"/>
      <point x="246.44" y="127.5"/>
      <point x="303.0" y="39.49999999999999"/>
      <point x="415.62" y="39.49999999999999" type="curve" smooth="yes"/>
      <point x="451.32" y="39.49999999999999"/>
      <point x="478.67999999999995" y="47.22"/>
      <point x="506.68" y="74.22" type="curve"/>
      <point x="531.9599999999999" y="47.21999999999999"/>
      <point x="569.24" y="35.86"/>
      <point x="616.5600000000001" y="35.86" type="curve" smooth="yes"/>
      <point x="727.6800000000001" y="35.86"/>
      <point x="784.94" y="133.66"/>
      <point x="784.94" y="324.61999999999995" type="curve" smooth="yes"/>
      <point x="784.94" y="567.14"/>
      <point x="654.5200000000001" y="712.5999999999999"/>
      <point x="425.53999999999996" y="712.5999999999999" type="curve" smooth="yes"/>
      <point x="225.20000000000002" y="712.5999999999999"/>
      <point x="56.12" y="561.2199999999999"/>
      <point x="56.12" y="275.04" type="curve" smooth="yes"/>
      <point x="56.12" y="-20.76"/>
      <point x="203.85999999999999" y="-157.60000000000002"/>
    </contour>
    <contour>
      <point x="432.5" y="125.47999999999999" type="curve" smooth="yes"/>
      <point x="362.46000000000004" y="125.47999999999999"/>
      <point x="353.00000000000006" y="194.54"/>
      <point x="353.00000000000006" y="275.70000000000005" type="curve" smooth="yes"/>
      <point x="353.00000000000006" y="377.86"/>
      <point x="379.48" y="427.26"/>
      <point x="441.22" y="427.26" type="curve" smooth="yes"/>
      <point x="451.34000000000003" y="427.26"/>
      <point x="463.40000000000003" y="426.24"/>
      <point x="473.76" y="422.56" type="curve"/>
      <point x="473.76" y="198.29999999999998" type="line"/>
      <point x="473.76" y="177.64000000000001"/>
      <point x="474.44" y="158.96"/>
      <point x="477.78" y="141.62" type="curve"/>
      <point x="469.68" y="131.52"/>
      <point x="447.3" y="125.47999999999999"/>
    </contour>
  </outline>
</glyph>
<glyph name="A" format="2">
  <advance width="520.62"/>
  <unicode hex="0041"/>
  <anchor x="269.71999999999997" y="0.0" name="bottom"/>
  <anchor x="479.21999999999997" y="10.0" name="ogonek"/>
  <anchor x="269.71999999999997" y="693.0" name="top"/>
  <outline>
    <contour>
      <point x="20.7" y="0.0" type="curve"/>
      <point x="135.82" y="0.0" type="line"/>
      <point x="143.18" y="50.12"/>
      <point x="152.20000000000002" y="103.88"/>
      <point x="163.56" y="160.28" type="curve"/>
      <point x="353.4" y="160.28" type="line"/>
      <point x="363.76" y="103.22"/>
      <point x="373.12" y="48.8"/>
      <point x="380.82" y="0.0" type="curve"/>
      <point x="499.92" y="0.0" type="line"/>
      <point x="455.24" y="231.56"/>
      <point x="392.58000000000004" y="460.08"/>
      <point x="318.56" y="693.0" type="curve"/>
      <point x="201.38000000000002" y="693.0" type="line"/>
      <point x="128.04" y="460.08000000000004"/>
      <point x="65.38" y="231.56"/>
    </contour>
    <contour>
      <point x="182.5" y="254.88000000000002" type="line"/>
      <point x="204.24" y="359.1"/>
      <point x="231.0" y="466.64"/>
      <point x="259.14" y="567.9" type="curve"/>
      <point x="287.28" y="464.65999999999997"/>
      <point x="312.72" y="357.78000000000003"/>
      <point x="334.46" y="254.88000000000002" type="curve"/>
    </contour>
  </outline>
</glyph>
<glyph name="B" format="2">
  <advance width="531.76"/>
  <unicode hex="0042"/>
  <anchor x="266.56" y="0.0" name="bottom"/>
  <anchor x="266.56" y="347.0" name="center"/>
  <anchor x="266.56" y="693.0" name="top"/>
  <outline>
    <contour>
      <point x="235.94" y="-7.960000000000001" type="curve" smooth="yes"/>
      <point x="395.78" y="-7.960000000000001"/>
      <point x="489.36" y="61.58"/>
      <point x="489.36" y="193.92000000000002" type="curve" smooth="yes"/>
      <point x="489.36" y="278.98"/>
      <point x="443.64" y="340.3"/>
      <point x="368.96" y="366.29999999999995" type="curve"/>
      <point x="431.96000000000004" y="392.94"/>
      <point x="467.02" y="445.0"/>
      <point x="467.02" y="518.42" type="curve" smooth="yes"/>
      <point x="467.02" y="640.1"/>
      <point x="380.34" y="701.6400000000001"/>
      <point x="234.17999999999998" y="701.6400000000001" type="curve" smooth="yes"/>
      <point x="187.86" y="701.6400000000001"/>
      <point x="138.22" y="695.6400000000001"/>
      <point x="80.72" y="683.0" type="curve"/>
      <point x="80.72" y="8.36" type="line"/>
      <point x="133.66" y="-1.9600000000000002"/>
      <point x="188.62" y="-7.960000000000001"/>
    </contour>
    <contour>
      <point x="247.54000000000002" y="86.3" type="curve" smooth="yes"/>
      <point x="232.08" y="86.3"/>
      <point x="209.32" y="88.98"/>
      <point x="195.86" y="91.00000000000001" type="curve"/>
      <point x="195.86" y="313.88" type="line"/>
      <point x="252.48" y="313.88" type="line" smooth="yes"/>
      <point x="328.42" y="313.88"/>
      <point x="369.58" y="271.06"/>
      <point x="369.58" y="197.22" type="curve" smooth="yes"/>
      <point x="369.58" y="121.09333333333333"/>
      <point x="325.76" y="86.3"/>
    </contour>
    <contour>
      <point x="195.86" y="405.47999999999996" type="line"/>
      <point x="195.86" y="603.6800000000001" type="line"/>
      <point x="210.92" y="605.6999999999999"/>
      <point x="225.7" y="607.0400000000001"/>
      <point x="243.12" y="607.0400000000001" type="curve" smooth="yes"/>
      <point x="312.7" y="607.0400000000001"/>
      <point x="347.24" y="579.68"/>
      <point x="347.24" y="506.44" type="curve" smooth="yes"/>
      <point x="347.24" y="438.94"/>
      <point x="310.78000000000003" y="405.47999999999996"/>
      <point x="237.57999999999998" y="405.47999999999996" type="curve" smooth="yes"/>
    </contour>
  </outline>
</glyph>
<glyph name="C" format="2">
  <advance width="480.12"/>
  <unicode hex="0043"/>
  <anchor x="240.56" y="0.0" name="bottom"/>
  <anchor x="240.56" y="693.0" name="top"/>
  <outline>
    <contour>
      <point x="316.18" y="-13.32" type="curve" smooth="yes"/>
      <point x="378.12" y="-13.32"/>
      <point x="430.41999999999996" y="0.040000000000000036"/>
      <point x="467.06" y="23.04" type="curve"/>
      <point x="436.52" y="115.27999999999999" type="line"/>
      <point x="404.47999999999996" y="97.26"/>
      <point x="371.48" y="87.56"/>
      <point x="328.44" y="87.56" type="curve" smooth="yes"/>
      <point x="218.98" y="87.56"/>
      <point x="174.18" y="167.2"/>
      <point x="174.18" y="348.34" type="curve" smooth="yes"/>
      <point x="174.18" y="531.86"/>
      <point x="212.66" y="605.7800000000001"/>
      <point x="311.86" y="605.7800000000001" type="curve" smooth="yes"/>
      <point x="356.2" y="605.7800000000001"/>
      <point x="393.21999999999997" y="594.42"/>
      <point x="422.90000000000003" y="575.1" type="curve"/>
      <point x="456.42" y="671.3199999999999" type="line"/>
      <point x="420.1" y="692.98"/>
      <point x="367.48" y="706.66"/>
      <point x="311.84" y="706.66" type="curve" smooth="yes"/>
      <point x="143.07999999999998" y="706.66"/>
      <point x="52.059999999999995" y="590.72"/>
      <point x="52.059999999999995" y="348.34" type="curve" smooth="yes"/>
      <point x="52.059999999999995" y="110.67999999999999"/>
      <point x="144.02" y="-13.32"/>
    </contour>
  </outline>
</glyph>
<glyph name="D" format="2">
  <advance width="582.82"/>
  <unicode hex="0044"/>
  <anchor x="292.56" y="0.0" name="bottom"/>
  <anchor x="292.56" y="347.0" name="center"/>
  <anchor x="292.56" y="693.0" name="top"/>
  <outline>
    <contour>
      <point x="243.17999999999998" y="-8.64" type="curve" smooth="yes"/>
      <point x="425.46" y="-8.64"/>
      <point x="530.76" y="113.12033613445378"/>
      <point x="530.76" y="347.0" type="curve" smooth="yes"/>
      <point x="530.76" y="587.7199999999999"/>
      <point x="432.06" y="701.6400000000001"/>
      <point x="242.84" y="701.6400000000001" type="curve" smooth="yes"/>
      <point x="184.98" y="701.6400000000001"/>
      <point x="133.68" y="695.98"/>
      <point x="80.38000000000001" y="682.68" type="curve"/>
      <point x="80.38000000000001" y="10.32" type="line"/>
      <point x="134.02" y="-2.98"/>
      <point x="185.32" y="-8.64"/>
    </contour>
    <contour>
      <point x="251.42" y="91.26" type="curve" smooth="yes"/>
      <point x="230.68" y="91.26"/>
      <point x="212.94" y="92.26"/>
      <point x="195.86" y="95.6" type="curve"/>
      <point x="195.86" y="597.4" type="line"/>
      <point x="213.28" y="600.74"/>
      <point x="231.02" y="601.74"/>
      <point x="251.76" y="601.74" type="curve" smooth="yes"/>
      <point x="361.16" y="601.74"/>
      <point x="408.97999999999996" y="524.98"/>
      <point x="408.97999999999996" y="347.0" type="curve" smooth="yes"/>
      <point x="408.97999999999996" y="172.64"/>
      <point x="359.18" y="91.26"/>
    </contour>
  </outline>
</glyph>
<glyph name="E" format="2">
  <advance width="473.32000000000005"/>
  <unicode hex="0045"/>
  <anchor x="235.5" y="0.0" name="bottom"/>
  <anchor x="423.71999999999997" y="10.0" name="ogonek"/>
  <anchor x="235.5" y="693.0" name="top"/>
  <anchor x="20.32" y="693.0" name="topleft"/>
  <outline>
    <contour>
      <point x="80.72" y="0.0" type="line"/>
      <point x="429.28000000000003" y="0.0" type="line"/>
      <point x="429.28000000000003" y="97.24000000000001" type="line"/>
      <point x="195.86" y="97.24000000000001" type="line"/>
      <point x="195.86" y="316.53999999999996" type="line"/>
      <point x="392.28" y="316.53999999999996" type="line"/>
      <point x="392.28" y="410.46" type="line"/>
      <point x="195.86" y="410.46" type="line"/>
      <point x="195.86" y="595.76" type="line"/>
      <point x="410.65999999999997" y="595.76" type="line"/>
      <point x="410.65999999999997" y="693.0" type="line"/>
      <point x="80.72" y="693.0" type="line"/>
    </contour>
  </outline>
</glyph>
<glyph name="F" format="2">
  <advance width="436.71999999999997"/>
  <unicode hex="0046"/>
  <anchor x="221.18" y="0.0" name="bottom"/>
  <anchor x="221.18" y="693.0" name="top"/>
  <outline>
    <contour>
      <point x="80.72" y="0.0" type="line"/>
      <point x="195.86" y="0.0" type="line"/>
      <point x="195.86" y="311.56" type="line"/>
      <point x="387.28000000000003" y="311.56" type="line"/>
      <point x="387.28000000000003" y="405.82" type="line"/>
      <point x="195.86" y="405.82" type="line"/>
      <point x="195.86" y="595.76" type="line"/>
      <point x="406.34" y="595.76" type="line"/>
      <point x="406.34" y="693.0" type="line"/>
      <point x="80.72" y="693.0" type="line"/>
    </contour>
  </outline>
</glyph>
<glyph name="G" format="2">
  <advance width="541.06"/>
  <unicode hex="0047"/>
  <anchor x="270.53999999999996" y="0.0" name="bottom"/>
  <anchor x="270.53999999999996" y="693.0" name="top"/>
  <outline>
    <contour>
      <point x="316.53999999999996" y="-13.66" type="curve" smooth="yes"/>
      <point x="397.56" y="-13.66"/>
      <point x="456.82000000000005" y="6.94"/>
      <point x="471.7" y="16.04" type="curve"/>
      <point x="471.7" y="354.09999999999997" type="line"/>
      <point x="356.21999999999997" y="354.09999999999997" type="line"/>
      <point x="356.21999999999997" y="92.64000000000001" type="line"/>
      <point x="345.46" y="89.60000000000001"/>
      <point x="333.32" y="87.22"/>
      <point x="321.86" y="87.22" type="curve" smooth="yes"/>
      <point x="219.04000000000002" y="87.22"/>
      <point x="174.18" y="162.78"/>
      <point x="174.18" y="347.66" type="curve" smooth="yes"/>
      <point x="174.18" y="530.84"/>
      <point x="215.32" y="605.78"/>
      <point x="320.47999999999996" y="605.78" type="curve" smooth="yes"/>
      <point x="366.17999999999995" y="605.78"/>
      <point x="402.84" y="594.0799999999999"/>
      <point x="432.86" y="574.76" type="curve"/>
      <point x="466.72" y="670.98" type="line"/>
      <point x="431.42" y="692.3"/>
      <point x="377.46000000000004" y="706.66"/>
      <point x="320.46" y="706.66" type="curve" smooth="yes"/>
      <point x="145.38" y="706.66"/>
      <point x="52.059999999999995" y="589.7"/>
      <point x="52.059999999999995" y="347.66" type="curve" smooth="yes"/>
      <point x="52.059999999999995" y="109.32000000000001"/>
      <point x="145.06" y="-13.66"/>
    </contour>
  </outline>
</glyph>
<glyph name="H" format="2">
  <advance width="586.1"/>
  <unicode hex="0048"/>
  <anchor x="293.22" y="0.0" name="bottom"/>
  <anchor x="293.22" y="347.0" name="center"/>
  <anchor x="293.22" y="693.0" name="top"/>
  <anchor x="20.32" y="693.0" name="topleft"/>
  <outline>
    <contour>
      <point x="80.72" y="0.0" type="line"/>
      <point x="195.86" y="0.0" type="line"/>
      <point x="195.86" y="311.56" type="line"/>
      <point x="390.24" y="311.56" type="line"/>
      <point x="390.24" y="0.0" type="line"/>
      <point x="505.38" y="0.0" type="line"/>
      <point x="505.38" y="693.0" type="line"/>
      <point x="390.24" y="693.0" type="line"/>
      <point x="390.24" y="409.46" type="line"/>
      <point x="195.86" y="409.46" type="line"/>
      <point x="195.86" y="693.0" type="line"/>
      <point x="80.72" y="693.0" type="line"/>
    </contour>
  </outline>
</glyph>
<glyph name="I" format="2">
  <advance width="276.58"/>
  <unicode hex="0049"/>
  <anchor x="138.14" y="0.0" name="bottom"/>
  <anchor x="248.66" y="10.0" name="ogonek"/>
  <anchor x="138.14" y="693.0" name="top"/>
  <anchor x="20.32" y="693.0" name="topleft"/>
  <outline>
    <contour>
      <point x="80.72" y="0.0" type="line"/>
      <point x="195.86" y="0.0" type="line"/>
      <point x="195.86" y="693.0" type="line"/>
      <point x="80.72" y="693.0" type="line"/>
    </contour>
  </outline>
</glyph>
<glyph name="J" format="2">
  <advance width="404.70000000000005"/>
  <unicode hex="004A"/>
  <anchor x="203.18" y="0.0" name="bottom"/>
  <anchor x="203.18" y="693.0" name="top"/>
  <outline>
    <contour>
      <point x="145.5" y="-12.98" type="curve" smooth="yes"/>
      <point x="269.32" y="-12.98"/>
      <point x="331.28" y="52.491"/>
      <point x="331.28" y="191.24" type="curve" smooth="yes"/>
      <point x="331.28" y="693.0" type="line"/>
      <point x="216.14000000000001" y="693.0" type="line"/>
      <point x="216.14000000000001" y="194.2" type="line" smooth="yes"/>
      <point x="216.14000000000001" y="116.28"/>
      <point x="187.72" y="87.9"/>
      <point x="140.20000000000002" y="87.9" type="curve" smooth="yes"/>
      <point x="105.84" y="87.9"/>
      <point x="70.14" y="100.24"/>
      <point x="43.14" y="119.22000000000001" type="curve"/>
      <point x="6.32" y="28.62" type="line"/>
      <point x="38.040000000000006" y="2.9799999999999995"/>
      <point x="91.94" y="-12.98"/>
    </contour>
  </outline>
</glyph>
<glyph name="K" format="2">
  <advance width="524.94"/>
  <unicode hex="004B"/>
  <anchor x="272.06" y="0.0" name="bottom"/>
  <anchor x="272.06" y="693.0" name="top"/>
  <outline>
    <contour>
      <point x="80.72" y="0.0" type="line"/>
      <point x="195.86" y="0.0" type="line"/>
      <point x="195.86" y="310.62" type="line"/>
      <point x="269.4" y="242.52"/>
      <point x="346.58000000000004" y="115.1"/>
      <point x="389.1" y="0.0" type="curve"/>
      <point x="513.24" y="0.0" type="line"/>
      <point x="462.86" y="129.24"/>
      <point x="375.6" y="273.71999999999997"/>
      <point x="297.12" y="361.38" type="curve"/>
      <point x="366.22" y="466.61999999999995"/>
      <point x="438.68" y="592.5600000000001"/>
      <point x="490.56" y="693.0" type="curve"/>
      <point x="373.38" y="693.0" type="line"/>
      <point x="330.53999999999996" y="607.26"/>
      <point x="260.7" y="484.58"/>
      <point x="195.86" y="389.21999999999997" type="curve"/>
      <point x="195.86" y="693.0" type="line"/>
      <point x="80.72" y="693.0" type="line"/>
    </contour>
  </outline>
</glyph>
<glyph name="L" format="2">
  <advance width="436.98"/>
  <unicode hex="004C"/>
  <anchor x="217.18" y="0.0" name="bottom"/>
  <anchor x="217.18" y="347.0" name="center"/>
  <anchor x="217.18" y="693.0" name="top"/>
  <anchor x="412.7" y="693.0" name="topright"/>
  <outline>
    <contour>
      <point x="80.72" y="0.0" type="line"/>
      <point x="411.28" y="0.0" type="line"/>
      <point x="411.28" y="97.24" type="line"/>
      <point x="195.86" y="97.24" type="line"/>
      <point x="195.86" y="693.0" type="line"/>
      <point x="80.72" y="693.0" type="line"/>
    </contour>
  </outline>
</glyph>
<glyph name="M" format="2">
  <advance width="731.18"/>
  <unicode hex="004D"/>
  <anchor x="364.6" y="0.0" name="bottom"/>
  <anchor x="364.6" y="693.0" name="top"/>
  <outline>
    <contour>
      <point x="65.08" y="0.0" type="curve"/>
      <point x="174.92000000000002" y="0.0" type="line"/>
      <point x="176.94" y="145.83999999999997"/>
      <point x="180.96" y="343.44"/>
      <point x="191.29999999999998" y="510.86" type="curve"/>
      <point x="237.07999999999998" y="379.48"/>
      <point x="280.94" y="235.51999999999998"/>
      <point x="319.1" y="92.39999999999999" type="curve"/>
      <point x="412.42" y="92.39999999999999" type="line"/>
      <point x="444.8" y="217.16"/>
      <point x="493.76" y="380.16"/>
      <point x="539.54" y="512.5600000000001" type="curve"/>
      <point x="549.88" y="345.14"/>
      <point x="554.2399999999999" y="146.17999999999998"/>
      <point x="556.26" y="0.0" type="curve"/>
      <point x="666.1" y="0.0" type="line"/>
      <point x="660.42" y="229.12"/>
      <point x="644.82" y="499.54"/>
      <point x="628.8" y="693.0" type="curve"/>
      <point x="514.3" y="693.0" type="line"/>
      <point x="470.8" y="584.34"/>
      <point x="409.34000000000003" y="401.82"/>
      <point x="365.6" y="249.28" type="curve"/>
      <point x="322.2" y="401.82"/>
      <point x="260.38000000000005" y="585.0"/>
      <point x="216.88" y="693.0" type="curve"/>
      <point x="102.38" y="693.0" type="line"/>
      <point x="86.36" y="499.54"/>
      <point x="70.76" y="229.12"/>
    </contour>
  </outline>
</glyph>
<glyph name="N" format="2">
  <advance width="594.0799999999999"/>
  <unicode hex="004E"/>
  <anchor x="295.24" y="0.0" name="bottom"/>
  <anchor x="295.24" y="693.0" name="top"/>
  <outline>
    <contour>
      <point x="80.72" y="0.0" type="line"/>
      <point x="188.56" y="0.0" type="line"/>
      <point x="188.56" y="481.7" type="line"/>
      <point x="280.6" y="315.03999999999996"/>
      <point x="365.82" y="136.92"/>
      <point x="420.09999999999997" y="0.0" type="curve"/>
      <point x="513.7" y="0.0" type="line"/>
      <point x="513.7" y="693.0" type="line"/>
      <point x="405.86" y="693.0" type="line"/>
      <point x="405.86" y="251.52" type="line"/>
      <point x="342.74" y="395.18"/>
      <point x="257.56" y="556.3000000000001"/>
      <point x="175.66000000000003" y="693.0" type="curve"/>
      <point x="80.72" y="693.0" type="line"/>
    </contour>
  </outline>
</glyph>
<glyph name="O" format="2">
  <advance width="608.8199999999999"/>
  <unicode hex="004F"/>
  <anchor x="304.58" y="0.0" name="bottom"/>
  <anchor x="304.58" y="347.0" name="center"/>
  <anchor x="551.48" y="10.0" name="ogonek"/>
  <anchor x="304.58" y="693.0" name="top"/>
  <anchor x="15.7" y="693.0" name="topleft"/>
  <anchor x="592.14" y="693.0" name="topright"/>
  <outline>
    <contour>
      <point x="304.58" y="-13.32" type="curve" smooth="yes"/>
      <point x="466.86" y="-13.32"/>
      <point x="556.4200000000001" y="120.06"/>
      <point x="556.4200000000001" y="345.66" type="curve"/>
      <point x="556.4200000000001" y="572.94"/>
      <point x="467.52" y="706.66"/>
      <point x="304.58" y="706.66" type="curve"/>
      <point x="142.3" y="706.66"/>
      <point x="52.4" y="572.94"/>
      <point x="52.4" y="346.98" type="curve" smooth="yes"/>
      <point x="52.4" y="120.72"/>
      <point x="142.29999999999998" y="-13.32"/>
    </contour>
    <contour>
      <point x="304.58" y="87.55999999999999" type="curve" smooth="yes"/>
      <point x="215.22750000000002" y="87.55999999999999"/>
      <point x="174.18" y="175.5"/>
      <point x="174.18" y="346.98" type="curve"/>
      <point x="174.18" y="518.14"/>
      <point x="214.57928571428573" y="605.78"/>
      <point x="304.58" y="605.78" type="curve" smooth="yes"/>
      <point x="394.58071428571424" y="605.78"/>
      <point x="434.64" y="518.14"/>
      <point x="434.64" y="345.66" type="curve"/>
      <point x="434.64" y="174.18"/>
      <point x="394.58071428571424" y="87.55999999999999"/>
    </contour>
  </outline>
</glyph>
<glyph name="P" format="2">
  <advance width="505.96"/>
  <unicode hex="0050"/>
  <anchor x="249.52" y="0.0" name="bottom"/>
  <anchor x="249.52" y="693.0" name="top"/>
  <outline>
    <contour>
      <point x="80.72" y="0.0" type="line"/>
      <point x="195.86" y="0.0" type="line"/>
      <point x="195.86" y="248.52" type="line"/>
      <point x="232.04" y="248.52" type="line" smooth="yes"/>
      <point x="378.32" y="248.52"/>
      <point x="471.26" y="332.36"/>
      <point x="471.26" y="475.4" type="curve" smooth="yes"/>
      <point x="471.26" y="622.4000000000001"/>
      <point x="382.3" y="701.98"/>
      <point x="230.44" y="701.98" type="curve" smooth="yes"/>
      <point x="180.22" y="701.98"/>
      <point x="132.94" y="695.98"/>
      <point x="80.72" y="683.6800000000001" type="curve"/>
    </contour>
    <contour>
      <point x="195.86" y="347.09999999999997" type="line"/>
      <point x="195.86" y="597.74" type="line"/>
      <point x="206.6" y="601.0799999999999"/>
      <point x="221.66" y="602.08"/>
      <point x="234.06" y="602.08" type="curve" smooth="yes"/>
      <point x="310.96000000000004" y="602.08"/>
      <point x="351.14" y="563.0"/>
      <point x="351.14" y="475.4" type="curve" smooth="yes"/>
      <point x="351.14" y="385.52"/>
      <point x="311.62" y="347.09999999999997"/>
      <point x="230.04" y="347.09999999999997" type="curve" smooth="yes"/>
    </contour>
  </outline>
</glyph>
<glyph name="Q" format="2">
  <advance width="608.8199999999999"/>
  <unicode hex="0051"/>
  <anchor x="311.52" y="0.0" name="bottom"/>
  <anchor x="311.52" y="693.0" name="top"/>
  <outline>
    <contour>
      <point x="508.76" y="-182.22" type="curve"/>
      <point x="534.6600000000001" y="-94.58" type="line"/>
      <point x="434.06" y="-77.89999999999999"/>
      <point x="388.58" y="-53.18"/>
      <point x="377.3" y="-2.7199999999999998" type="curve"/>
      <point x="493.74" y="32.18"/>
      <point x="556.4200000000001" y="156.57999999999998"/>
      <point x="556.4200000000001" y="345.66" type="curve" smooth="yes"/>
      <point x="556.4200000000001" y="572.94"/>
      <point x="467.52" y="706.66"/>
      <point x="304.58" y="706.66" type="curve" smooth="yes"/>
      <point x="142.3" y="706.66"/>
      <point x="52.4" y="572.94"/>
      <point x="52.4" y="346.98" type="curve" smooth="yes"/>
      <point x="52.4" y="137.94"/>
      <point x="128.72" y="7.5600000000000005"/>
      <point x="268.12" y="-10.34" type="curve"/>
      <point x="294.03999999999996" y="-118.98"/>
      <point x="358.86" y="-161.5"/>
    </contour>
    <contour>
      <point x="304.58" y="87.55999999999999" type="curve" smooth="yes"/>
      <point x="214.98000000000002" y="87.55999999999999"/>
      <point x="174.18" y="175.5"/>
      <point x="174.18" y="346.98" type="curve" smooth="yes"/>
      <point x="174.18" y="518.14"/>
      <point x="214.32000000000002" y="605.78"/>
      <point x="304.58" y="605.78" type="curve" smooth="yes"/>
      <point x="394.84" y="605.78"/>
      <point x="434.64" y="518.14"/>
      <point x="434.64" y="345.66" type="curve" smooth="yes"/>
      <point x="434.64" y="174.18"/>
      <point x="394.84" y="87.55999999999999"/>
    </contour>
  </outline>
</glyph>
<glyph name="R" format="2">
  <advance width="533.62"/>
  <unicode hex="0052"/>
  <anchor x="265.48" y="0.0" name="bottom"/>
  <anchor x="265.48" y="693.0" name="top"/>
  <outline>
    <contour>
      <point x="80.72" y="0.0" type="line"/>
      <point x="195.52" y="0.0" type="line"/>
      <point x="195.52" y="262.48" type="line"/>
      <point x="223.72" y="262.48" type="line" smooth="yes"/>
      <point x="239.44000000000003" y="262.48"/>
      <point x="258.8" y="263.15999999999997"/>
      <point x="269.9" y="264.18" type="curve"/>
      <point x="311.61999999999995" y="195.73999999999998"/>
      <point x="356.72" y="94.61999999999999"/>
      <point x="388.41999999999996" y="0.0" type="curve"/>
      <point x="504.92" y="0.0" type="line"/>
      <point x="472.44" y="104.14"/>
      <point x="421.68" y="214.2"/>
      <point x="373.78" y="294.71999999999997" type="curve"/>
      <point x="435.5" y="337.9"/>
      <point x="468.58000000000004" y="400.24"/>
      <point x="468.58000000000004" y="481.38" type="curve" smooth="yes"/>
      <point x="468.58000000000004" y="628.02"/>
      <point x="383.59999999999997" y="701.98"/>
      <point x="230.78" y="701.98" type="curve" smooth="yes"/>
      <point x="174.92" y="701.98"/>
      <point x="127.42691606798205" y="694.6877981776754"/>
      <point x="80.72" y="683.02" type="curve"/>
    </contour>
    <contour>
      <point x="195.52" y="356.08" type="line"/>
      <point x="195.52" y="598.08" type="line"/>
      <point x="206.26" y="601.0799999999999"/>
      <point x="221.34" y="602.08"/>
      <point x="234.73999999999998" y="602.08" type="curve" smooth="yes"/>
      <point x="308.96000000000004" y="602.08"/>
      <point x="348.46" y="564.34"/>
      <point x="348.46" y="481.38" type="curve" smooth="yes"/>
      <point x="348.46" y="396.82000000000005"/>
      <point x="307.98" y="356.08"/>
      <point x="230.06" y="356.08" type="curve" smooth="yes"/>
    </contour>
  </outline>
</glyph>
<glyph name="S" format="2">
  <advance width="415.35999999999996"/>
  <unicode hex="0053"/>
  <anchor x="207.18" y="0.0" name="bottom"/>
  <anchor x="207.18" y="693.0" name="top"/>
  <outline>
    <contour>
      <point x="176.86" y="-13.66" type="curve" smooth="yes"/>
      <point x="310.46" y="-13.66"/>
      <point x="387.34" y="78.24"/>
      <point x="387.34" y="193.18" type="curve" smooth="yes"/>
      <point x="387.34" y="275.82"/>
      <point x="343.4" y="338.0"/>
      <point x="261.58" y="392.54" type="curve"/>
      <point x="181.12" y="446.06"/>
      <point x="149.22000000000003" y="470.5"/>
      <point x="149.22000000000003" y="525.08" type="curve" smooth="yes"/>
      <point x="149.22000000000003" y="579.3199999999999"/>
      <point x="183.38000000000002" y="608.7600000000001"/>
      <point x="238.54" y="608.7600000000001" type="curve" smooth="yes"/>
      <point x="273.86" y="608.7600000000001"/>
      <point x="310.84000000000003" y="597.78"/>
      <point x="339.2" y="579.4599999999999" type="curve"/>
      <point x="374.04" y="669.74" type="line"/>
      <point x="333.48" y="693.34"/>
      <point x="284.52000000000004" y="706.66"/>
      <point x="230.92" y="706.66" type="curve" smooth="yes"/>
      <point x="111.36" y="706.66"/>
      <point x="32.1" y="624.46"/>
      <point x="32.1" y="514.48" type="curve" smooth="yes"/>
      <point x="32.1" y="427.59999999999997"/>
      <point x="81.66" y="372.68"/>
      <point x="157.85999999999999" y="322.1" type="curve" smooth="yes"/>
      <point x="232.36" y="272.88"/>
      <point x="269.54" y="238.18"/>
      <point x="269.54" y="175.64000000000001" type="curve" smooth="yes"/>
      <point x="269.54" y="119.06"/>
      <point x="232.44" y="84.58"/>
      <point x="172.56" y="84.58" type="curve" smooth="yes"/>
      <point x="132.82" y="84.58"/>
      <point x="89.88000000000001" y="100.22000000000001"/>
      <point x="55.22" y="125.50000000000001" type="curve"/>
      <point x="20.38" y="30.26" type="line"/>
      <point x="58.379999999999995" y="4.300000000000001"/>
      <point x="119.24" y="-13.66"/>
    </contour>
  </outline>
</glyph>
<glyph name="T" format="2">
  <advance width="446.66"/>
  <unicode hex="0054"/>
  <anchor x="222.84" y="0.0" name="bottom"/>
  <anchor x="222.84" y="347.0" name="center"/>
  <anchor x="222.84" y="693.0" name="top"/>
  <outline>
    <contour>
      <point x="165.76000000000002" y="0.0" type="line"/>
      <point x="280.9" y="0.0" type="line"/>
      <point x="280.9" y="595.76" type="line"/>
      <point x="430.32" y="595.76" type="line"/>
      <point x="430.32" y="693.0" type="line"/>
      <point x="16.34" y="693.0" type="line"/>
      <point x="16.34" y="595.76" type="line"/>
      <point x="165.76000000000002" y="595.76" type="line"/>
    </contour>
  </outline>
</glyph>
<glyph name="U" format="2">
  <advance width="558.1"/>
  <unicode hex="0055"/>
  <anchor x="279.2" y="0.0" name="bottom"/>
  <anchor x="503.44" y="10.0" name="ogonek"/>
  <anchor x="279.2" y="693.0" name="top"/>
  <anchor x="540.4000000000001" y="693.0" name="topright"/>
  <outline>
    <contour>
      <point x="278.53999999999996" y="-13.32" type="curve" smooth="yes"/>
      <point x="416.42" y="-13.32"/>
      <point x="486.02000000000004" y="64.62"/>
      <point x="486.02000000000004" y="211.68" type="curve" smooth="yes"/>
      <point x="486.02000000000004" y="693.0" type="line"/>
      <point x="370.88" y="693.0" type="line"/>
      <point x="370.88" y="219.96" type="line" smooth="yes"/>
      <point x="370.88" y="129.06"/>
      <point x="344.46000000000004" y="87.9"/>
      <point x="278.88" y="87.9" type="curve" smooth="yes"/>
      <point x="213.98" y="87.9"/>
      <point x="187.22000000000003" y="128.72"/>
      <point x="187.22000000000003" y="219.96" type="curve" smooth="yes"/>
      <point x="187.22000000000003" y="693.0" type="line"/>
      <point x="72.08" y="693.0" type="line"/>
      <point x="72.08" y="211.68" type="line" smooth="yes"/>
      <point x="72.08" y="64.28"/>
      <point x="141.34" y="-13.32"/>
    </contour>
  </outline>
</glyph>
<glyph name="V" format="2">
  <advance width="514.96"/>
  <unicode hex="0056"/>
  <anchor x="258.46000000000004" y="0.0" name="bottom"/>
  <anchor x="258.46000000000004" y="693.0" name="top"/>
  <outline>
    <contour>
      <point x="198.72" y="0.0" type="curve"/>
      <point x="316.58000000000004" y="0.0" type="line"/>
      <point x="389.58000000000004" y="232.58"/>
      <point x="449.9200000000001" y="461.1"/>
      <point x="494.26000000000005" y="693.0" type="curve"/>
      <point x="378.12" y="693.0" type="line"/>
      <point x="354.38" y="527.3000000000001"/>
      <point x="307.96" y="312.58000000000004"/>
      <point x="258.82" y="129.42" type="curve"/>
      <point x="208.68" y="321.15999999999997"/>
      <point x="163.57999999999998" y="534.5600000000001"/>
      <point x="140.82000000000002" y="693.0" type="curve"/>
      <point x="20.7" y="693.0" type="line"/>
      <point x="65.03999999999999" y="461.44000000000005"/>
      <point x="125.04" y="232.92"/>
    </contour>
  </outline>
</glyph>
<glyph name="W" format="2">
  <advance width="748.62"/>
  <unicode hex="0057"/>
  <anchor x="389.8" y="0.0" name="bottom"/>
  <anchor x="389.8" y="693.0" name="top"/>
  <outline>
    <contour>
      <point x="151.78" y="0.0" type="curve"/>
      <point x="264.34" y="0.0" type="line"/>
      <point x="300.15999999999997" y="120.03999999999999"/>
      <point x="342.23999999999995" y="295.46"/>
      <point x="373.32" y="450.09999999999997" type="curve"/>
      <point x="404.4" y="295.46"/>
      <point x="446.48" y="120.03999999999999"/>
      <point x="482.3" y="0.0" type="curve"/>
      <point x="596.84" y="0.0" type="line"/>
      <point x="646.58" y="200.44"/>
      <point x="694.48" y="508.24"/>
      <point x="713.86" y="693.0" type="curve"/>
      <point x="601.3599999999999" y="693.0" type="line"/>
      <point x="591.3190240316166" y="544.6460924505355"/>
      <point x="566.593722376322" y="348.2350401619344"/>
      <point x="532.78" y="159.1" type="curve"/>
      <point x="495.6" y="302.1"/>
      <point x="458.82" y="469.7199999999999"/>
      <point x="431.08" y="614.6" type="curve"/>
      <point x="319.86" y="614.6" type="line"/>
      <point x="292.12" y="470.06"/>
      <point x="254.99999999999997" y="302.44"/>
      <point x="218.16" y="159.78" type="curve"/>
      <point x="184.6862776236779" y="348.57504016193445"/>
      <point x="159.96097596838345" y="544.9860924505356"/>
      <point x="149.58" y="693.0" type="curve"/>
      <point x="34.76" y="693.0" type="line"/>
      <point x="54.14" y="508.24"/>
      <point x="101.7" y="200.44"/>
    </contour>
  </outline>
</glyph>
<glyph name="X" format="2">
  <advance width="475.98"/>
  <unicode hex="0058"/>
  <anchor x="238.5" y="0.0" name="bottom"/>
  <anchor x="238.5" y="693.0" name="top"/>
  <outline>
    <contour>
      <point x="11.739999999999998" y="0.0" type="curve"/>
      <point x="126.54" y="0.0" type="line"/>
      <point x="153.6" y="85.08"/>
      <point x="187.1" y="165.02"/>
      <point x="236.5" y="272.7" type="curve"/>
      <point x="284.88" y="167.39999999999998"/>
      <point x="317.35999999999996" y="89.16000000000001"/>
      <point x="346.11999999999995" y="0.0" type="curve"/>
      <point x="463.90000000000003" y="0.0" type="line"/>
      <point x="428.82" y="103.48"/>
      <point x="381.06" y="216.22"/>
      <point x="311.44" y="365.36" type="curve"/>
      <point x="453.91999999999996" y="693.0" type="line"/>
      <point x="335.48" y="693.0" type="line"/>
      <point x="239.8" y="440.12" type="line"/>
      <point x="143.14" y="693.0" type="line"/>
      <point x="21.04" y="693.0" type="line"/>
      <point x="164.20000000000002" y="360.04" type="line"/>
      <point x="93.56" y="209.16000000000003"/>
      <point x="45.480000000000004" y="98.76"/>
    </contour>
  </outline>
</glyph>
<glyph name="Y" format="2">
  <advance width="472.5"/>
  <unicode hex="0059"/>
  <anchor x="235.76000000000002" y="0.0" name="bottom"/>
  <anchor x="235.76000000000002" y="693.0" name="top"/>
  <anchor x="15.7" y="693.0" name="topleft"/>
  <outline>
    <contour>
      <point x="179.01999999999998" y="0.0" type="line"/>
      <point x="294.15999999999997" y="0.0" type="line"/>
      <point x="294.15999999999997" y="265.42" type="line"/>
      <point x="358.14" y="400.64000000000004"/>
      <point x="430.04" y="576.74"/>
      <point x="470.14" y="693.0" type="curve"/>
      <point x="349.7" y="693.0" type="line"/>
      <point x="320.62" y="595.5200000000001"/>
      <point x="282.2" y="483.36"/>
      <point x="237.42000000000002" y="375.92" type="curve"/>
      <point x="192.3" y="483.36"/>
      <point x="154.22" y="595.5200000000001"/>
      <point x="125.79999999999998" y="693.0" type="curve"/>
      <point x="2.36" y="693.0" type="line"/>
      <point x="42.459999999999994" y="576.0600000000001"/>
      <point x="114.7" y="399.28"/>
      <point x="179.01999999999998" y="264.06" type="curve"/>
    </contour>
  </outline>
</glyph>
<glyph name="Z" format="2">
  <advance width="444.06"/>
  <unicode hex="005A"/>
  <anchor x="226.5" y="0.0" name="bottom"/>
  <anchor x="226.5" y="347.0" name="center"/>
  <anchor x="226.5" y="693.0" name="top"/>
  <outline>
    <contour>
      <point x="31.700000000000003" y="0.0" type="line"/>
      <point x="411.68" y="0.0" type="line"/>
      <point x="411.68" y="97.24000000000001" type="line"/>
      <point x="158.44" y="97.24000000000001" type="line"/>
      <point x="218.52" y="248.26"/>
      <point x="313.65999999999997" y="440.65999999999997"/>
      <point x="404.68" y="595.8" type="curve"/>
      <point x="404.68" y="693.0" type="line"/>
      <point x="45.68" y="693.0" type="line"/>
      <point x="45.68" y="595.76" type="line"/>
      <point x="286.84" y="595.76" type="line"/>
      <point x="197.46" y="438.92"/>
      <point x="103.32" y="244.82000000000002"/>
      <point x="31.700000000000003" y="72.03999999999999" type="curve"/>
    </contour>
  </outline>
</glyph>
<glyph name="bracketleft" format="2">
  <advance width="300.62"/>
  <unicode hex="005B"/>
  <outline>
    <contour>
      <point x="91.06" y="-185.0" type="line"/>
      <point x="293.96" y="-185.0" type="line"/>
      <point x="293.96" y="-101.00000000000001" type="line"/>
      <point x="193.94" y="-101.00000000000001" type="line"/>
      <point x="193.94" y="698.6800000000001" type="line"/>
      <point x="293.96" y="698.6800000000001" type="line"/>
      <point x="293.96" y="783.0" type="line"/>
      <point x="91.06" y="783.0" type="line"/>
    </contour>
  </outline>
</glyph>
<glyph name="backslash" format="2">
  <advance width="299.82"/>
  <unicode hex="005C"/>
  <outline>
    <contour>
      <point x="220.64" y="-185.0" type="line"/>
      <point x="322.52000000000004" y="-185.0" type="line"/>
      <point x="79.52" y="783.0" type="line"/>
      <point x="-22.36" y="783.0" type="line"/>
    </contour>
  </outline>
</glyph>
<glyph name="bracketright" format="2">
  <advance width="300.62"/>
  <unicode hex="005D"/>
  <outline>
    <contour>
      <point x="6.66" y="-185.0" type="line"/>
      <point x="209.56" y="-185.0" type="line"/>
      <point x="209.56" y="783.0" type="line"/>
      <point x="6.66" y="783.0" type="line"/>
      <point x="6.66" y="698.34" type="line"/>
      <point x="106.68" y="698.34" type="line"/>
      <point x="106.68" y="-101.34" type="line"/>
      <point x="6.66" y="-101.34" type="line"/>
    </contour>
  </outline>
</glyph>
<glyph name="asciicircum" format="2">
  <advance width="431.96"/>
  <unicode hex="005E"/>
  <outline>
    <contour>
      <point x="114.52000000000001" y="303.84" type="line"/>
      <point x="216.32" y="568.46" type="line"/>
      <point x="318.44" y="303.84" type="line"/>
      <point x="410.06" y="338.02000000000004" type="line"/>
      <point x="264.46" y="691.3" type="line"/>
      <point x="167.84" y="691.3" type="line"/>
      <point x="21.9" y="338.02000000000004" type="line"/>
    </contour>
  </outline>
</glyph>
<glyph name="underscore" format="2">
  <advance width="360.14000000000004"/>
  <unicode hex="005F"/>
  <outline>
    <contour>
      <point x="-4.0" y="-183.98" type="line"/>
      <point x="364.14" y="-183.98" type="line"/>
      <point x="364.14" y="-89.42" type="line"/>
      <point x="-4.0" y="-89.42" type="line"/>
    </contour>
  </outline>
</glyph>
<glyph name="grave" format="2">
  <advance width="314.0"/>
  <unicode hex="0060"/>
  <outline>
    <contour>
      <point x="177.77999999999997" y="581.4" type="line"/>
      <point x="233.54000000000002" y="631.18" type="line"/>
      <point x="117.12" y="787.24" type="line"/>
      <point x="41.76" y="718.54" type="line"/>
    </contour>
  </outline>
</glyph>
<glyph name="a" format="2">
  <advance width="441.8"/>
  <unicode hex="0061"/>
  <anchor x="212.62" y="0.0" name="bottom"/>
  <anchor x="389.23999999999995" y="10.0" name="ogonek"/>
  <anchor x="212.62" y="523.6" name="top"/>
  <outline>
    <contour>
      <point x="216.58" y="-9.66" type="curve" smooth="yes"/>
      <point x="264.86" y="-9.66"/>
      <point x="322.12" y="-1.98"/>
      <point x="374.71999999999997" y="12.66" type="curve"/>
      <point x="374.71999999999997" y="349.54" type="line" smooth="yes"/>
      <point x="374.71999999999997" y="483.12135922330094"/>
      <point x="300.86" y="541.92"/>
      <point x="193.72" y="541.92" type="curve" smooth="yes"/>
      <point x="153.06" y="541.92"/>
      <point x="107.48" y="532.6"/>
      <point x="74.78" y="520.5799999999999" type="curve"/>
      <point x="91.74" y="430.3" type="line"/>
      <point x="122.42" y="441.32"/>
      <point x="149.12" y="446.0"/>
      <point x="174.84" y="446.0" type="curve" smooth="yes"/>
      <point x="235.83999999999997" y="446.0"/>
      <point x="266.21999999999997" y="420.2355555555556"/>
      <point x="266.21999999999997" y="351.14" type="curve" smooth="yes"/>
      <point x="266.21999999999997" y="312.86" type="line"/>
      <point x="246.37737988935248" y="316.48782751383095"/>
      <point x="223.53692307692307" y="318.58000000000004"/>
      <point x="204.0" y="318.58000000000004" type="curve" smooth="yes"/>
      <point x="103.7" y="318.58000000000004"/>
      <point x="37.06" y="261.6"/>
      <point x="37.06" y="156.28" type="curve" smooth="yes"/>
      <point x="37.06" y="47.96"/>
      <point x="104.37482233502539" y="-9.66"/>
    </contour>
    <contour>
      <point x="221.9" y="78.98" type="curve" smooth="yes"/>
      <point x="174.24000000000004" y="78.98"/>
      <point x="148.54" y="104.44"/>
      <point x="148.54" y="156.3" type="curve" smooth="yes"/>
      <point x="148.54" y="210.18"/>
      <point x="174.2206896551724" y="235.58"/>
      <point x="221.24" y="235.58" type="curve" smooth="yes"/>
      <point x="236.84914285714285" y="235.58"/>
      <point x="252.15679036372555" y="232.90896289088232"/>
      <point x="266.21999999999997" y="229.2" type="curve"/>
      <point x="266.21999999999997" y="84.36" type="line"/>
      <point x="253.02804622997502" y="80.93087035142145"/>
      <point x="237.29999999999998" y="78.98"/>
    </contour>
  </outline>
</glyph>
<glyph name="b" format="2">
  <advance width="481.36"/>
  <unicode hex="0062"/>
  <anchor x="239.2" y="0.0" name="bottom"/>
  <anchor x="239.2" y="261.64" name="center"/>
  <anchor x="239.2" y="523.6" name="top"/>
  <outline>
    <contour>
      <point x="228.12" y="-10.68" type="curve" smooth="yes"/>
      <point x="367.44" y="-10.68"/>
      <point x="435.64" y="86.03999999999999"/>
      <point x="435.64" y="259.38" type="curve" smooth="yes"/>
      <point x="435.64" y="446.64000000000004"/>
      <point x="373.28000000000003" y="539.2800000000001"/>
      <point x="252.7" y="539.2800000000001" type="curve" smooth="yes"/>
      <point x="226.6" y="539.2800000000001"/>
      <point x="202.24" y="532.9"/>
      <point x="183.88" y="523.54" type="curve"/>
      <point x="183.88" y="776.0" type="line"/>
      <point x="72.39999999999999" y="757.4000000000001" type="line"/>
      <point x="72.39999999999999" y="12.7" type="line"/>
      <point x="122.94" y="-2.3200000000000003"/>
      <point x="172.54000000000002" y="-10.68"/>
    </contour>
    <contour>
      <point x="226.14" y="84.9" type="curve" smooth="yes"/>
      <point x="210.72" y="84.9"/>
      <point x="196.28" y="87.26"/>
      <point x="183.88" y="91.3" type="curve"/>
      <point x="183.88" y="431.26000000000005" type="line"/>
      <point x="196.28" y="438.98"/>
      <point x="214.72" y="443.70000000000005"/>
      <point x="233.5" y="443.70000000000005" type="curve" smooth="yes"/>
      <point x="285.26" y="443.70000000000005"/>
      <point x="319.52" y="408.32"/>
      <point x="319.52" y="259.38" type="curve" smooth="yes"/>
      <point x="319.52" y="121.77999999999999"/>
      <point x="289.02" y="84.9"/>
    </contour>
  </outline>
</glyph>
<glyph name="c" format="2">
  <advance width="370.08"/>
  <unicode hex="0063"/>
  <anchor x="182.56" y="0.0" name="bottom"/>
  <anchor x="182.56" y="523.6" name="top"/>
  <outline>
    <contour>
      <point x="244.88" y="-13.32" type="curve" smooth="yes"/>
      <point x="289.46" y="-13.32"/>
      <point x="324.46" y="-5.62"/>
      <point x="350.76" y="8.399999999999999" type="curve"/>
      <point x="334.46000000000004" y="98.96000000000001" type="line"/>
      <point x="315.41999999999996" y="89.60000000000001"/>
      <point x="296.36" y="84.24000000000001"/>
      <point x="269.68" y="84.24000000000001" type="curve" smooth="yes"/>
      <point x="203.42959183673472" y="84.24000000000001"/>
      <point x="162.18" y="139.04188679245283"/>
      <point x="162.18" y="263.62" type="curve" smooth="yes"/>
      <point x="162.18" y="394.3022641509434"/>
      <point x="196.80558139534884" y="444.02000000000004"/>
      <point x="260.4" y="444.02000000000004" type="curve" smooth="yes"/>
      <point x="284.44" y="444.02000000000004"/>
      <point x="306.48" y="438.02000000000004"/>
      <point x="326.48" y="426.36" type="curve"/>
      <point x="349.4" y="518.6" type="line"/>
      <point x="318.78" y="533.58"/>
      <point x="285.82" y="541.92"/>
      <point x="245.86" y="541.92" type="curve" smooth="yes"/>
      <point x="118.6" y="541.92"/>
      <point x="45.72" y="438.62"/>
      <point x="45.72" y="263.62" type="curve" smooth="yes"/>
      <point x="45.72" y="88.42"/>
      <point x="113.92" y="-13.32"/>
    </contour>
  </outline>
</glyph>
<glyph name="d" format="2">
  <advance width="481.36"/>
  <unicode hex="0064"/>
  <anchor x="225.0" y="0.0" name="bottom"/>
  <anchor x="225.0" y="261.64" name="center"/>
  <anchor x="225.0" y="776.0" name="top"/>
  <anchor x="445.2" y="776.0" name="topright"/>
  <outline>
    <contour>
      <point x="253.23999999999998" y="-10.68" type="curve" smooth="yes"/>
      <point x="308.82" y="-10.68"/>
      <point x="358.41999999999996" y="-2.3200000000000003"/>
      <point x="408.96000000000004" y="12.7" type="curve"/>
      <point x="408.96000000000004" y="776.0" type="line"/>
      <point x="297.48" y="757.4000000000001" type="line"/>
      <point x="297.48" y="523.54" type="line"/>
      <point x="279.12" y="532.9"/>
      <point x="254.76000000000002" y="539.2800000000001"/>
      <point x="229.0" y="539.2800000000001" type="curve" smooth="yes"/>
      <point x="108.76" y="539.2800000000001"/>
      <point x="45.72" y="446.64"/>
      <point x="45.72" y="259.38" type="curve" smooth="yes"/>
      <point x="45.72" y="86.03999999999999"/>
      <point x="113.58" y="-10.68"/>
    </contour>
    <contour>
      <point x="255.22" y="84.9" type="curve" smooth="yes"/>
      <point x="192.68" y="84.9"/>
      <point x="162.18" y="121.77999999999999"/>
      <point x="162.18" y="259.38" type="curve"/>
      <point x="162.18" y="408.32"/>
      <point x="196.10000000000002" y="443.70000000000005"/>
      <point x="247.86" y="443.70000000000005" type="curve" smooth="yes"/>
      <point x="266.64" y="443.70000000000005"/>
      <point x="285.08" y="438.98"/>
      <point x="297.48" y="431.26000000000005" type="curve"/>
      <point x="297.48" y="91.3" type="line"/>
      <point x="285.08" y="87.26"/>
      <point x="270.64" y="84.9"/>
    </contour>
  </outline>
</glyph>
<glyph name="e" format="2">
  <advance width="449.08"/>
  <unicode hex="0065"/>
  <anchor x="221.26" y="0.0" name="bottom"/>
  <anchor x="397.53999999999996" y="10.0" name="ogonek"/>
  <anchor x="221.26" y="523.6" name="top"/>
  <outline>
    <contour>
      <point x="257.18" y="-13.32" type="curve" smooth="yes"/>
      <point x="305.59999999999997" y="-13.32"/>
      <point x="348.0515108822131" y="-4.109837571496482"/>
      <point x="381.7" y="13.04" type="curve"/>
      <point x="367.40000000000003" y="100.64" type="line"/>
      <point x="345.73999999999995" y="90.3"/>
      <point x="311.06" y="84.24000000000001"/>
      <point x="276.06" y="84.24000000000001" type="curve" smooth="yes"/>
      <point x="197.52" y="84.24000000000001"/>
      <point x="161.8424951150258" y="138.46035171814282"/>
      <point x="160.52" y="226.54" type="curve"/>
      <point x="402.04" y="226.54" type="line"/>
      <point x="403.04" y="243.85999999999999"/>
      <point x="403.7" y="261.52000000000004"/>
      <point x="403.7" y="279.8" type="curve" smooth="yes"/>
      <point x="403.7" y="443.06"/>
      <point x="345.44" y="541.92"/>
      <point x="233.2" y="541.92" type="curve" smooth="yes"/>
      <point x="117.97999999999999" y="541.92"/>
      <point x="45.72" y="441.02000000000004"/>
      <point x="45.72" y="259.0" type="curve" smooth="yes"/>
      <point x="45.72" y="88.05999999999999"/>
      <point x="119.24" y="-13.32"/>
    </contour>
    <contour>
      <point x="160.86" y="307.22" type="line"/>
      <point x="162.86" y="401.72"/>
      <point x="184.2112" y="448.0"/>
      <point x="228.24" y="448.0" type="curve" smooth="yes"/>
      <point x="271.8" y="448.0"/>
      <point x="292.21999999999997" y="405.76"/>
      <point x="292.52" y="307.22" type="curve"/>
    </contour>
  </outline>
</glyph>
<glyph name="f" format="2">
  <advance width="319.98"/>
  <unicode hex="0066"/>
  <anchor x="158.18" y="0.0" name="bottom"/>
  <anchor x="158.18" y="776.0" name="top"/>
  <outline>
    <contour>
      <point x="72.74" y="0.0" type="line"/>
      <point x="184.22" y="0.0" type="line"/>
      <point x="184.22" y="435.65999999999997" type="line"/>
      <point x="312.34000000000003" y="435.65999999999997" type="line"/>
      <point x="312.34000000000003" y="528.2600000000001" type="line"/>
      <point x="184.22" y="528.2600000000001" type="line"/>
      <point x="184.22" y="593.44" type="line"/>
      <point x="184.22" y="652.94"/>
      <point x="204.24" y="681.1"/>
      <point x="255.7" y="681.1" type="curve" smooth="yes"/>
      <point x="274.72" y="681.1"/>
      <point x="296.72" y="676.44"/>
      <point x="311.74" y="669.0999999999999" type="curve"/>
      <point x="332.98" y="758.68" type="line"/>
      <point x="312.68" y="768.0"/>
      <point x="276.74" y="776.0"/>
      <point x="239.8" y="776.0" type="curve" smooth="yes"/>
      <point x="129.64" y="776.0"/>
      <point x="72.74" y="712.36"/>
      <point x="72.74" y="586.84" type="curve" smooth="yes"/>
    </contour>
  </outline>
</glyph>
<glyph name="g" format="2">
  <advance width="481.36"/>
  <unicode hex="0067"/>
  <anchor x="238.54" y="-185.0" name="bottom"/>
  <anchor x="238.54" y="523.6" name="top"/>
  <outline>
    <contour>
      <point x="216.79999999999998" y="-188.0" type="curve" smooth="yes"/>
      <point x="344.56" y="-188.0"/>
      <point x="408.96000000000004" y="-107.28"/>
      <point x="408.96000000000004" y="33.04" type="curve" smooth="yes"/>
      <point x="408.96000000000004" y="515.9" type="line"/>
      <point x="357.09999999999997" y="530.9200000000001"/>
      <point x="307.84000000000003" y="539.28"/>
      <point x="253.58" y="539.28" type="curve" smooth="yes"/>
      <point x="112.89999999999999" y="539.28"/>
      <point x="45.72" y="445.52000000000004"/>
      <point x="45.72" y="281.54" type="curve" smooth="yes"/>
      <point x="45.72" y="105.28"/>
      <point x="108.3475" y="20.68"/>
      <point x="227.0" y="20.68" type="curve" smooth="yes"/>
      <point x="253.26399999999998" y="20.68"/>
      <point x="277.76815368748953" y="26.083837029406844"/>
      <point x="297.48" y="36.080000000000005" type="curve"/>
      <point x="297.48" y="12.62" type="line" smooth="yes"/>
      <point x="297.48" y="-59.08"/>
      <point x="262.08" y="-92.76"/>
      <point x="200.92" y="-93.42" type="curve" smooth="yes"/>
      <point x="165.57999999999998" y="-93.42"/>
      <point x="130.58" y="-84.74"/>
      <point x="99.30000000000001" y="-69.08" type="curve"/>
      <point x="78.38" y="-162.32" type="line"/>
      <point x="116.0" y="-179.32"/>
      <point x="162.28" y="-188.0"/>
    </contour>
    <contour>
      <point x="247.86" y="116.25999999999999" type="curve" smooth="yes"/>
      <point x="194.78" y="116.25999999999999"/>
      <point x="162.18" y="149.3"/>
      <point x="162.18" y="281.53999999999996" type="curve" smooth="yes"/>
      <point x="162.18" y="406.18"/>
      <point x="196.29999999999998" y="443.7"/>
      <point x="251.92000000000002" y="443.7" type="curve" smooth="yes"/>
      <point x="269.98" y="443.7"/>
      <point x="284.42" y="441.34000000000003"/>
      <point x="297.48" y="436.64" type="curve"/>
      <point x="297.48" y="128.35999999999999" type="line"/>
      <point x="285.74" y="120.64"/>
      <point x="268.62" y="116.25999999999999"/>
    </contour>
  </outline>
</glyph>
<glyph name="h" format="2">
  <advance width="492.42"/>
  <unicode hex="0068"/>
  <anchor x="245.56" y="0.0" name="bottom"/>
  <anchor x="245.56" y="388.0" name="center"/>
  <anchor x="245.56" y="776.0" name="top"/>
  <outline>
    <contour>
      <point x="72.74" y="0.0" type="line"/>
      <point x="184.22" y="0.0" type="line"/>
      <point x="184.22" y="434.94" type="line"/>
      <point x="200.36" y="440.32"/>
      <point x="216.5" y="443.02"/>
      <point x="231.96" y="443.02" type="curve" smooth="yes"/>
      <point x="292.8" y="443.02"/>
      <point x="313.85999999999996" y="405.56"/>
      <point x="313.85999999999996" y="309.71999999999997" type="curve" smooth="yes"/>
      <point x="313.85999999999996" y="0.0" type="line"/>
      <point x="425.34000000000003" y="0.0" type="line"/>
      <point x="425.34000000000003" y="316.05999999999995" type="line" smooth="yes"/>
      <point x="425.34000000000003" y="460.46"/>
      <point x="359.44" y="538.6"/>
      <point x="252.9" y="538.6" type="curve" smooth="yes"/>
      <point x="227.78" y="538.6"/>
      <point x="204.32000000000002" y="534.5600000000001"/>
      <point x="184.22" y="527.52" type="curve"/>
      <point x="184.22" y="776.0" type="line"/>
      <point x="72.74" y="757.4000000000001" type="line"/>
    </contour>
  </outline>
</glyph>
<glyph name="i" format="2">
  <advance width="256.96"/>
  <unicode hex="0069"/>
  <anchor x="128.79999999999998" y="0.0" name="bottom"/>
  <outline>
    <contour>
      <point x="72.74" y="0.0" type="line"/>
      <point x="184.22" y="0.0" type="line"/>
      <point x="184.22" y="528.2600000000001" type="line"/>
      <point x="72.74" y="528.2600000000001" type="line"/>
    </contour>
    <contour>
      <point x="128.48" y="606.88" type="curve" smooth="yes"/>
      <point x="166.02" y="606.88"/>
      <point x="197.22" y="634.78"/>
      <point x="197.22" y="677.28" type="curve" smooth="yes"/>
      <point x="197.22" y="719.4399999999999"/>
      <point x="166.02" y="747.68"/>
      <point x="128.48" y="747.68" type="curve" smooth="yes"/>
      <point x="91.28" y="747.68"/>
      <point x="59.74" y="719.4399999999999"/>
      <point x="59.74" y="677.28" type="curve" smooth="yes"/>
      <point x="59.74" y="634.78"/>
      <point x="91.28" y="606.88"/>
    </contour>
  </outline>
</glyph>
<glyph name="j" format="2">
  <advance width="256.96"/>
  <unicode hex="006A"/>
  <outline>
    <contour>
      <point x="32.84" y="-188.0" type="curve" smooth="yes"/>
      <point x="136.6009467455621" y="-188.0"/>
      <point x="184.22" y="-124.34"/>
      <point x="184.22" y="-23.779999999999998" type="curve" smooth="yes"/>
      <point x="184.22" y="528.6" type="line"/>
      <point x="72.74" y="528.6" type="line"/>
      <point x="72.74" y="-21.06" type="line"/>
      <point x="72.74" y="-68.28"/>
      <point x="58.56" y="-90.1"/>
      <point x="21.54" y="-90.1" type="curve" smooth="yes"/>
      <point x="9.22" y="-90.1"/>
      <point x="-3.1399999999999997" y="-88.1"/>
      <point x="-16.14" y="-84.44" type="curve"/>
      <point x="-31.059999999999995" y="-176.35999999999999" type="line"/>
      <point x="-10.76" y="-183.68"/>
      <point x="10.86" y="-188.0"/>
    </contour>
    <contour>
      <point x="128.48" y="606.88" type="curve" smooth="yes"/>
      <point x="168.0" y="606.88"/>
      <point x="197.22" y="636.76"/>
      <point x="197.22" y="677.28" type="curve" smooth="yes"/>
      <point x="197.22" y="717.4599999999999"/>
      <point x="168.0" y="747.68"/>
      <point x="128.48" y="747.68" type="curve" smooth="yes"/>
      <point x="89.3" y="747.68"/>
      <point x="59.74" y="717.4599999999999"/>
      <point x="59.74" y="677.28" type="curve" smooth="yes"/>
      <point x="59.74" y="636.76"/>
      <point x="89.3" y="606.88"/>
    </contour>
  </outline>
</glyph>
<glyph name="k" format="2">
  <advance width="435.56"/>
  <unicode hex="006B"/>
  <anchor x="227.72" y="0.0" name="bottom"/>
  <anchor x="227.72" y="776.0" name="top"/>
  <outline>
    <contour>
      <point x="72.74" y="0.0" type="line"/>
      <point x="184.22" y="0.0" type="line"/>
      <point x="184.22" y="243.17999999999998" type="line"/>
      <point x="234.70000000000002" y="184.48"/>
      <point x="283.3195458176193" y="86.49264324181726"/>
      <point x="313.08" y="0.0" type="curve"/>
      <point x="431.88000000000005" y="0.0" type="line"/>
      <point x="397.8" y="99.92"/>
      <point x="335.02000000000004" y="213.94"/>
      <point x="275.22" y="281.32" type="curve"/>
      <point x="323.32" y="350.98"/>
      <point x="377.8793283219009" y="442.6839349749722"/>
      <point x="421.78000000000003" y="528.2600000000001" type="curve"/>
      <point x="303.32" y="528.2600000000001" type="line"/>
      <point x="273.9941055254751" y="465.86400982621876"/>
      <point x="224.4" y="371.24"/>
      <point x="184.22" y="308.5" type="curve"/>
      <point x="184.22" y="776.0" type="line"/>
      <point x="72.74" y="757.4000000000001" type="line"/>
    </contour>
  </outline>
</glyph>
<glyph name="l" format="2">
  <advance width="261.94"/>
  <unicode hex="006C"/>
  <anchor x="131.46" y="0.0" name="bottom"/>
  <anchor x="131.46" y="388.0" name="center"/>
  <anchor x="131.46" y="776.0" name="top"/>
  <anchor x="242.26" y="776.0" name="topright"/>
  <outline>
    <contour>
      <point x="234.58" y="-11.280000000000001" type="curve"/>
      <point x="247.86" y="79.97999999999999" type="line"/>
      <point x="200.22" y="85.02000000000001"/>
      <point x="183.54" y="103.06"/>
      <point x="183.54" y="148.44" type="curve" smooth="yes"/>
      <point x="183.54" y="776.0" type="line"/>
      <point x="72.05999999999999" y="757.4000000000001" type="line"/>
      <point x="72.05999999999999" y="147.46" type="line" smooth="yes"/>
      <point x="72.05999999999999" y="43.66"/>
      <point x="124.56" y="-6.6000000000000005"/>
    </contour>
  </outline>
</glyph>
<glyph name="m" format="2">
  <advance width="711.64"/>
  <unicode hex="006D"/>
  <anchor x="365.71999999999997" y="0.0" name="bottom"/>
  <anchor x="365.71999999999997" y="523.6" name="top"/>
  <outline>
    <contour>
      <point x="72.74" y="0.0" type="line"/>
      <point x="184.22" y="0.0" type="line"/>
      <point x="184.22" y="435.94" type="line"/>
      <point x="199.32" y="440.32"/>
      <point x="214.44" y="443.02"/>
      <point x="227.20000000000002" y="443.02" type="curve" smooth="yes"/>
      <point x="286.0" y="443.02"/>
      <point x="302.74" y="412.53999999999996"/>
      <point x="302.74" y="313.8" type="curve" smooth="yes"/>
      <point x="302.74" y="0.0" type="line"/>
      <point x="414.56" y="0.0" type="line"/>
      <point x="414.56" y="320.14" type="line" smooth="yes"/>
      <point x="414.56" y="360.52"/>
      <point x="409.88" y="394.2"/>
      <point x="401.2" y="423.54" type="curve"/>
      <point x="419.26" y="435.96000000000004"/>
      <point x="438.40000000000003" y="443.02"/>
      <point x="459.17999999999995" y="443.02" type="curve" smooth="yes"/>
      <point x="514.68" y="443.02"/>
      <point x="533.08" y="409.24"/>
      <point x="533.08" y="313.8" type="curve"/>
      <point x="533.08" y="0.0" type="line"/>
      <point x="644.5600000000001" y="0.0" type="line"/>
      <point x="644.5600000000001" y="320.14" type="line" smooth="yes"/>
      <point x="644.5600000000001" y="471.42"/>
      <point x="586.94" y="538.6"/>
      <point x="472.12" y="538.6" type="curve" smooth="yes"/>
      <point x="428.76" y="538.6"/>
      <point x="389.08000000000004" y="524.24"/>
      <point x="354.08" y="499.56" type="curve"/>
      <point x="324.12" y="526.26"/>
      <point x="283.16" y="538.6"/>
      <point x="231.2" y="538.6" type="curve" smooth="yes"/>
      <point x="176.96" y="538.6"/>
      <point x="124.32" y="529.56"/>
      <point x="72.74" y="515.22" type="curve"/>
    </contour>
  </outline>
</glyph>
<glyph name="n" format="2">
  <advance width="492.42"/>
  <unicode hex="006E"/>
  <anchor x="245.88" y="0.0" name="bottom"/>
  <anchor x="245.88" y="523.6" name="top"/>
  <outline>
    <contour>
      <point x="72.74" y="0.0" type="line"/>
      <point x="184.22" y="0.0" type="line"/>
      <point x="184.22" y="435.94" type="line"/>
      <point x="200.34" y="440.66"/>
      <point x="216.82" y="443.02"/>
      <point x="230.6" y="443.02" type="curve" smooth="yes"/>
      <point x="292.46" y="443.02"/>
      <point x="313.85999999999996" y="406.24"/>
      <point x="313.85999999999996" y="309.71999999999997" type="curve" smooth="yes"/>
      <point x="313.85999999999996" y="0.0" type="line"/>
      <point x="425.34000000000003" y="0.0" type="line"/>
      <point x="425.34000000000003" y="316.05999999999995" type="line" smooth="yes"/>
      <point x="425.34000000000003" y="470.06"/>
      <point x="361.73999999999995" y="538.6"/>
      <point x="234.94" y="538.6" type="curve" smooth="yes"/>
      <point x="179.68" y="538.6"/>
      <point x="125.34" y="529.9000000000001"/>
      <point x="72.74" y="515.22" type="curve"/>
    </contour>
  </outline>
</glyph>
<glyph name="o" format="2">
  <advance width="474.44"/>
  <unicode hex="006F"/>
  <anchor x="237.22" y="0.0" name="bottom"/>
  <anchor x="237.22" y="261.64" name="center"/>
  <anchor x="424.84" y="10.0" name="ogonek"/>
  <anchor x="237.22" y="523.6" name="top"/>
  <anchor x="451.16" y="523.6" name="topright"/>
  <outline>
    <contour>
      <point x="237.22" y="-13.32" type="curve" smooth="yes"/>
      <point x="360.48" y="-13.32"/>
      <point x="428.72" y="89.7"/>
      <point x="428.72" y="264.29999999999995" type="curve" smooth="yes"/>
      <point x="428.72" y="438.55999999999995"/>
      <point x="360.48" y="541.92"/>
      <point x="237.22" y="541.92" type="curve" smooth="yes"/>
      <point x="113.96" y="541.92"/>
      <point x="45.72" y="438.55999999999995"/>
      <point x="45.72" y="264.29999999999995" type="curve" smooth="yes"/>
      <point x="45.72" y="89.7"/>
      <point x="113.96" y="-13.32"/>
    </contour>
    <contour>
      <point x="237.22" y="83.92" type="curve" smooth="yes"/>
      <point x="185.32000000000002" y="83.92"/>
      <point x="162.18" y="142.18"/>
      <point x="162.18" y="264.29999999999995" type="curve" smooth="yes"/>
      <point x="162.18" y="386.42"/>
      <point x="185.32000000000002" y="444.68"/>
      <point x="237.22" y="444.68" type="curve" smooth="yes"/>
      <point x="289.12" y="444.68"/>
      <point x="312.26" y="386.42"/>
      <point x="312.26" y="264.29999999999995" type="curve" smooth="yes"/>
      <point x="312.26" y="141.51999999999998"/>
      <point x="289.78" y="83.92"/>
    </contour>
  </outline>
</glyph>
<glyph name="p" format="2">
  <advance width="481.36"/>
  <unicode hex="0070"/>
  <anchor x="246.14" y="0.0" name="bottom"/>
  <anchor x="246.14" y="523.6" name="top"/>
  <outline>
    <contour>
      <point x="72.39999999999999" y="-185.0" type="line"/>
      <point x="183.88" y="-185.0" type="line"/>
      <point x="183.88" y="5.06" type="line"/>
      <point x="202.24" y="-4.3"/>
      <point x="227.28" y="-10.68"/>
      <point x="253.04" y="-10.68" type="curve" smooth="yes"/>
      <point x="373.28000000000003" y="-10.68"/>
      <point x="435.64" y="79.91999999999999"/>
      <point x="435.64" y="268.88" type="curve" smooth="yes"/>
      <point x="435.64" y="440.85999999999996"/>
      <point x="368.46" y="539.28"/>
      <point x="227.78" y="539.28" type="curve" smooth="yes"/>
      <point x="172.20000000000002" y="539.28"/>
      <point x="122.94" y="530.92"/>
      <point x="72.39999999999999" y="515.9" type="curve"/>
    </contour>
    <contour>
      <point x="233.5" y="84.89999999999999" type="curve" smooth="yes"/>
      <point x="214.72" y="84.89999999999999"/>
      <point x="196.28" y="89.61999999999999"/>
      <point x="183.88" y="97.68" type="curve"/>
      <point x="183.88" y="437.3" type="line"/>
      <point x="196.28" y="441.34"/>
      <point x="210.72" y="443.7"/>
      <point x="226.14" y="443.7" type="curve" smooth="yes"/>
      <point x="289.02" y="443.7"/>
      <point x="319.52" y="406.82"/>
      <point x="319.52" y="269.21999999999997" type="curve" smooth="yes"/>
      <point x="319.52" y="120.28"/>
      <point x="285.26" y="84.89999999999999"/>
    </contour>
  </outline>
</glyph>
<glyph name="q" format="2">
  <advance width="481.36"/>
  <unicode hex="0071"/>
  <anchor x="228.29999999999998" y="0.0" name="bottom"/>
  <anchor x="228.29999999999998" y="523.6" name="top"/>
  <outline>
    <contour>
      <point x="297.48" y="-185.0" type="line"/>
      <point x="408.96000000000004" y="-185.0" type="line"/>
      <point x="408.96000000000004" y="515.9" type="line"/>
      <point x="358.41999999999996" y="530.92"/>
      <point x="309.16" y="539.28"/>
      <point x="253.57999999999998" y="539.28" type="curve" smooth="yes"/>
      <point x="112.9" y="539.28"/>
      <point x="45.72" y="440.86"/>
      <point x="45.72" y="268.88" type="curve" smooth="yes"/>
      <point x="45.72" y="79.92"/>
      <point x="108.08" y="-10.68"/>
      <point x="228.32" y="-10.68" type="curve" smooth="yes"/>
      <point x="254.07999999999998" y="-10.68"/>
      <point x="279.12" y="-4.3"/>
      <point x="297.48" y="5.06" type="curve"/>
    </contour>
    <contour>
      <point x="247.86" y="84.89999999999999" type="curve" smooth="yes"/>
      <point x="196.10000000000002" y="84.89999999999999"/>
      <point x="162.18" y="120.28"/>
      <point x="162.18" y="269.21999999999997" type="curve" smooth="yes"/>
      <point x="162.18" y="406.82"/>
      <point x="192.34" y="443.7"/>
      <point x="255.22" y="443.7" type="curve" smooth="yes"/>
      <point x="270.64" y="443.7"/>
      <point x="285.08" y="441.34"/>
      <point x="297.48" y="437.3" type="curve"/>
      <point x="297.48" y="97.68" type="line"/>
      <point x="285.08" y="89.61999999999999"/>
      <point x="266.64" y="84.89999999999999"/>
    </contour>
  </outline>
</glyph>
<glyph name="r" format="2">
  <advance width="344.3"/>
  <unicode hex="0072"/>
  <anchor x="171.18" y="0.0" name="bottom"/>
  <anchor x="171.18" y="523.6" name="top"/>
  <outline>
    <contour>
      <point x="72.74" y="0.0" type="line"/>
      <point x="184.22" y="0.0" type="line"/>
      <point x="184.22" y="432.29999999999995" type="line"/>
      <point x="202.94000000000003" y="440.0"/>
      <point x="224.66" y="443.02"/>
      <point x="251.02" y="443.02" type="curve" smooth="yes"/>
      <point x="274.38" y="443.02"/>
      <point x="296.72" y="439.35999999999996"/>
      <point x="317.06" y="432.02" type="curve"/>
      <point x="336.96" y="524.28" type="line"/>
      <point x="314.62" y="533.28"/>
      <point x="277.7" y="538.26"/>
      <point x="238.78" y="538.26" type="curve" smooth="yes"/>
      <point x="178.22" y="538.26"/>
      <point x="112.74" y="523.94"/>
      <point x="72.74" y="504.28000000000003" type="curve"/>
    </contour>
  </outline>
</glyph>
<glyph name="s" format="2">
  <advance width="360.02"/>
  <unicode hex="0073"/>
  <anchor x="182.14" y="0.0" name="bottom"/>
  <anchor x="182.14" y="523.6" name="top"/>
  <outline>
    <contour>
      <point x="159.56" y="-13.32" type="curve" smooth="yes"/>
      <point x="263.78" y="-13.32"/>
      <point x="330.65999999999997" y="51.32"/>
      <point x="330.65999999999997" y="147.54000000000002" type="curve" smooth="yes"/>
      <point x="330.65999999999997" y="216.61999999999998"/>
      <point x="293.62" y="261.22"/>
      <point x="233.6" y="299.52" type="curve" smooth="yes"/>
      <point x="176.98000000000002" y="336.12"/>
      <point x="151.88" y="355.56"/>
      <point x="151.88" y="394.7" type="curve" smooth="yes"/>
      <point x="151.88" y="431.09999999999997"/>
      <point x="174.96" y="449.98"/>
      <point x="215.38000000000002" y="449.98" type="curve" smooth="yes"/>
      <point x="240.4" y="449.98"/>
      <point x="265.76" y="444.96000000000004"/>
      <point x="294.06" y="433.29999999999995" type="curve"/>
      <point x="312.66" y="520.2600000000001" type="line"/>
      <point x="292.62" y="530.2800000000001"/>
      <point x="251.66" y="541.92"/>
      <point x="206.78" y="541.92" type="curve" smooth="yes"/>
      <point x="107.60000000000001" y="541.92"/>
      <point x="43.379999999999995" y="476.02"/>
      <point x="43.379999999999995" y="385.12" type="curve" smooth="yes"/>
      <point x="43.379999999999995" y="315.44"/>
      <point x="73.46" y="274.42"/>
      <point x="134.78" y="236.78" type="curve" smooth="yes"/>
      <point x="195.76" y="199.82"/>
      <point x="218.84" y="179.42"/>
      <point x="218.84" y="138.94" type="curve" smooth="yes"/>
      <point x="218.84" y="103.76"/>
      <point x="196.38" y="78.62"/>
      <point x="150.95999999999998" y="78.62" type="curve" smooth="yes"/>
      <point x="120.56" y="78.62"/>
      <point x="84.22" y="89.98"/>
      <point x="56.9" y="104.28000000000002" type="curve"/>
      <point x="35.660000000000004" y="16.32" type="line"/>
      <point x="60.68000000000001" y="2.66"/>
      <point x="107.96" y="-13.32"/>
    </contour>
  </outline>
</glyph>
<glyph name="t" format="2">
  <advance width="341.24"/>
  <unicode hex="0074"/>
  <anchor x="167.85999999999999" y="0.0" name="bottom"/>
  <anchor x="167.85999999999999" y="261.64" name="center"/>
  <anchor x="167.85999999999999" y="523.6" name="top"/>
  <anchor x="315.38" y="776.0" name="topright"/>
  <outline>
    <contour>
      <point x="223.20000000000002" y="-11.620000000000001" type="curve" smooth="yes"/>
      <point x="257.8" y="-11.620000000000001"/>
      <point x="297.65999999999997" y="-1.6600000000000001"/>
      <point x="321.34000000000003" y="13.98" type="curve"/>
      <point x="303.4" y="100.60000000000001" type="line"/>
      <point x="284.93207303995075" y="90.39120018102415"/>
      <point x="266.72" y="85.94"/>
      <point x="243.4" y="85.94" type="curve" smooth="yes"/>
      <point x="201.3" y="85.94"/>
      <point x="178.9" y="112.63999999999999"/>
      <point x="178.9" y="177.72" type="curve" smooth="yes"/>
      <point x="178.9" y="435.65999999999997" type="line"/>
      <point x="308.62" y="435.65999999999997" type="line"/>
      <point x="308.62" y="528.2600000000001" type="line"/>
      <point x="178.9" y="528.2600000000001" type="line"/>
      <point x="178.9" y="681.0" type="line"/>
      <point x="67.42" y="662.4000000000001" type="line"/>
      <point x="67.42" y="184.02" type="line" smooth="yes"/>
      <point x="67.42" y="50.5"/>
      <point x="117.44" y="-11.620000000000001"/>
    </contour>
  </outline>
</glyph>
<glyph name="u" format="2">
  <advance width="491.74"/>
  <unicode hex="0075"/>
  <anchor x="248.18" y="0.0" name="bottom"/>
  <anchor x="445.08" y="10.0" name="ogonek"/>
  <anchor x="248.18" y="523.6" name="top"/>
  <anchor x="475.38" y="523.6" name="topright"/>
  <outline>
    <contour>
      <point x="258.5" y="-10.34" type="curve" smooth="yes"/>
      <point x="313.76" y="-10.34"/>
      <point x="369.11999999999995" y="-0.9600000000000002"/>
      <point x="419.34" y="13.04" type="curve"/>
      <point x="419.34" y="528.2600000000001" type="line"/>
      <point x="307.86" y="528.2600000000001" type="line"/>
      <point x="307.86" y="91.98" type="line"/>
      <point x="291.74" y="87.25999999999999"/>
      <point x="275.6" y="85.24000000000001"/>
      <point x="261.14" y="85.24000000000001" type="curve" smooth="yes"/>
      <point x="200.98" y="85.24000000000001"/>
      <point x="178.22" y="120.32000000000001"/>
      <point x="178.22" y="216.84" type="curve" smooth="yes"/>
      <point x="178.22" y="528.2600000000001" type="line"/>
      <point x="66.74" y="528.2600000000001" type="line"/>
      <point x="66.74" y="211.18" type="line" smooth="yes"/>
      <point x="66.74" y="57.18"/>
      <point x="130.68" y="-10.34"/>
    </contour>
  </outline>
</glyph>
<glyph name="v" format="2">
  <advance width="414.32"/>
  <unicode hex="0076"/>
  <anchor x="208.48" y="0.0" name="bottom"/>
  <anchor x="208.48" y="523.6" name="top"/>
  <outline>
    <contour>
      <point x="150.42" y="0.0" type="curve"/>
      <point x="263.9" y="0.0" type="line"/>
      <point x="308.6" y="131.5"/>
      <point x="364.34000000000003" y="331.48"/>
      <point x="401.6" y="528.2600000000001" type="curve"/>
      <point x="288.48" y="528.2600000000001" type="line"/>
      <point x="271.72" y="410.96"/>
      <point x="239.62" y="249.1"/>
      <point x="208.82" y="135.96" type="curve"/>
      <point x="178.68" y="248.76000000000002"/>
      <point x="146.92000000000002" y="411.62"/>
      <point x="130.17999999999998" y="528.2600000000001" type="curve"/>
      <point x="12.719999999999999" y="528.2600000000001" type="line"/>
      <point x="50.32" y="331.48"/>
      <point x="105.72" y="131.5"/>
    </contour>
  </outline>
</glyph>
<glyph name="w" format="2">
  <advance width="584.84"/>
  <unicode hex="0077"/>
  <anchor x="288.96" y="0.0" name="bottom"/>
  <anchor x="288.96" y="523.6" name="top"/>
  <outline>
    <contour>
      <point x="115.56" y="0.0" type="curve"/>
      <point x="222.46" y="0.0" type="line"/>
      <point x="247.84" y="95.06"/>
      <point x="275.96000000000004" y="218.9"/>
      <point x="292.96" y="341.65999999999997" type="curve"/>
      <point x="310.96" y="218.9"/>
      <point x="336.36" y="95.06"/>
      <point x="361.74" y="0.0" type="curve"/>
      <point x="468.94" y="0.0" type="line"/>
      <point x="504.09999999999997" y="124.35999999999999"/>
      <point x="544.42" y="339.58"/>
      <point x="569.1" y="528.2600000000001" type="curve"/>
      <point x="459.96" y="528.2600000000001" type="line"/>
      <point x="450.91999999999996" y="417.54"/>
      <point x="428.8" y="261.52000000000004"/>
      <point x="403.3" y="131.0" type="curve"/>
      <point x="376.84000000000003" y="260.84000000000003"/>
      <point x="355.76" y="419.54"/>
      <point x="347.38" y="528.2600000000001" type="curve"/>
      <point x="246.5" y="528.2600000000001" type="line"/>
      <point x="237.12" y="419.53999999999996"/>
      <point x="212.66" y="259.18"/>
      <point x="181.88" y="130.02" type="curve"/>
      <point x="156.04" y="260.54"/>
      <point x="137.24" y="416.88"/>
      <point x="129.52" y="528.2600000000001" type="curve"/>
      <point x="15.4" y="528.2600000000001" type="line"/>
      <point x="40.42" y="339.58"/>
      <point x="80.4" y="124.69999999999999"/>
    </contour>
  </outline>
</glyph>
<glyph name="x" format="2">
  <advance width="400.42"/>
  <unicode hex="0078"/>
  <anchor x="197.57999999999998" y="0.0" name="bottom"/>
  <anchor x="197.57999999999998" y="523.6" name="top"/>
  <outline>
    <contour>
      <point x="9.42" y="0.0" type="curve"/>
      <point x="118.9" y="0.0" type="line"/>
      <point x="137.3" y="62.120000000000005"/>
      <point x="163.48" y="121.03999999999999"/>
      <point x="197.22" y="188.76" type="curve"/>
      <point x="231.95999999999998" y="118.72"/>
      <point x="257.12" y="60.84"/>
      <point x="275.88" y="0.0" type="curve"/>
      <point x="390.66" y="0.0" type="line"/>
      <point x="360.34000000000003" y="83.64"/>
      <point x="323.17999999999995" y="164.2"/>
      <point x="268.84000000000003" y="270.09999999999997" type="curve"/>
      <point x="386.28000000000003" y="528.2600000000001" type="line"/>
      <point x="275.46" y="528.2600000000001" type="line"/>
      <point x="203.52" y="351.12" type="line"/>
      <point x="129.6" y="528.2600000000001" type="line"/>
      <point x="14.14" y="528.2600000000001" type="line"/>
      <point x="131.23999999999998" y="269.76" type="line"/>
      <point x="77.58" y="163.86"/>
      <point x="39.739999999999995" y="83.64"/>
    </contour>
  </outline>
</glyph>
<glyph name="y" format="2">
  <advance width="413.66"/>
  <unicode hex="0079"/>
  <anchor x="211.76000000000002" y="0.0" name="bottom"/>
  <anchor x="211.76000000000002" y="523.6" name="top"/>
  <outline>
    <contour>
      <point x="75.82" y="-188.0" type="curve" smooth="yes"/>
      <point x="169.92000000000002" y="-188.0"/>
      <point x="216.22" y="-141.9"/>
      <point x="267.24" y="3.7399999999999993" type="curve" smooth="yes"/>
      <point x="317.24" y="147.0"/>
      <point x="364.96000000000004" y="332.32"/>
      <point x="403.58" y="528.2600000000001" type="curve"/>
      <point x="290.79999999999995" y="528.2600000000001" type="line"/>
      <point x="274.02" y="406.58"/>
      <point x="244.58" y="257.46"/>
      <point x="211.46" y="131.72" type="curve"/>
      <point x="179.38" y="250.64000000000001"/>
      <point x="146.56" y="412.32"/>
      <point x="132.16" y="528.2600000000001" type="curve"/>
      <point x="14.7" y="528.2600000000001" type="line"/>
      <point x="48.72" y="355.08"/>
      <point x="95.39999999999999" y="177.66"/>
      <point x="156.06" y="-0.7400000000000002" type="curve"/>
      <point x="132.0033968008316" y="-70.53109215683989"/>
      <point x="103.88" y="-93.1"/>
      <point x="71.5" y="-93.1" type="curve" smooth="yes"/>
      <point x="55.54" y="-93.1"/>
      <point x="36.92" y="-90.1"/>
      <point x="21.259999999999998" y="-82.78" type="curve"/>
      <point x="2.6600000000000006" y="-171.72" type="line"/>
      <point x="16.34" y="-180.36"/>
      <point x="43.6" y="-188.0"/>
    </contour>
  </outline>
</glyph>
<glyph name="z" format="2">
  <advance width="359.14"/>
  <unicode hex="007A"/>
  <anchor x="182.54000000000002" y="0.0" name="bottom"/>
  <anchor x="182.54000000000002" y="261.64" name="center"/>
  <anchor x="182.54000000000002" y="523.6" name="top"/>
  <outline>
    <contour>
      <point x="32.339999999999996" y="0.0" type="line"/>
      <point x="332.09999999999997" y="0.0" type="line"/>
      <point x="332.09999999999997" y="92.6" type="line"/>
      <point x="150.12" y="92.6" type="line"/>
      <point x="200.76000000000002" y="213.34"/>
      <point x="272.26" y="353.3"/>
      <point x="324.78" y="442.66" type="curve"/>
      <point x="324.78" y="528.2600000000001" type="line"/>
      <point x="44.68" y="528.2600000000001" type="line"/>
      <point x="44.68" y="435.65999999999997" type="line"/>
      <point x="205.66" y="435.65999999999997" type="line"/>
      <point x="144.94" y="327.26"/>
      <point x="73.78" y="183.0"/>
      <point x="32.339999999999996" y="77.34" type="curve"/>
    </contour>
  </outline>
</glyph>
<glyph name="braceleft" format="2">
  <advance width="278.74"/>
  <unicode hex="007B"/>
  <outline>
    <contour>
      <point x="270.03999999999996" y="-184.34" type="curve" smooth="yes"/>
      <point x="272.42" y="-184.34" type="line"/>
      <point x="272.42" y="-96.71999999999998" type="line"/>
      <point x="270.04" y="-96.71999999999998" type="line"/>
      <point x="223.02" y="-96.72"/>
      <point x="201.64" y="-72.38"/>
      <point x="201.64" y="-23.799999999999997" type="curve" smooth="yes"/>
      <point x="201.64" y="149.68" type="line" smooth="yes"/>
      <point x="201.64" y="224.04"/>
      <point x="179.3" y="271.03999999999996"/>
      <point x="132.66" y="299.0" type="curve"/>
      <point x="179.3" y="326.28000000000003"/>
      <point x="201.64" y="373.94"/>
      <point x="201.64" y="448.64" type="curve" smooth="yes"/>
      <point x="201.64" y="622.46" type="line" smooth="yes"/>
      <point x="201.64" y="672.36"/>
      <point x="221.7" y="695.38"/>
      <point x="270.03999999999996" y="695.38" type="curve" smooth="yes"/>
      <point x="272.08" y="695.38" type="line"/>
      <point x="272.08" y="783.0" type="line"/>
      <point x="270.03999999999996" y="783.0" type="line"/>
      <point x="154.04" y="783.0"/>
      <point x="98.75999999999999" y="735.74"/>
      <point x="98.75999999999999" y="623.4399999999999" type="curve" smooth="yes"/>
      <point x="98.75999999999999" y="461.84" type="line"/>
      <point x="98.75999999999999" y="385.84"/>
      <point x="78.05999999999999" y="347.14"/>
      <point x="35.04" y="342.8" type="curve"/>
      <point x="35.04" y="255.52000000000004" type="line"/>
      <point x="77.39999999999999" y="251.18"/>
      <point x="98.75999999999999" y="211.82"/>
      <point x="98.75999999999999" y="135.82000000000002" type="curve" smooth="yes"/>
      <point x="98.75999999999999" y="-24.78" type="line" smooth="yes"/>
      <point x="98.75999999999999" y="-137.08"/>
      <point x="154.04" y="-184.34"/>
    </contour>
  </outline>
</glyph>
<glyph name="bar" format="2">
  <advance width="285.0"/>
  <unicode hex="007C"/>
  <outline>
    <contour>
      <point x="91.06" y="-185.0" type="line"/>
      <point x="193.94" y="-185.0" type="line"/>
      <point x="193.94" y="783.0" type="line"/>
      <point x="91.06" y="783.0" type="line"/>
    </contour>
  </outline>
</glyph>
<glyph name="braceright" format="2">
  <advance width="278.74"/>
  <unicode hex="007D"/>
  <outline>
    <contour>
      <point x="6.32" y="-184.34" type="line"/>
      <point x="8.700000000000001" y="-184.34" type="line" smooth="yes"/>
      <point x="125.04000000000002" y="-184.34"/>
      <point x="179.98000000000002" y="-137.08"/>
      <point x="179.98000000000002" y="-24.78" type="curve" smooth="yes"/>
      <point x="179.98000000000002" y="135.82000000000002" type="line" smooth="yes"/>
      <point x="179.98000000000002" y="211.82"/>
      <point x="201.34" y="251.18"/>
      <point x="243.7" y="255.52000000000004" type="curve"/>
      <point x="243.7" y="342.8" type="line"/>
      <point x="200.68" y="347.14"/>
      <point x="179.98000000000002" y="385.84"/>
      <point x="179.98000000000002" y="461.84" type="curve"/>
      <point x="179.98000000000002" y="623.4399999999999" type="line" smooth="yes"/>
      <point x="179.98000000000002" y="735.74"/>
      <point x="125.04000000000002" y="783.0"/>
      <point x="8.700000000000001" y="783.0" type="curve"/>
      <point x="6.66" y="783.0" type="line"/>
      <point x="6.66" y="695.38" type="line"/>
      <point x="8.700000000000003" y="695.38" type="line"/>
      <point x="57.04" y="695.38"/>
      <point x="77.1" y="672.36"/>
      <point x="77.1" y="622.46" type="curve" smooth="yes"/>
      <point x="77.1" y="448.64" type="line" smooth="yes"/>
      <point x="77.1" y="374.28000000000003"/>
      <point x="99.44" y="326.62"/>
      <point x="146.07999999999998" y="299.0" type="curve"/>
      <point x="99.44" y="271.38"/>
      <point x="77.1" y="224.38"/>
      <point x="77.1" y="149.68" type="curve" smooth="yes"/>
      <point x="77.1" y="-23.799999999999997" type="line" smooth="yes"/>
      <point x="77.1" y="-72.38"/>
      <point x="55.72" y="-96.72"/>
      <point x="8.7" y="-96.71999999999998" type="curve"/>
      <point x="6.32" y="-96.71999999999998" type="line"/>
    </contour>
  </outline>
</glyph>
<glyph name="asciitilde" format="2">
  <advance width="432.64"/>
  <unicode hex="007E"/>
  <outline>
    <contour>
      <point x="290.36" y="214.82" type="curve" smooth="yes"/>
      <point x="364.22" y="214.82"/>
      <point x="396.90000000000003" y="278.34"/>
      <point x="413.5" y="364.2" type="curve"/>
      <point x="339.46000000000004" y="386.44" type="line"/>
      <point x="328.48" y="328.44"/>
      <point x="310.08000000000004" y="315.38000000000005"/>
      <point x="288.38" y="315.38000000000005" type="curve" smooth="yes"/>
      <point x="248.3646357615894" y="315.38000000000005"/>
      <point x="207.98781456953643" y="387.46000000000004"/>
      <point x="141.94" y="387.46000000000004" type="curve"/>
      <point x="68.42" y="387.46000000000004"/>
      <point x="35.74" y="323.94"/>
      <point x="18.8" y="238.07999999999998" type="curve"/>
      <point x="92.84" y="215.84" type="line"/>
      <point x="104.16" y="274.18"/>
      <point x="122.9" y="286.90000000000003"/>
      <point x="144.58" y="286.90000000000003" type="curve" smooth="yes"/>
      <point x="184.58400000000003" y="286.90000000000003"/>
      <point x="225.90399999999997" y="214.82"/>
    </contour>
  </outline>
</glyph>
<glyph name="exclamdown" format="2">
  <advance width="266.402"/>
  <unicode hex="00A1"/>
  <outline>
    <contour>
      <point x="73.56" y="-185.0" type="line"/>
      <point x="194.34" y="-185.0" type="line"/>
      <point x="194.34" y="13.479999999999999" type="line"/>
      <point x="194.34" y="98.36"/>
      <point x="179.78" y="244.82"/>
      <point x="163.54" y="287.78000000000003" type="curve"/>
      <point x="104.36000000000001" y="287.78000000000003" type="line"/>
      <point x="87.46" y="245.8"/>
      <point x="73.56" y="97.38"/>
      <point x="73.56" y="13.479999999999999" type="curve" smooth="yes"/>
    </contour>
    <contour>
      <point x="132.64000000000001" y="389.26000000000005" type="curve" smooth="yes"/>
      <point x="179.42" y="389.26000000000005"/>
      <point x="209.29999999999998" y="425.1"/>
      <point x="209.29999999999998" y="463.94" type="curve" smooth="yes"/>
      <point x="209.29999999999998" y="504.11999999999995"/>
      <point x="179.42" y="539.6400000000001"/>
      <point x="132.64000000000001" y="539.6400000000001" type="curve" smooth="yes"/>
      <point x="86.17999999999999" y="539.6400000000001"/>
      <point x="56.959999999999994" y="504.11999999999995"/>
      <point x="56.959999999999994" y="463.94" type="curve" smooth="yes"/>
      <point x="56.959999999999994" y="425.1"/>
      <point x="86.17999999999999" y="389.26000000000005"/>
    </contour>
  </outline>
</glyph>
<glyph name="cent" format="2">
  <advance width="430.0"/>
  <unicode hex="00A2"/>
  <outline>
    <contour>
      <point x="189.56" y="-101.0" type="line"/>
      <point x="289.8" y="-101.0" type="line"/>
      <point x="289.8" y="30.0" type="line"/>
      <point x="333.02" y="34.64"/>
      <point x="367.29999999999995" y="47.62"/>
      <point x="375.54" y="58.019999999999996" type="curve"/>
      <point x="353.6" y="144.3" type="line"/>
      <point x="346.3" y="138.84"/>
      <point x="328.2" y="126.92"/>
      <point x="283.8" y="126.92" type="curve" smooth="yes"/>
      <point x="190.88" y="126.92"/>
      <point x="181.28000000000003" y="212.44"/>
      <point x="181.28000000000003" y="295.6" type="curve" smooth="yes"/>
      <point x="181.28000000000003" y="413.46"/>
      <point x="208.4" y="460.71999999999997"/>
      <point x="276.88" y="460.71999999999997" type="curve" smooth="yes"/>
      <point x="302.62" y="460.71999999999997"/>
      <point x="322.98" y="451.09999999999997"/>
      <point x="343.98" y="440.72" type="curve"/>
      <point x="371.53999999999996" y="531.98" type="line"/>
      <point x="340.0" y="543.98"/>
      <point x="314.0" y="555.64"/>
      <point x="289.8" y="556.9799999999999" type="curve"/>
      <point x="289.8" y="685.0" type="line"/>
      <point x="189.56" y="685.0" type="line"/>
      <point x="189.56" y="546.98" type="line"/>
      <point x="104.50000000000001" y="512.1"/>
      <point x="63.5" y="415.22"/>
      <point x="63.5" y="295.6" type="curve" smooth="yes"/>
      <point x="63.5" y="184.34"/>
      <point x="94.22" y="76.52"/>
      <point x="189.56" y="40.63999999999999" type="curve"/>
    </contour>
  </outline>
</glyph>
<glyph name="sterling" format="2">
  <advance width="430.0"/>
  <unicode hex="00A3"/>
  <outline>
    <contour>
      <point x="85.36" y="0.0" type="curve"/>
      <point x="413.42" y="0.0" type="line"/>
      <point x="413.42" y="93.28" type="line"/>
      <point x="208.8" y="93.28" type="line"/>
      <point x="217.84" y="150.8"/>
      <point x="223.83999999999997" y="208.98"/>
      <point x="223.84000000000003" y="281.18" type="curve" smooth="yes"/>
      <point x="223.84000000000003" y="294.18" type="line"/>
      <point x="351.42" y="294.18" type="line"/>
      <point x="351.42" y="380.5" type="line"/>
      <point x="223.84000000000003" y="380.5" type="line"/>
      <point x="223.84000000000003" y="499.96" type="line"/>
      <point x="223.84000000000003" y="568.0799999999999"/>
      <point x="250.01999999999998" y="607.78"/>
      <point x="306.78" y="607.78" type="curve" smooth="yes"/>
      <point x="332.44" y="607.78"/>
      <point x="355.54" y="601.0600000000001"/>
      <point x="378.82" y="586.1" type="curve"/>
      <point x="406.02" y="680.9799999999999" type="line"/>
      <point x="383.34" y="694.0"/>
      <point x="348.3" y="706.0"/>
      <point x="304.34" y="706.0" type="curve" smooth="yes"/>
      <point x="185.36" y="706.0"/>
      <point x="113.0" y="637.38"/>
      <point x="113.0" y="502.93999999999994" type="curve" smooth="yes"/>
      <point x="113.0" y="380.5" type="line"/>
      <point x="47.6" y="380.5" type="line"/>
      <point x="47.6" y="294.18" type="line"/>
      <point x="113.0" y="294.18" type="line"/>
      <point x="113.0" y="270.58000000000004" type="line" smooth="yes"/>
      <point x="113.0" y="188.62"/>
      <point x="102.02" y="95.62"/>
    </contour>
  </outline>
</glyph>
<glyph name="currency" format="2">
  <advance width="430.0"/>
  <unicode hex="00A4"/>
  <outline>
    <contour>
      <point x="93.88" y="105.1" type="line"/>
      <point x="142.89999999999998" y="172.46" type="line"/>
      <point x="164.9" y="161.07999999999998"/>
      <point x="189.92" y="154.38"/>
      <point x="216.98" y="154.38" type="curve" smooth="yes"/>
      <point x="243.36" y="154.38"/>
      <point x="268.4" y="161.07999999999998"/>
      <point x="289.4" y="172.46" type="curve"/>
      <point x="340.08" y="105.1" type="line"/>
      <point x="412.78000000000003" y="169.8" type="line"/>
      <point x="356.40000000000003" y="247.52" type="line"/>
      <point x="364.52" y="275.88"/>
      <point x="370.88" y="310.90000000000003"/>
      <point x="370.88" y="348.98" type="curve" smooth="yes"/>
      <point x="370.88" y="387.38"/>
      <point x="365.82" y="422.1"/>
      <point x="356.40000000000003" y="451.12" type="curve"/>
      <point x="412.78000000000003" y="529.18" type="line"/>
      <point x="340.08" y="593.88" type="line"/>
      <point x="288.4" y="525.5" type="line"/>
      <point x="267.4" y="534.92"/>
      <point x="243.35999999999999" y="542.6"/>
      <point x="216.98" y="542.6" type="curve" smooth="yes"/>
      <point x="190.92" y="542.6"/>
      <point x="165.9" y="534.92"/>
      <point x="143.9" y="525.5" type="curve"/>
      <point x="93.88000000000001" y="593.88" type="line"/>
      <point x="21.18" y="529.18" type="line"/>
      <point x="77.56" y="451.12" type="line"/>
      <point x="67.48" y="423.08"/>
      <point x="62.1" y="387.38"/>
      <point x="62.1" y="348.98" type="curve" smooth="yes"/>
      <point x="62.1" y="309.92"/>
      <point x="66.48" y="276.53999999999996"/>
      <point x="76.56" y="247.52" type="curve"/>
      <point x="21.18" y="169.8" type="line"/>
    </contour>
    <contour>
      <point x="216.98" y="237.4" type="curve" smooth="yes"/>
      <point x="175.5" y="237.4"/>
      <point x="148.44" y="274.9"/>
      <point x="148.44" y="348.98" type="curve" smooth="yes"/>
      <point x="148.44" y="421.1"/>
      <point x="173.54" y="459.58"/>
      <point x="216.98" y="459.58" type="curve" smooth="yes"/>
      <point x="259.12" y="459.58"/>
      <point x="284.22" y="421.1"/>
      <point x="284.22" y="348.98" type="curve" smooth="yes"/>
      <point x="284.22" y="275.88"/>
      <point x="259.12" y="237.4"/>
    </contour>
  </outline>
</glyph>
<glyph name="yen" format="2">
  <advance width="430.0"/>
  <unicode hex="00A5"/>
  <outline>
    <contour>
      <point x="163.2" y="0.0" type="line"/>
      <point x="272.4" y="0.0" type="line"/>
      <point x="272.4" y="113.48" type="line"/>
      <point x="388.44" y="113.48" type="line"/>
      <point x="388.44" y="196.8" type="line"/>
      <point x="272.4" y="196.8" type="line"/>
      <point x="272.4" y="272.5" type="line"/>
      <point x="388.44" y="272.5" type="line"/>
      <point x="388.44" y="355.82" type="line"/>
      <point x="305.91999999999996" y="355.82" type="line"/>
      <point x="352.78" y="486.92"/>
      <point x="388.54" y="594.64"/>
      <point x="426.79999999999995" y="693.0" type="curve"/>
      <point x="321.6" y="693.0" type="line"/>
      <point x="292.21999999999997" y="598.82"/>
      <point x="250.12" y="476.44"/>
      <point x="216.98" y="391.34000000000003" type="curve"/>
      <point x="184.5" y="475.78000000000003"/>
      <point x="139.77999999999997" y="595.88"/>
      <point x="111.06" y="693.0" type="curve"/>
      <point x="2.1999999999999984" y="693.0" type="line"/>
      <point x="26.059999999999995" y="611.3"/>
      <point x="71.94000000000001" y="492.8"/>
      <point x="124.72" y="355.82" type="curve"/>
      <point x="42.2" y="355.82" type="line"/>
      <point x="42.2" y="272.5" type="line"/>
      <point x="163.2" y="272.5" type="line"/>
      <point x="163.2" y="196.8" type="line"/>
      <point x="42.2" y="196.8" type="line"/>
      <point x="42.2" y="113.48" type="line"/>
      <point x="163.2" y="113.48" type="line"/>
    </contour>
  </outline>
</glyph>
<glyph name="brokenbar" format="2">
  <advance width="284.13899999999995"/>
  <unicode hex="00A6"/>
  <outline>
    <contour>
      <point x="90.39999999999999" y="394.12" type="line"/>
      <point x="193.29999999999998" y="394.12" type="line"/>
      <point x="193.29999999999998" y="783.0" type="line"/>
      <point x="90.39999999999999" y="783.0" type="line"/>
    </contour>
    <contour>
      <point x="90.39999999999999" y="-185.0" type="line"/>
      <point x="193.29999999999998" y="-185.0" type="line"/>
      <point x="193.29999999999998" y="205.52" type="line"/>
      <point x="90.39999999999999" y="205.52" type="line"/>
    </contour>
  </outline>
</glyph>
<glyph name="section" format="2">
  <advance width="409.10049999999995"/>
  <unicode hex="00A7"/>
  <outline>
    <contour>
      <point x="176.64" y="-109.0" type="curve" smooth="yes"/>
      <point x="279.54" y="-109.0"/>
      <point x="360.34" y="-55.98"/>
      <point x="360.34" y="44.879999999999995" type="curve" smooth="yes"/>
      <point x="360.34" y="97.92"/>
      <point x="336.04" y="138.82"/>
      <point x="314.82000000000005" y="160.9" type="curve"/>
      <point x="333.54" y="185.64"/>
      <point x="372.42" y="231.36"/>
      <point x="372.42" y="301.0" type="curve" smooth="yes"/>
      <point x="372.42" y="413.18"/>
      <point x="273.20000000000005" y="450.32"/>
      <point x="252.82" y="468.88" type="curve" smooth="yes"/>
      <point x="211.02" y="492.6"/>
      <point x="165.01999999999998" y="509.4"/>
      <point x="165.01999999999998" y="569.62" type="curve"/>
      <point x="165.01999999999998" y="606.4599999999999"/>
      <point x="203.3" y="625.5799999999999"/>
      <point x="228.36" y="625.5799999999999" type="curve" smooth="yes"/>
      <point x="284.02" y="625.5799999999999"/>
      <point x="313.44" y="605.0600000000001"/>
      <point x="325.0" y="595.9799999999999" type="curve"/>
      <point x="350.9" y="678.64" type="line"/>
      <point x="338.84" y="691.1"/>
      <point x="305.42" y="710.64"/>
      <point x="224.0" y="710.64" type="curve" smooth="yes"/>
      <point x="132.12" y="710.64"/>
      <point x="61.12" y="653.1"/>
      <point x="61.12" y="562.1" type="curve" smooth="yes"/>
      <point x="61.12" y="511.12"/>
      <point x="84.10000000000001" y="479.4"/>
      <point x="101.68" y="452.08" type="curve"/>
      <point x="87.82" y="432.92"/>
      <point x="37.4" y="387.8"/>
      <point x="37.4" y="308.0" type="curve" smooth="yes"/>
      <point x="37.4" y="185.77999999999997"/>
      <point x="137.44" y="152.7"/>
      <point x="168.64000000000001" y="133.48" type="curve" smooth="yes"/>
      <point x="217.45999999999998" y="108.08"/>
      <point x="255.12" y="96.64"/>
      <point x="255.12" y="37.0" type="curve" smooth="yes"/>
      <point x="255.12" y="-5.120000000000001"/>
      <point x="210.57999999999998" y="-23.94"/>
      <point x="182.51999999999998" y="-23.94" type="curve"/>
      <point x="115.71999999999998" y="-23.94"/>
      <point x="94.38" y="-12.66"/>
      <point x="60.02" y="3.0400000000000027" type="curve"/>
      <point x="39.1" y="-78.98" type="line"/>
      <point x="64.58" y="-92.4"/>
      <point x="103.1" y="-109.0"/>
    </contour>
    <contour>
      <point x="251.06" y="200.44" type="curve"/>
      <point x="250.27999999999997" y="200.82"/>
      <point x="245.94" y="203.5"/>
      <point x="241.9" y="205.51999999999998" type="curve"/>
      <point x="205.26" y="223.98000000000002"/>
      <point x="138.3" y="243.1"/>
      <point x="138.3" y="324.52" type="curve" smooth="yes"/>
      <point x="138.3" y="364.90000000000003"/>
      <point x="148.44" y="389.2"/>
      <point x="159.12" y="413.2" type="curve"/>
      <point x="167.48" y="408.5"/>
      <point x="179.12" y="402.18"/>
      <point x="189.12" y="396.2" type="curve" smooth="yes"/>
      <point x="198.83999999999997" y="381.64"/>
      <point x="272.18" y="361.82"/>
      <point x="272.18" y="288.4" type="curve" smooth="yes"/>
      <point x="272.18" y="256.53999999999996"/>
      <point x="268.6" y="222.79999999999998"/>
    </contour>
  </outline>
</glyph>
<glyph name="dieresis" format="2">
  <advance width="314.0"/>
  <unicode hex="00A8"/>
  <outline>
    <contour>
      <point x="248.5" y="608.2" type="curve" smooth="yes"/>
      <point x="287.02" y="608.2"/>
      <point x="316.91999999999996" y="635.12"/>
      <point x="316.91999999999996" y="677.62" type="curve" smooth="yes"/>
      <point x="316.91999999999996" y="719.78"/>
      <point x="287.02" y="747.04"/>
      <point x="248.5" y="747.04" type="curve" smooth="yes"/>
      <point x="209.97999999999996" y="747.04"/>
      <point x="180.07999999999998" y="719.78"/>
      <point x="180.07999999999998" y="677.62" type="curve" smooth="yes"/>
      <point x="180.07999999999998" y="635.12"/>
      <point x="209.97999999999996" y="608.2"/>
    </contour>
    <contour>
      <point x="66.47999999999999" y="608.2" type="curve" smooth="yes"/>
      <point x="105.0" y="608.2"/>
      <point x="134.89999999999998" y="635.12"/>
      <point x="134.89999999999998" y="677.62" type="curve" smooth="yes"/>
      <point x="134.89999999999998" y="719.78"/>
      <point x="105.0" y="747.04"/>
      <point x="66.47999999999999" y="747.04" type="curve" smooth="yes"/>
      <point x="27.960000000000008" y="747.04"/>
      <point x="-1.9400000000000048" y="719.78"/>
      <point x="-1.9400000000000048" y="677.62" type="curve" smooth="yes"/>
      <point x="-1.9400000000000048" y="635.12"/>
      <point x="27.960000000000008" y="608.2"/>
    </contour>
  </outline>
</glyph>
<glyph name="copyright" format="2">
  <advance width="699.263"/>
  <unicode hex="00A9"/>
  <outline>
    <contour>
      <point x="350.12" y="-15.0" type="curve" smooth="yes"/>
      <point x="490.71999999999997" y="-15.0"/>
      <point x="644.4" y="101.58"/>
      <point x="644.4" y="349.64" type="curve"/>
      <point x="644.4" y="598.02"/>
      <point x="490.71999999999997" y="710.64"/>
      <point x="350.12" y="710.64" type="curve"/>
      <point x="208.52" y="710.64"/>
      <point x="54.5" y="598.02"/>
      <point x="54.5" y="349.64" type="curve" smooth="yes"/>
      <point x="54.5" y="101.58"/>
      <point x="208.52" y="-15.0"/>
    </contour>
    <contour>
      <point x="368.08000000000004" y="141.35999999999999" type="curve"/>
      <point x="418.4" y="141.35999999999999"/>
      <point x="454.02" y="158.54"/>
      <point x="471.62" y="169.01999999999998" type="curve"/>
      <point x="450.38" y="243.01999999999998" type="line"/>
      <point x="441.78000000000003" y="237.22000000000003"/>
      <point x="414.4" y="221.02"/>
      <point x="373.38" y="221.02" type="curve" smooth="yes"/>
      <point x="326.53999999999996" y="221.02"/>
      <point x="295.78000000000003" y="260.5"/>
      <point x="295.78000000000003" y="348.0" type="curve" smooth="yes"/>
      <point x="295.78000000000003" y="443.02"/>
      <point x="327.82" y="475.96"/>
      <point x="366.46" y="475.96" type="curve" smooth="yes"/>
      <point x="406.5" y="475.96"/>
      <point x="429.62" y="460.08000000000004"/>
      <point x="444.40000000000003" y="452.98" type="curve"/>
      <point x="466.62" y="525.02" type="line"/>
      <point x="450.02" y="535.18"/>
      <point x="415.06" y="555.62"/>
      <point x="365.08" y="555.62" type="curve" smooth="yes"/>
      <point x="275.62" y="555.62"/>
      <point x="205.18" y="492.4"/>
      <point x="205.18" y="348.0" type="curve" smooth="yes"/>
      <point x="205.18" y="207.2"/>
      <point x="274.97999999999996" y="141.35999999999999"/>
    </contour>
    <contour>
      <point x="350.12" y="66.94" type="curve" smooth="yes"/>
      <point x="233.5" y="66.94"/>
      <point x="145.06" y="170.8"/>
      <point x="145.06" y="349.64" type="curve"/>
      <point x="145.06" y="528.12"/>
      <point x="233.82" y="628.6999999999999"/>
      <point x="350.12" y="628.6999999999999" type="curve" smooth="yes"/>
      <point x="467.70000000000005" y="628.6999999999999"/>
      <point x="554.18" y="526.48"/>
      <point x="554.18" y="349.64" type="curve"/>
      <point x="554.18" y="169.82"/>
      <point x="466.06" y="66.94"/>
    </contour>
  </outline>
</glyph>
<glyph name="ordfeminine" format="2">
  <advance width="320.402"/>
  <unicode hex="00AA"/>
  <outline>
    <contour>
      <point x="156.12" y="326.38000000000005" type="curve" smooth="yes"/>
      <point x="202.98000000000002" y="326.38000000000005"/>
      <point x="245.54000000000002" y="334.38"/>
      <point x="276.78000000000003" y="343.36" type="curve"/>
      <point x="276.78000000000003" y="586.6" type="line" smooth="yes"/>
      <point x="276.78000000000003" y="641.22"/>
      <point x="249.44" y="708.62"/>
      <point x="156.6" y="708.62" type="curve" smooth="yes"/>
      <point x="108.58000000000001" y="708.62"/>
      <point x="73.6" y="695.36"/>
      <point x="57.18" y="689.64" type="curve"/>
      <point x="69.11999999999999" y="614.96" type="line"/>
      <point x="86.46" y="624.94"/>
      <point x="119.0" y="631.94"/>
      <point x="149.54000000000002" y="631.94" type="curve" smooth="yes"/>
      <point x="200.39999999999998" y="631.94"/>
      <point x="194.48" y="585.38"/>
      <point x="194.48" y="564.72" type="curve" smooth="yes"/>
      <point x="194.48" y="557.52" type="line"/>
      <point x="178.17999999999998" y="559.88"/>
      <point x="167.08" y="561.88"/>
      <point x="158.92" y="561.88" type="curve" smooth="yes"/>
      <point x="100.82" y="561.88"/>
      <point x="26.199999999999996" y="533.8"/>
      <point x="26.199999999999996" y="444.0" type="curve" smooth="yes"/>
      <point x="26.199999999999996" y="364.02"/>
      <point x="91.88" y="326.38000000000005"/>
    </contour>
    <contour>
      <point x="165.64000000000001" y="399.40000000000003" type="curve" smooth="yes"/>
      <point x="124.00000000000001" y="399.40000000000003"/>
      <point x="109.82" y="414.44"/>
      <point x="109.82" y="447.59999999999997" type="curve" smooth="yes"/>
      <point x="109.82" y="487.98"/>
      <point x="151.94" y="490.18"/>
      <point x="161.64000000000001" y="490.18" type="curve" smooth="yes"/>
      <point x="182.52" y="490.18"/>
      <point x="204.04" y="486.21999999999997"/>
      <point x="194.48" y="487.47999999999996" type="curve"/>
      <point x="194.48" y="403.42" type="line"/>
      <point x="192.98" y="401.4"/>
      <point x="180.62" y="399.40000000000003"/>
    </contour>
  </outline>
</glyph>
<glyph name="logicalnot" format="2">
  <advance width="430.0"/>
  <unicode hex="00AC"/>
  <outline>
    <contour>
      <point x="277.96" y="129.39999999999998" type="line"/>
      <point x="370.6" y="129.39999999999998" type="line"/>
      <point x="370.6" y="398.90000000000003" type="line"/>
      <point x="20.38" y="398.90000000000003" type="line"/>
      <point x="20.38" y="306.94" type="line"/>
      <point x="277.96" y="306.94" type="line"/>
    </contour>
  </outline>
</glyph>
<glyph name="registered" format="2">
  <advance width="699.263"/>
  <unicode hex="00AE"/>
  <outline>
    <contour>
      <point x="350.12" y="-15.0" type="curve" smooth="yes"/>
      <point x="490.71999999999997" y="-15.0"/>
      <point x="644.4" y="101.58"/>
      <point x="644.4" y="349.64" type="curve" smooth="yes"/>
      <point x="644.4" y="598.02"/>
      <point x="490.71999999999997" y="710.64"/>
      <point x="350.12" y="710.64" type="curve" smooth="yes"/>
      <point x="208.52" y="710.64"/>
      <point x="54.5" y="598.02"/>
      <point x="54.5" y="349.64" type="curve" smooth="yes"/>
      <point x="54.5" y="101.58"/>
      <point x="208.52" y="-15.0"/>
    </contour>
    <contour>
      <point x="350.12" y="66.94" type="curve" smooth="yes"/>
      <point x="233.5" y="66.94"/>
      <point x="145.06" y="170.8"/>
      <point x="145.06" y="349.64" type="curve" smooth="yes"/>
      <point x="145.06" y="528.12"/>
      <point x="233.82" y="628.6999999999999"/>
      <point x="350.12" y="628.6999999999999" type="curve" smooth="yes"/>
      <point x="467.70000000000005" y="628.6999999999999"/>
      <point x="554.18" y="526.48"/>
      <point x="554.18" y="349.64" type="curve" smooth="yes"/>
      <point x="554.18" y="169.82"/>
      <point x="466.06" y="66.94"/>
    </contour>
    <contour>
      <point x="230.98000000000002" y="150.0" type="line"/>
      <point x="314.64" y="150.0" type="line"/>
      <point x="314.64" y="293.12" type="line"/>
      <point x="322.78" y="293.12" type="line"/>
      <point x="325.78000000000003" y="293.12"/>
      <point x="330.08" y="293.12"/>
      <point x="335.70000000000005" y="294.1" type="curve"/>
      <point x="353.71999999999997" y="267.36"/>
      <point x="386.0" y="208.07999999999998"/>
      <point x="407.71999999999997" y="150.0" type="curve"/>
      <point x="494.36" y="150.0" type="line"/>
      <point x="486.5" y="194.56"/>
      <point x="421.71999999999997" y="306.72"/>
      <point x="417.98" y="313.38" type="curve"/>
      <point x="457.64" y="337.02"/>
      <point x="478.0" y="375.97999999999996"/>
      <point x="478.0" y="418.38" type="curve" smooth="yes"/>
      <point x="478.0" y="506.0"/>
      <point x="425.1" y="549.64"/>
      <point x="331.48" y="549.64" type="curve" smooth="yes"/>
      <point x="304.18" y="549.64"/>
      <point x="264.6" y="544.64"/>
      <point x="230.98000000000002" y="534.0" type="curve"/>
    </contour>
    <contour>
      <point x="314.64" y="359.54" type="line"/>
      <point x="314.64" y="478.2" type="line"/>
      <point x="322.02" y="477.55999999999995"/>
      <point x="329.40000000000003" y="478.55999999999995"/>
      <point x="341.38" y="478.55999999999995" type="curve" smooth="yes"/>
      <point x="354.15999999999997" y="478.55999999999995"/>
      <point x="389.71999999999997" y="470.36"/>
      <point x="389.71999999999997" y="418.38" type="curve" smooth="yes"/>
      <point x="389.71999999999997" y="362.08"/>
      <point x="354.8" y="359.54"/>
      <point x="309.56" y="359.54" type="curve" smooth="yes"/>
    </contour>
  </outline>
</glyph>
<glyph name="macron" format="2">
  <advance width="314.76550000000003"/>
  <unicode hex="00AF"/>
  <outline>
    <contour>
      <point x="41.5" y="634.1800000000001" type="line"/>
      <point x="272.8" y="634.1800000000001" type="line"/>
      <point x="272.8" y="719.5" type="line"/>
      <point x="41.5" y="719.5" type="line"/>
    </contour>
  </outline>
</glyph>
<glyph name="degree" format="2">
  <advance width="301.268"/>
  <unicode hex="00B0"/>
  <outline>
    <contour>
      <point x="150.54000000000002" y="507.22" type="curve"/>
      <point x="212.9" y="507.22"/>
      <point x="280.02000000000004" y="553.2"/>
      <point x="280.02000000000004" y="633.4000000000001" type="curve"/>
      <point x="280.02000000000004" y="716.88"/>
      <point x="213.88000000000002" y="759.92"/>
      <point x="150.54000000000002" y="759.92" type="curve" smooth="yes"/>
      <point x="88.5" y="759.92"/>
      <point x="21.38" y="714.6"/>
      <point x="21.38" y="633.4000000000001" type="curve" smooth="yes"/>
      <point x="21.38" y="550.58"/>
      <point x="87.52" y="507.22"/>
    </contour>
    <contour>
      <point x="150.54000000000002" y="579.6" type="curve"/>
      <point x="123.44000000000001" y="579.6"/>
      <point x="98.42" y="598.0200000000001"/>
      <point x="98.42" y="633.4000000000001" type="curve" smooth="yes"/>
      <point x="98.42" y="669.1199999999999"/>
      <point x="123.44000000000001" y="688.1999999999999"/>
      <point x="150.54000000000002" y="688.1999999999999" type="curve"/>
      <point x="177.64" y="688.1999999999999"/>
      <point x="202.98" y="669.1199999999999"/>
      <point x="202.98" y="633.4000000000001" type="curve" smooth="yes"/>
      <point x="202.98" y="598.0200000000001"/>
      <point x="177.64" y="579.6"/>
    </contour>
  </outline>
</glyph>
<glyph name="plusminus" format="2">
  <advance width="430.0"/>
  <unicode hex="00B1"/>
  <outline>
    <contour>
      <point x="169.17999999999998" y="124.0" type="line"/>
      <point x="260.82" y="124.0" type="line"/>
      <point x="260.82" y="259.20000000000005" type="line"/>
      <point x="389.62" y="259.20000000000005" type="line"/>
      <point x="389.62" y="351.8" type="line"/>
      <point x="260.82" y="351.8" type="line"/>
      <point x="260.82" y="486.0" type="line"/>
      <point x="169.17999999999998" y="486.0" type="line"/>
      <point x="169.17999999999998" y="351.8" type="line"/>
      <point x="40.38" y="351.8" type="line"/>
      <point x="40.38" y="259.20000000000005" type="line"/>
      <point x="169.17999999999998" y="259.20000000000005" type="line"/>
    </contour>
    <contour>
      <point x="40.38" y="-27.42" type="line"/>
      <point x="389.62" y="-27.42" type="line"/>
      <point x="389.62" y="65.51999999999998" type="line"/>
      <point x="40.38" y="65.51999999999998" type="line"/>
    </contour>
  </outline>
</glyph>
<glyph name="twosuperior" format="2">
  <advance width="280.0"/>
  <unicode hex="00B2"/>
  <outline>
    <contour>
      <point x="26.479999999999997" y="304.36" type="curve"/>
      <point x="252.82" y="304.36" type="line"/>
      <point x="252.82" y="386.04" type="line"/>
      <point x="131.05999999999997" y="386.04" type="line"/>
      <point x="135.44" y="393.08"/>
      <point x="146.61999999999998" y="412.22"/>
      <point x="164.62" y="434.21999999999997" type="curve"/>
      <point x="187.11999999999998" y="465.68"/>
      <point x="247.82" y="514.0"/>
      <point x="247.82" y="590.1" type="curve"/>
      <point x="247.82" y="662.9"/>
      <point x="202.5" y="700.64"/>
      <point x="132.0" y="700.64" type="curve" smooth="yes"/>
      <point x="81.6" y="700.64"/>
      <point x="45.99999999999999" y="679.46"/>
      <point x="23.5" y="661.3599999999999" type="curve"/>
      <point x="62.0" y="596.6" type="line"/>
      <point x="62.699999999999996" y="595.5600000000001"/>
      <point x="95.18" y="621.6"/>
      <point x="121.38" y="621.6" type="curve" smooth="yes"/>
      <point x="136.56" y="621.6"/>
      <point x="160.17999999999998" y="617.38"/>
      <point x="160.17999999999998" y="585.38" type="curve" smooth="yes"/>
      <point x="160.17999999999998" y="547.22"/>
      <point x="126.8" y="517.94"/>
      <point x="107.47999999999999" y="489.0" type="curve" smooth="yes"/>
      <point x="104.80000000000001" y="471.46000000000004"/>
      <point x="25.499999999999996" y="406.06"/>
      <point x="25.499999999999996" y="325.62" type="curve" smooth="yes"/>
      <point x="25.499999999999996" y="317.98"/>
      <point x="25.499999999999996" y="312.0"/>
    </contour>
  </outline>
</glyph>
<glyph name="threesuperior" format="2">
  <advance width="280.0"/>
  <unicode hex="00B3"/>
  <outline>
    <contour>
      <point x="105.11999999999999" y="297.36" type="curve" smooth="yes"/>
      <point x="214.34" y="297.36"/>
      <point x="248.54000000000002" y="360.88"/>
      <point x="248.54000000000002" y="419.6" type="curve" smooth="yes"/>
      <point x="248.54000000000002" y="466.52"/>
      <point x="221.62" y="499.6"/>
      <point x="200.04" y="514.0" type="curve"/>
      <point x="221.8" y="538.6"/>
      <point x="237.54" y="560.02"/>
      <point x="237.54" y="601.36" type="curve" smooth="yes"/>
      <point x="237.54" y="647.38"/>
      <point x="209.4" y="700.64"/>
      <point x="116.08" y="700.64" type="curve" smooth="yes"/>
      <point x="66.69999999999999" y="700.64"/>
      <point x="31.800000000000004" y="679.48"/>
      <point x="17.2" y="667.0" type="curve"/>
      <point x="47.400000000000006" y="600.5799999999999" type="line"/>
      <point x="62.19999999999999" y="608.7"/>
      <point x="78.6" y="623.5799999999999"/>
      <point x="111.08" y="623.5799999999999" type="curve" smooth="yes"/>
      <point x="135.18" y="623.5799999999999"/>
      <point x="154.20000000000002" y="616.12"/>
      <point x="154.20000000000002" y="585.12" type="curve" smooth="yes"/>
      <point x="154.20000000000002" y="543.46"/>
      <point x="105.78" y="543.9"/>
      <point x="101.08" y="543.9" type="curve" smooth="yes"/>
      <point x="71.12" y="543.9" type="line"/>
      <point x="71.12" y="471.18" type="line"/>
      <point x="97.08" y="471.18" type="line" smooth="yes"/>
      <point x="114.1" y="471.18"/>
      <point x="160.56" y="465.6"/>
      <point x="160.56" y="422.6" type="curve" smooth="yes"/>
      <point x="160.56" y="401.04"/>
      <point x="147.0" y="376.4"/>
      <point x="107.08" y="376.4" type="curve" smooth="yes"/>
      <point x="71.94" y="376.4"/>
      <point x="53.58" y="386.34000000000003"/>
      <point x="40.4" y="397.4" type="curve"/>
      <point x="17.46" y="323.02" type="line"/>
      <point x="35.96" y="311.59999999999997"/>
      <point x="62.7" y="297.36"/>
    </contour>
  </outline>
</glyph>
<glyph name="acute" format="2">
  <advance width="314.0"/>
  <unicode hex="00B4"/>
  <outline>
    <contour>
      <point x="161.44" y="569.58" type="line"/>
      <point x="294.82" y="706.72" type="line"/>
      <point x="216.18" y="778.0" type="line"/>
      <point x="104.38" y="622.92" type="line"/>
    </contour>
  </outline>
</glyph>
<glyph name="mu" format="2">
  <advance width="493.6985"/>
  <unicode hex="00B5"/>
  <outline>
    <contour>
      <point x="73.1" y="-185.0" type="line"/>
      <point x="183.28" y="-185.0" type="line"/>
      <point x="183.28" y="-122.39999999999999" type="line" smooth="yes"/>
      <point x="183.28" y="-80.28"/>
      <point x="181.28" y="-34.32"/>
      <point x="174.04" y="6.719999999999997" type="curve"/>
      <point x="197.42" y="-5.92"/>
      <point x="225.92000000000002" y="-11.0"/>
      <point x="271.02" y="-11.0" type="curve" smooth="yes"/>
      <point x="334.46000000000004" y="-11.0"/>
      <point x="403.44" y="8.88"/>
      <point x="420.78000000000003" y="13.36" type="curve"/>
      <point x="420.78000000000003" y="528.6" type="line"/>
      <point x="308.96" y="528.6" type="line"/>
      <point x="308.96" y="88.04" type="line"/>
      <point x="304.92" y="88.89999999999999"/>
      <point x="293.4" y="87.22"/>
      <point x="267.5" y="87.22" type="curve" smooth="yes"/>
      <point x="208.4" y="87.22"/>
      <point x="184.92" y="117.04"/>
      <point x="184.92" y="211.82000000000002" type="curve" smooth="yes"/>
      <point x="184.92" y="528.6" type="line"/>
      <point x="73.1" y="528.6" type="line"/>
    </contour>
  </outline>
</glyph>
<glyph name="paragraph" format="2">
  <advance width="557.3014999999999"/>
  <unicode hex="00B6"/>
  <outline>
    <contour>
      <point x="206.18" y="-185.0" type="line"/>
      <point x="295.82" y="-185.0" type="line"/>
      <point x="295.82" y="608.6999999999999" type="line"/>
      <point x="304.6" y="611.6999999999999"/>
      <point x="360.34" y="607.7"/>
      <point x="367.82" y="605.7" type="curve"/>
      <point x="367.82" y="-185.0" type="line"/>
      <point x="458.46" y="-185.0" type="line"/>
      <point x="458.46" y="678.38" type="line"/>
      <point x="402.32000000000005" y="697.62"/>
      <point x="333.64000000000004" y="701.6400000000001"/>
      <point x="291.61999999999995" y="701.6400000000001" type="curve" smooth="yes"/>
      <point x="117.06" y="701.6400000000001"/>
      <point x="38.38" y="616.5"/>
      <point x="38.38" y="480.0" type="curve" smooth="yes"/>
      <point x="38.38" y="347.48"/>
      <point x="107.61999999999999" y="282.98"/>
      <point x="206.18" y="262.36" type="curve"/>
    </contour>
  </outline>
</glyph>
<glyph name="cedilla" format="2">
  <advance width="314.0"/>
  <unicode hex="00B8"/>
  <outline>
    <contour>
      <point x="122.0" y="-190.64" type="curve" smooth="yes"/>
      <point x="199.94" y="-190.64"/>
      <point x="232.54" y="-150.2"/>
      <point x="232.54" y="-108.02000000000001" type="curve" smooth="yes"/>
      <point x="232.54" y="-73.10000000000001"/>
      <point x="215.92000000000002" y="-53.019999999999996"/>
      <point x="180.52" y="-40.0" type="curve"/>
      <point x="183.62" y="-29.82"/>
      <point x="203.79999999999998" y="9.92"/>
      <point x="209.52" y="20.0" type="curve"/>
      <point x="136.1" y="20.0" type="line"/>
      <point x="126.08000000000001" y="5.62"/>
      <point x="100.2" y="-47.5"/>
      <point x="92.48" y="-78.5" type="curve"/>
      <point x="122.99999999999999" y="-86.5"/>
      <point x="135.98000000000002" y="-91.92"/>
      <point x="135.98000000000002" y="-101.36" type="curve" smooth="yes"/>
      <point x="135.98" y="-115.49999999999999"/>
      <point x="121.22" y="-118.56"/>
      <point x="108.0" y="-118.56" type="curve" smooth="yes"/>
      <point x="83.17999999999999" y="-118.56"/>
      <point x="70.46" y="-114.56"/>
      <point x="57.459999999999994" y="-110.58" type="curve"/>
      <point x="45.17999999999999" y="-178.0" type="line"/>
      <point x="61.94" y="-185.01999999999998"/>
      <point x="98.08" y="-190.64"/>
    </contour>
  </outline>
</glyph>
<glyph name="onesuperior" format="2">
  <advance width="280.0"/>
  <unicode hex="00B9"/>
  <outline>
    <contour>
      <point x="116.48" y="304.36" type="line"/>
      <point x="204.78" y="304.36" type="line"/>
      <point x="204.78" y="695.62" type="line"/>
      <point x="141.36" y="695.62" type="line"/>
      <point x="118.52000000000001" y="674.0200000000001"/>
      <point x="66.10000000000001" y="630.98"/>
      <point x="25.46" y="611.62" type="curve"/>
      <point x="55.400000000000006" y="547.1800000000001" type="line"/>
      <point x="62.7" y="549.96"/>
      <point x="93.5" y="563.94"/>
      <point x="116.48" y="577.68" type="curve"/>
    </contour>
  </outline>
</glyph>
<glyph name="ordmasculine" format="2">
  <advance width="373.1005"/>
  <unicode hex="00BA"/>
  <outline>
    <contour>
      <point x="185.92" y="330.36" type="curve" smooth="yes"/>
      <point x="272.5" y="330.36"/>
      <point x="334.44" y="391.40000000000003"/>
      <point x="334.44" y="521.98" type="curve" smooth="yes"/>
      <point x="334.44" y="655.88"/>
      <point x="272.82000000000005" y="713.6"/>
      <point x="185.92" y="713.6" type="curve" smooth="yes"/>
      <point x="100.0" y="713.6"/>
      <point x="38.38" y="655.88"/>
      <point x="38.38" y="521.98" type="curve" smooth="yes"/>
      <point x="38.38" y="390.40000000000003"/>
      <point x="100.98" y="330.36"/>
    </contour>
    <contour>
      <point x="185.92" y="410.02000000000004" type="curve" smooth="yes"/>
      <point x="149.42" y="410.02000000000004"/>
      <point x="130.94" y="439.90000000000003"/>
      <point x="130.94" y="521.98" type="curve" smooth="yes"/>
      <point x="130.94" y="605.4"/>
      <point x="149.44" y="633.94"/>
      <point x="185.92" y="633.94" type="curve" smooth="yes"/>
      <point x="226.01999999999998" y="633.94"/>
      <point x="242.22" y="605.0799999999999"/>
      <point x="242.22" y="521.98" type="curve" smooth="yes"/>
      <point x="242.22" y="439.90000000000003"/>
      <point x="223.4" y="410.02000000000004"/>
    </contour>
  </outline>
</glyph>
<glyph name="questiondown" format="2">
  <advance width="363.603"/>
  <unicode hex="00BF"/>
  <outline>
    <contour>
      <point x="201.52" y="-188.0" type="curve" smooth="yes"/>
      <point x="270.84" y="-188.0"/>
      <point x="312.18" y="-165.12"/>
      <point x="349.18" y="-141.1" type="curve"/>
      <point x="309.3" y="-56.8" type="line"/>
      <point x="277.8" y="-78.72"/>
      <point x="256.02" y="-92.06"/>
      <point x="215.44" y="-92.06" type="curve" smooth="yes"/>
      <point x="183.7" y="-92.06"/>
      <point x="146.82" y="-77.38"/>
      <point x="146.82" y="-29.900000000000002" type="curve"/>
      <point x="146.82" y="84.96000000000001"/>
      <point x="266.03999999999996" y="141.32"/>
      <point x="266.03999999999996" y="242.8" type="curve" smooth="yes"/>
      <point x="266.03999999999996" y="256.15999999999997"/>
      <point x="266.02000000000004" y="262.64"/>
      <point x="264.02000000000004" y="275.64" type="curve"/>
      <point x="170.0" y="275.64" type="line"/>
      <point x="169.36" y="276.82"/>
      <point x="169.36" y="285.48"/>
      <point x="169.36" y="286.0" type="curve" smooth="yes"/>
      <point x="169.36" y="153.51999999999998"/>
      <point x="26.0" y="98.55999999999999"/>
      <point x="26.0" y="-36.900000000000006" type="curve" smooth="yes"/>
      <point x="26.0" y="-94.06"/>
      <point x="51.779999999999994" y="-188.0"/>
    </contour>
    <contour>
      <point x="205.64" y="388.26" type="curve" smooth="yes"/>
      <point x="252.42000000000004" y="388.26"/>
      <point x="282.3" y="424.1"/>
      <point x="282.3" y="462.94" type="curve" smooth="yes"/>
      <point x="282.3" y="502.46"/>
      <point x="253.40000000000003" y="538.64"/>
      <point x="205.64" y="538.64" type="curve" smooth="yes"/>
      <point x="158.20000000000002" y="538.64"/>
      <point x="129.96" y="502.46"/>
      <point x="129.96" y="462.94" type="curve" smooth="yes"/>
      <point x="129.96" y="424.1"/>
      <point x="159.18" y="388.26"/>
    </contour>
  </outline>
</glyph>
<glyph name="Aring" format="2">
  <advance width="523.072"/>
  <unicode hex="00C5"/>
  <outline>
    <contour>
      <point x="16.4" y="0.0" type="curve"/>
      <point x="131.18" y="0.0" type="line"/>
      <point x="140.20000000000002" y="60.0"/>
      <point x="149.9" y="114.1"/>
      <point x="160.28" y="165.56" type="curve"/>
      <point x="359.0" y="165.56" type="line"/>
      <point x="367.4" y="114.1"/>
      <point x="376.12" y="60.0"/>
      <point x="387.12" y="0.0" type="curve"/>
      <point x="506.19999999999993" y="0.0" type="line"/>
      <point x="411.6" y="376.48"/>
      <point x="406.88" y="442.76"/>
      <point x="330.82000000000005" y="670.0799999999999" type="curve"/>
      <point x="346.22" y="689.0"/>
      <point x="352.34000000000003" y="715.6"/>
      <point x="352.34000000000003" y="737.4" type="curve" smooth="yes"/>
      <point x="352.34000000000003" y="796.6"/>
      <point x="308.44" y="828.62"/>
      <point x="259.82" y="828.62" type="curve" smooth="yes"/>
      <point x="213.5" y="828.62"/>
      <point x="169.6" y="794.64"/>
      <point x="169.6" y="737.4" type="curve" smooth="yes"/>
      <point x="169.6" y="714.6"/>
      <point x="174.4" y="688.0"/>
      <point x="191.12" y="669.0799999999999" type="curve"/>
      <point x="132.4" y="488.82000000000005"/>
      <point x="71.46" y="266.96000000000004"/>
    </contour>
    <contour>
      <point x="183.82000000000002" y="260.5" type="line"/>
      <point x="196.78" y="344.16"/>
      <point x="243.79999999999998" y="497.02"/>
      <point x="259.8" y="560.28" type="curve"/>
      <point x="277.12" y="487.53999999999996"/>
      <point x="317.6" y="350.70000000000005"/>
      <point x="333.47999999999996" y="260.5" type="curve"/>
    </contour>
    <contour>
      <point x="260.79999999999995" y="697.38" type="curve" smooth="yes"/>
      <point x="241.42000000000002" y="697.38"/>
      <point x="221.78" y="709.12"/>
      <point x="221.78" y="737.4" type="curve" smooth="yes"/>
      <point x="221.78" y="765.36"/>
      <point x="239.78" y="778.08"/>
      <point x="260.79999999999995" y="778.08" type="curve" smooth="yes"/>
      <point x="282.8" y="778.08"/>
      <point x="300.8" y="765.36"/>
      <point x="300.8" y="737.4" type="curve" smooth="yes"/>
      <point x="300.8" y="709.12"/>
      <point x="282.8" y="697.38"/>
    </contour>
  </outline>
</glyph>
<glyph name="AE" format="2">
  <advance width="751.3685"/>
  <unicode hex="00C6"/>
  <anchor x="376.44" y="0.0" name="bottom"/>
  <anchor x="376.44" y="693.0" name="top"/>
  <outline>
    <contour>
      <point x="-0.6200000000000001" y="0.0" type="curve"/>
      <point x="111.22000000000001" y="0.0" type="line"/>
      <point x="124.01999999999998" y="47.2"/>
      <point x="144.4" y="105.56"/>
      <point x="167.42" y="165.56" type="curve"/>
      <point x="363.54" y="165.56" type="line"/>
      <point x="363.54" y="0.0" type="line"/>
      <point x="710.8" y="0.0" type="line"/>
      <point x="710.8" y="97.92000000000002" type="line"/>
      <point x="479.36" y="97.92000000000002" type="line"/>
      <point x="479.36" y="316.2" type="line"/>
      <point x="674.4599999999999" y="316.2" type="line"/>
      <point x="674.4599999999999" y="410.79999999999995" type="line"/>
      <point x="479.36" y="410.79999999999995" type="line"/>
      <point x="479.36" y="595.08" type="line"/>
      <point x="695.46" y="595.08" type="line"/>
      <point x="695.46" y="693.0" type="line"/>
      <point x="303.22" y="693.0" type="line"/>
      <point x="223.94000000000003" y="529.34"/>
      <point x="82.97999999999999" y="249.3"/>
    </contour>
    <contour>
      <point x="210.18" y="260.5" type="line"/>
      <point x="255.34" y="371.08"/>
      <point x="314.34" y="499.0"/>
      <point x="363.54" y="598.5999999999999" type="curve"/>
      <point x="363.54" y="260.5" type="line"/>
    </contour>
  </outline>
</glyph>
<glyph name="Ccedilla" format="2">
  <advance width="478.86600000000004"/>
  <unicode hex="00C7"/>
  <outline>
    <contour>
      <point x="249.89999999999998" y="-190.64" type="curve" smooth="yes"/>
      <point x="327.84000000000003" y="-190.64"/>
      <point x="360.44" y="-150.2"/>
      <point x="360.44" y="-108.02000000000001" type="curve" smooth="yes"/>
      <point x="360.44" y="-73.10000000000001"/>
      <point x="343.82" y="-53.019999999999996"/>
      <point x="308.41999999999996" y="-40.0" type="curve"/>
      <point x="310.78" y="-34.62"/>
      <point x="311.82" y="-26.6"/>
      <point x="315.82" y="-19.9" type="curve"/>
      <point x="307.02" y="-18.92"/>
      <point x="305.38" y="-18.92"/>
      <point x="303.12" y="-18.92" type="curve" smooth="yes"/>
      <point x="402.73999999999995" y="-18.92"/>
      <point x="458.64" y="13.5"/>
      <point x="467.4" y="28.020000000000003" type="curve"/>
      <point x="434.88" y="121.89999999999999" type="line"/>
      <point x="414.32" y="103.84000000000002"/>
      <point x="386.94" y="82.3"/>
      <point x="312.02000000000004" y="82.3" type="curve" smooth="yes"/>
      <point x="202.9" y="82.3"/>
      <point x="175.84000000000003" y="177.82"/>
      <point x="175.84000000000003" y="358.64" type="curve" smooth="yes"/>
      <point x="175.84000000000003" y="533.18"/>
      <point x="197.98000000000002" y="611.7"/>
      <point x="307.9" y="611.7" type="curve" smooth="yes"/>
      <point x="366.03999999999996" y="611.7"/>
      <point x="394.82" y="588.1999999999999"/>
      <point x="421.92" y="569.82" type="curve"/>
      <point x="456.44000000000005" y="669.0" type="line"/>
      <point x="440.46000000000004" y="681.2"/>
      <point x="379.92" y="712.92"/>
      <point x="295.12" y="712.92" type="curve" smooth="yes"/>
      <point x="175.06" y="712.92"/>
      <point x="51.4" y="634.9399999999999"/>
      <point x="51.4" y="357.0" type="curve" smooth="yes"/>
      <point x="51.4" y="123.57999999999998"/>
      <point x="127.9" y="14.08"/>
      <point x="245.38000000000002" y="-12.92" type="curve"/>
      <point x="235.4" y="-33.88"/>
      <point x="224.10000000000002" y="-59.81999999999999"/>
      <point x="220.38000000000002" y="-78.5" type="curve"/>
      <point x="251.55999999999997" y="-86.5"/>
      <point x="264.22" y="-91.92"/>
      <point x="264.21999999999997" y="-101.36" type="curve" smooth="yes"/>
      <point x="264.22" y="-115.49999999999999"/>
      <point x="249.11999999999998" y="-118.56"/>
      <point x="235.9" y="-118.56" type="curve" smooth="yes"/>
      <point x="211.07999999999998" y="-118.56"/>
      <point x="198.36" y="-114.56"/>
      <point x="185.35999999999999" y="-110.58" type="curve"/>
      <point x="173.07999999999998" y="-178.0" type="line"/>
      <point x="190.17999999999998" y="-185.01999999999998"/>
      <point x="225.98" y="-190.64"/>
    </contour>
  </outline>
</glyph>
<glyph name="Eth" format="2">
  <advance width="594.201"/>
  <unicode hex="00D0"/>
  <outline>
    <contour>
      <point x="241.06" y="-8.64" type="curve" smooth="yes"/>
      <point x="411.52" y="-8.64"/>
      <point x="542.9" y="80.58"/>
      <point x="542.9" y="347.0" type="curve" smooth="yes"/>
      <point x="542.9" y="613.42"/>
      <point x="409.88" y="702.6400000000001"/>
      <point x="247.9" y="702.6400000000001" type="curve" smooth="yes"/>
      <point x="202.92000000000002" y="702.6400000000001"/>
      <point x="152.3" y="695.64"/>
      <point x="89.54" y="682.02" type="curve"/>
      <point x="89.54" y="388.82" type="line"/>
      <point x="10.1" y="388.82" type="line"/>
      <point x="10.1" y="305.5" type="line"/>
      <point x="89.54" y="305.5" type="line"/>
      <point x="89.54" y="11.0" type="line"/>
      <point x="146.42000000000002" y="-3.62"/>
      <point x="196.06" y="-8.64"/>
    </contour>
    <contour>
      <point x="249.92" y="92.28000000000002" type="curve" smooth="yes"/>
      <point x="212.98000000000002" y="92.28000000000002"/>
      <point x="206.4" y="95.9"/>
      <point x="205.36" y="95.3" type="curve"/>
      <point x="205.36" y="305.5" type="line"/>
      <point x="301.92" y="305.5" type="line"/>
      <point x="301.92" y="388.82" type="line"/>
      <point x="205.36" y="388.82" type="line"/>
      <point x="205.36" y="599.68" type="line"/>
      <point x="206.4" y="599.08"/>
      <point x="206.12" y="601.72"/>
      <point x="258.44" y="601.72" type="curve" smooth="yes"/>
      <point x="377.78" y="601.72"/>
      <point x="418.46000000000004" y="520.7"/>
      <point x="418.46000000000004" y="347.0" type="curve" smooth="yes"/>
      <point x="418.46000000000004" y="168.06"/>
      <point x="376.79999999999995" y="92.28000000000002"/>
    </contour>
  </outline>
</glyph>
<glyph name="multiply" format="2">
  <advance width="430.0"/>
  <unicode hex="00D7"/>
  <outline>
    <contour>
      <point x="105.64" y="127.18" type="line"/>
      <point x="215.0" y="235.55999999999997" type="line"/>
      <point x="324.36" y="127.18" type="line"/>
      <point x="388.78" y="191.92" type="line"/>
      <point x="279.42" y="299.0" type="line"/>
      <point x="388.78" y="405.1" type="line"/>
      <point x="324.36" y="470.5" type="line"/>
      <point x="215.0" y="362.44" type="line"/>
      <point x="105.64" y="470.5" type="line"/>
      <point x="41.22" y="405.1" type="line"/>
      <point x="151.55999999999997" y="299.0" type="line"/>
      <point x="41.22" y="191.92" type="line"/>
    </contour>
  </outline>
</glyph>
<glyph name="Oslash" format="2">
  <advance width="616.737"/>
  <unicode hex="00D8"/>
  <anchor x="308.88" y="0.0" name="bottom"/>
  <anchor x="308.88" y="693.0" name="top"/>
  <outline>
    <contour>
      <point x="130.78" y="-37.64" type="line"/>
      <point x="166.54000000000002" y="26.479999999999997" type="line"/>
      <point x="206.79999999999998" y="-3.88"/>
      <point x="254.79999999999998" y="-18.92"/>
      <point x="308.88" y="-18.92" type="curve" smooth="yes"/>
      <point x="468.4" y="-18.92"/>
      <point x="564.04" y="113.67999999999999"/>
      <point x="564.04" y="346.98" type="curve" smooth="yes"/>
      <point x="564.04" y="454.62"/>
      <point x="546.02" y="542.0"/>
      <point x="510.28" y="602.38" type="curve"/>
      <point x="558.0600000000001" y="686.22" type="line"/>
      <point x="483.08" y="732.62" type="line"/>
      <point x="447.64" y="670.44" type="line"/>
      <point x="409.0" y="698.52"/>
      <point x="361.0" y="712.92"/>
      <point x="308.88" y="712.92" type="curve" smooth="yes"/>
      <point x="147.4" y="712.92"/>
      <point x="52.4" y="581.94"/>
      <point x="52.4" y="346.98" type="curve" smooth="yes"/>
      <point x="52.4" y="239.98000000000002"/>
      <point x="70.10000000000001" y="153.6"/>
      <point x="106.18" y="92.53999999999999" type="curve"/>
      <point x="55.480000000000004" y="7.780000000000001" type="line"/>
    </contour>
    <contour>
      <point x="177.54" y="209.8" type="line"/>
      <point x="176.3" y="250.22"/>
      <point x="176.84" y="299.02"/>
      <point x="176.84" y="346.98" type="curve" smooth="yes"/>
      <point x="176.84" y="504.2"/>
      <point x="204.78" y="611.7"/>
      <point x="308.88" y="611.7" type="curve" smooth="yes"/>
      <point x="343.36" y="611.7"/>
      <point x="368.5" y="597.9399999999999"/>
      <point x="388.58" y="574.46" type="curve"/>
    </contour>
    <contour>
      <point x="308.88" y="82.3" type="curve" smooth="yes"/>
      <point x="271.78" y="82.3"/>
      <point x="245.02" y="97.02"/>
      <point x="225.92000000000002" y="120.8" type="curve"/>
      <point x="437.62" y="484.8" type="line"/>
      <point x="440.46" y="443.72"/>
      <point x="439.6" y="397.21999999999997"/>
      <point x="439.6" y="346.98" type="curve" smooth="yes"/>
      <point x="439.6" y="190.42"/>
      <point x="413.98" y="82.3"/>
    </contour>
  </outline>
</glyph>
<glyph name="Thorn" format="2">
  <advance width="503.4355"/>
  <unicode hex="00DE"/>
  <anchor x="251.82" y="0.0" name="bottom"/>
  <anchor x="251.82" y="693.0" name="top"/>
  <outline>
    <contour>
      <point x="84.0" y="0.0" type="line"/>
      <point x="199.82000000000002" y="0.0" type="line"/>
      <point x="199.82000000000002" y="138.38" type="line"/>
      <point x="229.4" y="138.38" type="line" smooth="yes"/>
      <point x="355.36" y="138.38"/>
      <point x="471.94" y="194.48"/>
      <point x="471.94" y="366.6" type="curve" smooth="yes"/>
      <point x="471.94" y="521.98"/>
      <point x="377.3" y="592.5"/>
      <point x="232.44" y="592.5" type="curve" smooth="yes"/>
      <point x="228.20000000000002" y="592.5"/>
      <point x="205.34" y="591.5"/>
      <point x="199.82000000000002" y="591.8" type="curve"/>
      <point x="199.82000000000002" y="693.0" type="line"/>
      <point x="84.0" y="693.0" type="line"/>
    </contour>
    <contour>
      <point x="199.82000000000002" y="238.3" type="line"/>
      <point x="199.82000000000002" y="490.56" type="line"/>
      <point x="211.22000000000003" y="491.58"/>
      <point x="213.5" y="492.58"/>
      <point x="232.78" y="492.58" type="curve" smooth="yes"/>
      <point x="273.56" y="492.58"/>
      <point x="349.47999999999996" y="478.52"/>
      <point x="349.47999999999996" y="366.6" type="curve" smooth="yes"/>
      <point x="349.47999999999996" y="277.92"/>
      <point x="309.52000000000004" y="238.3"/>
      <point x="218.82" y="238.3" type="curve" smooth="yes"/>
    </contour>
  </outline>
</glyph>
<glyph name="germandbls" format="2">
  <advance width="512.7705"/>
  <unicode hex="00DF"/>
  <anchor x="256.42" y="0.0" name="bottom"/>
  <anchor x="256.42" y="776.0" name="top"/>
  <outline>
    <contour>
      <point x="303.54" y="-12.0" type="curve" smooth="yes"/>
      <point x="414.06" y="-12.0"/>
      <point x="471.94" y="61.11999999999999"/>
      <point x="471.94" y="164.0" type="curve" smooth="yes"/>
      <point x="471.94" y="263.72"/>
      <point x="417.22" y="304.82"/>
      <point x="399.88" y="326.02" type="curve"/>
      <point x="372.84000000000003" y="364.08"/>
      <point x="337.18" y="380.12"/>
      <point x="337.18" y="414.64000000000004" type="curve"/>
      <point x="337.18" y="434.62"/>
      <point x="335.06" y="437.5"/>
      <point x="366.94" y="482.36" type="curve"/>
      <point x="365.48" y="492.56000000000006"/>
      <point x="425.90000000000003" y="545.0799999999999"/>
      <point x="425.90000000000003" y="623.0999999999999" type="curve" smooth="yes"/>
      <point x="425.90000000000003" y="707.0999999999999"/>
      <point x="374.8" y="776.0"/>
      <point x="253.51999999999998" y="776.0" type="curve" smooth="yes"/>
      <point x="138.64" y="776.0"/>
      <point x="71.1" y="711.4000000000001"/>
      <point x="71.1" y="579.0799999999999" type="curve" smooth="yes"/>
      <point x="71.1" y="0.0" type="line"/>
      <point x="182.92000000000002" y="0.0" type="line"/>
      <point x="182.92000000000002" y="583.38" type="line"/>
      <point x="182.92000000000002" y="655.9799999999999"/>
      <point x="204.44" y="678.1"/>
      <point x="254.88" y="678.1" type="curve" smooth="yes"/>
      <point x="295.98" y="678.1"/>
      <point x="314.08" y="648.9599999999999"/>
      <point x="314.08" y="613.1" type="curve"/>
      <point x="314.08" y="561.5"/>
      <point x="288.20000000000005" y="535.46"/>
      <point x="275.0" y="512.62" type="curve"/>
      <point x="252.88" y="475.54"/>
      <point x="230.35999999999999" y="449.9"/>
      <point x="230.35999999999999" y="400.38" type="curve" smooth="yes"/>
      <point x="230.35999999999999" y="348.2"/>
      <point x="249.11999999999998" y="324.36"/>
      <point x="302.08" y="272.46" type="curve"/>
      <point x="336.5" y="236.46"/>
      <point x="359.12" y="220.36"/>
      <point x="359.12" y="164.01999999999998" type="curve" smooth="yes"/>
      <point x="359.12" y="125.77999999999999"/>
      <point x="343.38" y="88.92"/>
      <point x="303.34000000000003" y="88.92" type="curve" smooth="yes"/>
      <point x="261.5" y="88.92"/>
      <point x="249.1" y="100.74000000000001"/>
      <point x="248.42000000000002" y="98.22" type="curve"/>
      <point x="229.5" y="1.0000000000000002" type="line"/>
      <point x="236.2" y="-0.4800000000000004"/>
      <point x="262.47999999999996" y="-12.0"/>
    </contour>
  </outline>
</glyph>
<glyph name="ae" format="2">
  <advance width="664.5310000000001"/>
  <unicode hex="00E6"/>
  <anchor x="332.98" y="0.0" name="bottom"/>
  <anchor x="332.98" y="523.6" name="top"/>
  <outline>
    <contour>
      <point x="219.9" y="-16.6" type="curve" smooth="yes"/>
      <point x="273.88" y="-16.6"/>
      <point x="315.88" y="1.0"/>
      <point x="352.0" y="17.479999999999997" type="curve"/>
      <point x="385.59999999999997" y="-6.540000000000001"/>
      <point x="423.62" y="-16.6"/>
      <point x="469.08" y="-16.6" type="curve" smooth="yes"/>
      <point x="540.42" y="-16.6"/>
      <point x="585.4" y="6.640000000000001"/>
      <point x="593.9" y="13.08" type="curve"/>
      <point x="574.64" y="103.32000000000001" type="line"/>
      <point x="567.82" y="101.2"/>
      <point x="539.02" y="82.28"/>
      <point x="480.4" y="82.28" type="curve" smooth="yes"/>
      <point x="398.52" y="82.28"/>
      <point x="385.3" y="158.9"/>
      <point x="381.32" y="227.2" type="curve"/>
      <point x="618.88" y="227.2" type="line"/>
      <point x="619.88" y="245.48"/>
      <point x="619.8800000000001" y="265.38"/>
      <point x="619.8800000000001" y="267.96000000000004" type="curve" smooth="yes"/>
      <point x="619.8800000000001" y="463.28000000000003"/>
      <point x="560.1999999999999" y="541.6"/>
      <point x="445.12" y="541.6" type="curve" smooth="yes"/>
      <point x="424.21999999999997" y="541.6"/>
      <point x="379.94" y="538.1999999999999"/>
      <point x="338.5" y="499.74" type="curve"/>
      <point x="303.0" y="527.8"/>
      <point x="259.64" y="541.6"/>
      <point x="210.54" y="541.6" type="curve" smooth="yes"/>
      <point x="152.45999999999998" y="541.6"/>
      <point x="109.22" y="528.98"/>
      <point x="82.4" y="517.92" type="curve"/>
      <point x="103.02000000000001" y="424.98" type="line"/>
      <point x="127.47999999999999" y="433.08"/>
      <point x="144.0" y="441.7"/>
      <point x="199.82" y="441.7" type="curve" smooth="yes"/>
      <point x="256.8" y="441.7"/>
      <point x="269.5" y="395.74"/>
      <point x="269.5" y="359.59999999999997" type="curve" smooth="yes"/>
      <point x="269.5" y="316.82" type="line"/>
      <point x="261.82" y="316.92"/>
      <point x="232.9" y="321.88000000000005"/>
      <point x="211.54" y="321.88000000000005" type="curve" smooth="yes"/>
      <point x="127.02000000000001" y="321.88000000000005"/>
      <point x="37.4" y="270.8"/>
      <point x="37.4" y="152.0" type="curve" smooth="yes"/>
      <point x="37.4" y="28.200000000000003"/>
      <point x="132.06" y="-16.6"/>
    </contour>
    <contour>
      <point x="219.98" y="81.30000000000001" type="curve" smooth="yes"/>
      <point x="187.45999999999998" y="81.30000000000001"/>
      <point x="149.22" y="107.53999999999999"/>
      <point x="149.22" y="153.0" type="curve" smooth="yes"/>
      <point x="149.22" y="229.88"/>
      <point x="212.78000000000003" y="228.98000000000002"/>
      <point x="222.92000000000002" y="228.98000000000002" type="curve" smooth="yes"/>
      <point x="249.42000000000002" y="228.98000000000002"/>
      <point x="265.52" y="223.7"/>
      <point x="268.48" y="223.6" type="curve"/>
      <point x="270.48" y="171.46"/>
      <point x="280.46" y="128.64000000000001"/>
      <point x="290.96" y="95.82" type="curve"/>
      <point x="268.6" y="84.42"/>
      <point x="241.6" y="81.30000000000001"/>
    </contour>
    <contour>
      <point x="384.28000000000003" y="317.78000000000003" type="line"/>
      <point x="386.34" y="399.38"/>
      <point x="411.32" y="446.7"/>
      <point x="446.1" y="446.7" type="curve" smooth="yes"/>
      <point x="492.96" y="446.7"/>
      <point x="502.09999999999997" y="391.58"/>
      <point x="504.06000000000006" y="317.78000000000003" type="curve"/>
    </contour>
  </outline>
</glyph>
<glyph name="ccedilla" format="2">
  <advance width="361.335"/>
  <unicode hex="00E7"/>
  <outline>
    <contour>
      <point x="187.54000000000002" y="-190.64" type="curve" smooth="yes"/>
      <point x="265.8" y="-190.64"/>
      <point x="298.4" y="-150.2"/>
      <point x="298.4" y="-108.02000000000001" type="curve" smooth="yes"/>
      <point x="298.4" y="-73.10000000000001"/>
      <point x="281.78" y="-53.019999999999996"/>
      <point x="246.06" y="-40.0" type="curve"/>
      <point x="247.42" y="-34.62"/>
      <point x="251.42" y="-25.6"/>
      <point x="256.42" y="-16.92" type="curve"/>
      <point x="296.06" y="-14.600000000000001"/>
      <point x="334.02" y="-2.6000000000000005"/>
      <point x="349.44" y="9.459999999999999" type="curve"/>
      <point x="325.54" y="97.06" type="line"/>
      <point x="314.02" y="91.92000000000002"/>
      <point x="302.46" y="81.3"/>
      <point x="260.06" y="81.3" type="curve" smooth="yes"/>
      <point x="170.5" y="81.3"/>
      <point x="161.20000000000002" y="170.18"/>
      <point x="161.20000000000002" y="263.62" type="curve" smooth="yes"/>
      <point x="161.20000000000002" y="386.56"/>
      <point x="187.34" y="443.70000000000005"/>
      <point x="251.5" y="443.70000000000005" type="curve" smooth="yes"/>
      <point x="286.34" y="443.70000000000005"/>
      <point x="298.54" y="435.72"/>
      <point x="317.88" y="424.68" type="curve"/>
      <point x="345.44" y="516.6" type="line"/>
      <point x="324.02" y="529.62"/>
      <point x="280.61999999999995" y="541.92"/>
      <point x="242.6" y="541.92" type="curve" smooth="yes"/>
      <point x="109.36" y="541.92"/>
      <point x="44.08" y="430.40000000000003"/>
      <point x="44.08" y="263.62" type="curve" smooth="yes"/>
      <point x="44.08" y="134.5"/>
      <point x="75.48" y="20.98"/>
      <point x="185.98" y="-9.600000000000001" type="curve"/>
      <point x="174.02" y="-29.92"/>
      <point x="161.4" y="-58.81999999999999"/>
      <point x="158.02" y="-78.5" type="curve"/>
      <point x="189.2" y="-86.5"/>
      <point x="202.18" y="-91.92"/>
      <point x="202.18" y="-101.36" type="curve" smooth="yes"/>
      <point x="202.17999999999998" y="-115.49999999999999"/>
      <point x="187.07999999999998" y="-118.56"/>
      <point x="173.54" y="-118.56" type="curve" smooth="yes"/>
      <point x="148.38000000000002" y="-118.56"/>
      <point x="136.0" y="-114.56"/>
      <point x="123.0" y="-110.58" type="curve"/>
      <point x="110.38" y="-178.0" type="line"/>
      <point x="127.48" y="-185.01999999999998"/>
      <point x="163.61999999999998" y="-190.64"/>
    </contour>
  </outline>
</glyph>
<glyph name="eth" format="2">
  <advance width="471.9715"/>
  <unicode hex="00F0"/>
  <anchor x="235.89999999999998" y="0.0" name="bottom"/>
  <anchor x="235.89999999999998" y="776.0" name="top"/>
  <outline>
    <contour>
      <point x="228.64" y="-16.92" type="curve" smooth="yes"/>
      <point x="413.68000000000006" y="-16.92"/>
      <point x="424.03999999999996" y="171.26"/>
      <point x="424.03999999999996" y="282.08000000000004" type="curve" smooth="yes"/>
      <point x="424.03999999999996" y="403.18"/>
      <point x="400.02" y="518.18"/>
      <point x="357.92" y="614.1999999999999" type="curve"/>
      <point x="445.94" y="655.22" type="line"/>
      <point x="415.06" y="726.6" type="line"/>
      <point x="318.42" y="681.6" type="line"/>
      <point x="299.06" y="715.62"/>
      <point x="276.02" y="747.64"/>
      <point x="252.94" y="775.0" type="curve"/>
      <point x="175.6" y="719.58" type="line"/>
      <point x="192.4" y="694.2"/>
      <point x="210.46" y="666.5"/>
      <point x="225.2" y="640.0999999999999" type="curve"/>
      <point x="161.92000000000002" y="609.98" type="line"/>
      <point x="192.79999999999998" y="538.5999999999999" type="line"/>
      <point x="261.36" y="570.7" type="line"/>
      <point x="270.17999999999995" y="537.98"/>
      <point x="279.56" y="508.5"/>
      <point x="284.96" y="492.04" type="curve"/>
      <point x="279.98" y="481.4"/>
      <point x="263.5" y="492.6"/>
      <point x="233.64" y="492.6" type="curve" smooth="yes"/>
      <point x="128.64000000000001" y="492.6"/>
      <point x="46.379999999999995" y="417.82"/>
      <point x="46.379999999999995" y="239.60000000000002" type="curve" smooth="yes"/>
      <point x="46.379999999999995" y="91.54"/>
      <point x="104.08" y="-16.92"/>
    </contour>
    <contour>
      <point x="227.6" y="80.3" type="curve" smooth="yes"/>
      <point x="182.79999999999998" y="80.3"/>
      <point x="163.18" y="131.92000000000002"/>
      <point x="163.18" y="237.6" type="curve" smooth="yes"/>
      <point x="163.18" y="335.08"/>
      <point x="177.88000000000002" y="400.7"/>
      <point x="241.64" y="400.7" type="curve" smooth="yes"/>
      <point x="266.1" y="400.7"/>
      <point x="284.2" y="396.58000000000004"/>
      <point x="301.56" y="388.47999999999996" type="curve"/>
      <point x="305.56" y="350.56"/>
      <point x="307.56" y="309.98"/>
      <point x="307.56" y="285.4" type="curve" smooth="yes"/>
      <point x="307.56" y="196.68"/>
      <point x="314.9" y="80.3"/>
    </contour>
  </outline>
</glyph>
<glyph name="divide" format="2">
  <advance width="430.0"/>
  <unicode hex="00F7"/>
  <outline>
    <contour>
      <point x="40.38" y="253.2" type="line"/>
      <point x="389.62" y="253.2" type="line"/>
      <point x="389.62" y="345.8" type="line"/>
      <point x="40.38" y="345.8" type="line"/>
    </contour>
    <contour>
      <point x="217.01999999999998" y="77.99999999999999" type="curve" smooth="yes"/>
      <point x="254.89999999999998" y="77.99999999999999"/>
      <point x="283.44" y="107.58"/>
      <point x="283.44" y="142.12" type="curve" smooth="yes"/>
      <point x="283.44" y="177.98000000000002"/>
      <point x="254.89999999999998" y="207.88000000000002"/>
      <point x="217.01999999999998" y="207.88000000000002" type="curve" smooth="yes"/>
      <point x="180.11999999999998" y="207.88000000000002"/>
      <point x="152.58" y="177.98000000000002"/>
      <point x="152.58" y="142.12" type="curve" smooth="yes"/>
      <point x="152.58" y="107.58"/>
      <point x="180.11999999999998" y="77.99999999999999"/>
    </contour>
    <contour>
      <point x="217.01999999999998" y="393.46" type="curve" smooth="yes"/>
      <point x="254.89999999999998" y="393.46"/>
      <point x="283.44" y="422.38"/>
      <point x="283.44" y="457.9" type="curve" smooth="yes"/>
      <point x="283.44" y="492.78000000000003"/>
      <point x="254.89999999999998" y="523.0200000000001"/>
      <point x="217.01999999999998" y="523.0200000000001" type="curve" smooth="yes"/>
      <point x="180.11999999999998" y="523.0200000000001"/>
      <point x="152.58" y="492.78000000000003"/>
      <point x="152.58" y="457.9" type="curve" smooth="yes"/>
      <point x="152.58" y="422.38"/>
      <point x="180.11999999999998" y="393.46"/>
    </contour>
  </outline>
</glyph>
<glyph name="oslash" format="2">
  <advance width="469.804"/>
  <unicode hex="00F8"/>
  <anchor x="235.60000000000002" y="523.6" name="top"/>
  <outline>
    <contour>
      <point x="99.8" y="-36.62" type="line"/>
      <point x="129.9" y="15.500000000000002" type="line"/>
      <point x="158.88" y="-5.880000000000001"/>
      <point x="192.9" y="-16.92"/>
      <point x="235.60000000000002" y="-16.92" type="curve" smooth="yes"/>
      <point x="363.88" y="-16.92"/>
      <point x="425.78000000000003" y="93.10000000000001"/>
      <point x="425.78000000000003" y="261.02" type="curve" smooth="yes"/>
      <point x="425.78000000000003" y="334.02"/>
      <point x="414.44" y="397.36"/>
      <point x="390.44" y="443.38" type="curve"/>
      <point x="437.44" y="520.38" type="line"/>
      <point x="372.08" y="561.5" type="line"/>
      <point x="339.38" y="507.78000000000003" type="line"/>
      <point x="311.38" y="529.54"/>
      <point x="275.35999999999996" y="541.6"/>
      <point x="235.60000000000002" y="541.6" type="curve" smooth="yes"/>
      <point x="106.97999999999999" y="541.6"/>
      <point x="44.08" y="429.59999999999997"/>
      <point x="44.08" y="261.02" type="curve" smooth="yes"/>
      <point x="44.08" y="188.62"/>
      <point x="55.1" y="125.9"/>
      <point x="77.18" y="77.9" type="curve"/>
      <point x="33.46" y="4.820000000000001" type="line"/>
    </contour>
    <contour>
      <point x="235.60000000000002" y="82.3" type="curve" smooth="yes"/>
      <point x="213.82" y="82.3"/>
      <point x="199.04000000000002" y="92.02"/>
      <point x="189.94" y="107.80000000000001" type="curve"/>
      <point x="314.09999999999997" y="321.82" type="line"/>
      <point x="309.6" y="301.71999999999997"/>
      <point x="308.0" y="281.56"/>
      <point x="308.0" y="261.02" type="curve" smooth="yes"/>
      <point x="308.0" y="153.8"/>
      <point x="292.47999999999996" y="82.3"/>
    </contour>
    <contour>
      <point x="152.52" y="197.46" type="line"/>
      <point x="157.32000000000002" y="219.22"/>
      <point x="161.20000000000002" y="239.44"/>
      <point x="161.20000000000002" y="261.02" type="curve" smooth="yes"/>
      <point x="161.20000000000002" y="369.21999999999997"/>
      <point x="180.01999999999998" y="441.72"/>
      <point x="235.60000000000002" y="441.72" type="curve" smooth="yes"/>
      <point x="255.10000000000002" y="441.72"/>
      <point x="269.58" y="430.96"/>
      <point x="279.0" y="413.47999999999996" type="curve"/>
    </contour>
  </outline>
</glyph>
<glyph name="thorn" format="2">
  <advance width="479.5025"/>
  <unicode hex="00FE"/>
  <anchor x="240.54" y="0.0" name="bottom"/>
  <anchor x="240.54" y="523.6" name="top"/>
  <outline>
    <contour>
      <point x="73.39999999999999" y="-183.0" type="line"/>
      <point x="185.22" y="-183.0" type="line"/>
      <point x="185.22" y="-6.780000000000001" type="line"/>
      <point x="192.82000000000002" y="-5.019999999999998"/>
      <point x="210.92" y="-16.92"/>
      <point x="251.4" y="-16.92" type="curve" smooth="yes"/>
      <point x="385.28000000000003" y="-16.92"/>
      <point x="435.34" y="83.97999999999999"/>
      <point x="435.34" y="256.08" type="curve" smooth="yes"/>
      <point x="435.34" y="440.88"/>
      <point x="358.64" y="539.64"/>
      <point x="222.38" y="539.64" type="curve" smooth="yes"/>
      <point x="215.42000000000002" y="539.64"/>
      <point x="211.74" y="548.0600000000001"/>
      <point x="185.22" y="551.22" type="curve"/>
      <point x="185.22" y="776.0" type="line"/>
      <point x="73.39999999999999" y="757.4000000000001" type="line"/>
    </contour>
    <contour>
      <point x="233.82000000000002" y="81.3" type="curve" smooth="yes"/>
      <point x="207.89999999999998" y="81.3"/>
      <point x="193.42000000000002" y="92.2"/>
      <point x="185.22" y="92.4" type="curve"/>
      <point x="185.22" y="458.92" type="line"/>
      <point x="189.5" y="447.58"/>
      <point x="199.98000000000002" y="441.08"/>
      <point x="205.5" y="441.08" type="curve" smooth="yes"/>
      <point x="276.0" y="441.08"/>
      <point x="318.22" y="399.1"/>
      <point x="318.22" y="257.08" type="curve" smooth="yes"/>
      <point x="318.22" y="135.2"/>
      <point x="302.44" y="81.3"/>
    </contour>
  </outline>
</glyph>
<glyph name="Aogonek" format="2">
  <advance width="523.072"/>
  <unicode hex="0104"/>
  <outline>
    <contour>
      <point x="437.06" y="-187.0" type="curve" smooth="yes"/>
      <point x="463.3" y="-187.0"/>
      <point x="492.82" y="-180.38"/>
      <point x="507.22" y="-174.35999999999999" type="curve"/>
      <point x="500.92" y="-96.66" type="line"/>
      <point x="490.21999999999997" y="-101.98"/>
      <point x="475.28000000000003" y="-103.98"/>
      <point x="460.34000000000003" y="-103.98" type="curve" smooth="yes"/>
      <point x="444.18" y="-103.98"/>
      <point x="424.2" y="-98.56"/>
      <point x="424.2" y="-75.48" type="curve" smooth="yes"/>
      <point x="424.2" y="-42.58"/>
      <point x="474.14" y="-11.66"/>
      <point x="505.22" y="1.6399999999999997" type="curve"/>
      <point x="448.82" y="279.58"/>
      <point x="382.28000000000003" y="510.34000000000003"/>
      <point x="323.18" y="693.0" type="curve"/>
      <point x="201.38000000000002" y="693.0" type="line"/>
      <point x="141.64" y="512.3000000000001"/>
      <point x="91.44" y="332.86"/>
      <point x="16.4" y="0.0" type="curve"/>
      <point x="131.18" y="0.0" type="line"/>
      <point x="140.20000000000002" y="60.0"/>
      <point x="149.9" y="114.1"/>
      <point x="160.28" y="165.56" type="curve"/>
      <point x="359.0" y="165.56" type="line"/>
      <point x="367.4" y="114.1"/>
      <point x="376.12" y="59.02"/>
      <point x="387.12" y="0.0" type="curve"/>
      <point x="387.12" y="0.0" type="line"/>
      <point x="359.44" y="-19.579999999999995"/>
      <point x="319.4" y="-55.5"/>
      <point x="319.4" y="-106.0" type="curve" smooth="yes"/>
      <point x="319.4" y="-154.35999999999999"/>
      <point x="359.11999999999995" y="-187.0"/>
    </contour>
    <contour>
      <point x="183.82000000000002" y="260.5" type="line"/>
      <point x="202.34" y="353.96000000000004"/>
      <point x="243.79999999999998" y="499.3"/>
      <point x="259.8" y="562.5600000000001" type="curve"/>
      <point x="274.5" y="499.3"/>
      <point x="317.6" y="351.68"/>
      <point x="333.47999999999996" y="260.5" type="curve"/>
    </contour>
  </outline>
</glyph>
<glyph name="aogonek" format="2">
  <advance width="441.5695"/>
  <unicode hex="0105"/>
  <outline>
    <contour>
      <point x="312.78" y="-187.0" type="curve" smooth="yes"/>
      <point x="339.04" y="-187.0"/>
      <point x="368.21999999999997" y="-180.38"/>
      <point x="383.28000000000003" y="-174.35999999999999" type="curve"/>
      <point x="376.32" y="-96.66" type="line"/>
      <point x="366.28000000000003" y="-101.98"/>
      <point x="351.02" y="-103.98"/>
      <point x="336.4" y="-103.98" type="curve" smooth="yes"/>
      <point x="319.92" y="-103.98"/>
      <point x="299.94" y="-97.56"/>
      <point x="299.94" y="-72.48" type="curve" smooth="yes"/>
      <point x="299.94" y="-37.559999999999995"/>
      <point x="349.22" y="-3.979999999999997"/>
      <point x="372.78" y="9.36" type="curve"/>
      <point x="372.78" y="355.40000000000003" type="line" smooth="yes"/>
      <point x="372.78" y="473.18"/>
      <point x="312.04" y="541.6"/>
      <point x="207.6" y="541.6" type="curve" smooth="yes"/>
      <point x="152.45999999999998" y="541.6"/>
      <point x="107.58" y="528.98"/>
      <point x="82.4" y="517.92" type="curve"/>
      <point x="103.02000000000001" y="424.98" type="line"/>
      <point x="126.17999999999999" y="433.08"/>
      <point x="142.7" y="441.7"/>
      <point x="196.88" y="441.7" type="curve" smooth="yes"/>
      <point x="251.89999999999998" y="441.7"/>
      <point x="262.96" y="395.74"/>
      <point x="262.96" y="359.6" type="curve" smooth="yes"/>
      <point x="262.96" y="316.82" type="line"/>
      <point x="255.62" y="316.92"/>
      <point x="228.98" y="321.88000000000005"/>
      <point x="208.6" y="321.88000000000005" type="curve" smooth="yes"/>
      <point x="126.04" y="321.88000000000005"/>
      <point x="37.4" y="270.8"/>
      <point x="37.4" y="152.0" type="curve" smooth="yes"/>
      <point x="37.4" y="25.22"/>
      <point x="128.82" y="-14.92"/>
      <point x="205.2" y="-14.92" type="curve" smooth="yes"/>
      <point x="219.46" y="-14.92"/>
      <point x="231.12" y="-14.920000000000002"/>
      <point x="238.22" y="-13.900000000000002" type="curve"/>
      <point x="222.92000000000002" y="-30.46"/>
      <point x="195.46" y="-57.18"/>
      <point x="195.46" y="-102.0" type="curve" smooth="yes"/>
      <point x="195.46" y="-153.35999999999999"/>
      <point x="235.18" y="-187.0"/>
    </contour>
    <contour>
      <point x="214.10000000000002" y="80.32000000000001" type="curve" smooth="yes"/>
      <point x="183.22" y="80.32000000000001"/>
      <point x="149.22" y="97.88"/>
      <point x="149.22" y="153.0" type="curve" smooth="yes"/>
      <point x="149.22" y="229.88"/>
      <point x="212.12" y="228.98000000000002"/>
      <point x="219.98000000000002" y="228.98000000000002" type="curve" smooth="yes"/>
      <point x="244.54" y="228.98000000000002"/>
      <point x="259.0" y="223.70000000000002"/>
      <point x="262.96" y="223.6" type="curve"/>
      <point x="262.96" y="87.32" type="line"/>
      <point x="251.08" y="84.28"/>
      <point x="239.6" y="80.32000000000001"/>
    </contour>
  </outline>
</glyph>
